  0
SECTION
  2
HEADER
  0
ENDSEC
  0
SECTION
  2
TABLES
  0
TABLE
  2
LTYPE
 70
     1
  0
LTYPE
  2
CONTINUOUS
 70
     0
  3
Solid line
 72
    65
 73
     0
 40
0.0
  0
ENDTAB
  0
TABLE
  2
LAYER
 70
     2
  0
LAYER
  2
0
 70
     0
 62
     1
  6
CONTINUOUS
  0
LAYER
  2
1_SERA-DSP
 70
     0
 62
     7
  6
CONTINUOUS
  0
ENDTAB
  0
ENDSEC
  0
SECTION
  2
BLOCKS
  0
ENDSEC
  0
SECTION
  2
ENTITIES
  0
POLYLINE
  8
1_SERA-DSP
 66
     1
 10
0.0
 20
0.0
 30
0.0
 70
     0
  0
VERTEX
  8
1_SERA-DSP
 10
4.599
 20
1.231
 30
0.0
 40
0.008
 41
0.008
  0
VERTEX
  8
1_SERA-DSP
 10
4.615700
 20
1.231
 30
0.0
 40
0.008
 41
0.008
  0
VERTEX
  8
1_SERA-DSP
 10
4.618400
 20
1.2255
 30
0.0
 40
0.008
 41
0.008
  0
VERTEX
  8
1_SERA-DSP
 10
4.618400
 20
1.2199
 30
0.0
 40
0.008
 41
0.008
  0
VERTEX
  8
1_SERA-DSP
 10
4.615700
 20
1.214400
 30
0.0
 40
0.008
 41
0.008
  0
VERTEX
  8
1_SERA-DSP
 10
4.599
 20
1.214400
 30
0.0
 40
0.008
 41
0.008
  0
VERTEX
  8
1_SERA-DSP
 10
4.5962
 20
1.2199
 30
0.0
 40
0.008
 41
0.008
  0
VERTEX
  8
1_SERA-DSP
 10
4.5962
 20
1.2255
 30
0.0
 40
0.008
 41
0.008
  0
VERTEX
  8
1_SERA-DSP
 10
4.607300
 20
1.2477
 30
0.0
 40
0.008
 41
0.008
  0
SEQEND
  8
1_SERA-DSP
  0
POLYLINE
  8
1_SERA-DSP
 66
     1
 10
0.0
 20
0.0
 30
0.0
 70
     0
  0
VERTEX
  8
1_SERA-DSP
 10
4.558
 20
1.214400
 30
0.0
 40
0.008
 41
0.008
  0
VERTEX
  8
1_SERA-DSP
 10
4.558
 20
1.2477
 30
0.0
 40
0.008
 41
0.008
  0
SEQEND
  8
1_SERA-DSP
  0
POLYLINE
  8
1_SERA-DSP
 66
     1
 10
0.0
 20
0.0
 30
0.0
 70
     0
  0
VERTEX
  8
1_SERA-DSP
 10
4.5552
 20
1.214400
 30
0.0
 40
0.008
 41
0.008
  0
VERTEX
  8
1_SERA-DSP
 10
4.5719
 20
1.214400
 30
0.0
 40
0.008
 41
0.008
  0
VERTEX
  8
1_SERA-DSP
 10
4.577400
 20
1.2255
 30
0.0
 40
0.008
 41
0.008
  0
VERTEX
  8
1_SERA-DSP
 10
4.577400
 20
1.236600
 30
0.0
 40
0.008
 41
0.008
  0
VERTEX
  8
1_SERA-DSP
 10
4.5719
 20
1.2477
 30
0.0
 40
0.008
 41
0.008
  0
VERTEX
  8
1_SERA-DSP
 10
4.5552
 20
1.2477
 30
0.0
 40
0.008
 41
0.008
  0
SEQEND
  8
1_SERA-DSP
  0
POLYLINE
  8
1_SERA-DSP
 66
     1
 10
0.0
 20
0.0
 30
0.0
 70
     0
  0
VERTEX
  8
1_SERA-DSP
 10
4.612900
 20
2.214400
 30
0.0
 40
0.008
 41
0.008
  0
VERTEX
  8
1_SERA-DSP
 10
4.601800
 20
2.214400
 30
0.0
 40
0.008
 41
0.008
  0
SEQEND
  8
1_SERA-DSP
  0
POLYLINE
  8
1_SERA-DSP
 66
     1
 10
0.0
 20
0.0
 30
0.0
 70
     0
  0
VERTEX
  8
1_SERA-DSP
 10
4.607300
 20
2.214400
 30
0.0
 40
0.008
 41
0.008
  0
VERTEX
  8
1_SERA-DSP
 10
4.607300
 20
2.247700
 30
0.0
 40
0.008
 41
0.008
  0
VERTEX
  8
1_SERA-DSP
 10
4.601800
 20
2.2422
 30
0.0
 40
0.008
 41
0.008
  0
SEQEND
  8
1_SERA-DSP
  0
POLYLINE
  8
1_SERA-DSP
 66
     1
 10
0.0
 20
0.0
 30
0.0
 70
     0
  0
VERTEX
  8
1_SERA-DSP
 10
4.558
 20
2.214400
 30
0.0
 40
0.008
 41
0.008
  0
VERTEX
  8
1_SERA-DSP
 10
4.558
 20
2.247700
 30
0.0
 40
0.008
 41
0.008
  0
SEQEND
  8
1_SERA-DSP
  0
POLYLINE
  8
1_SERA-DSP
 66
     1
 10
0.0
 20
0.0
 30
0.0
 70
     0
  0
VERTEX
  8
1_SERA-DSP
 10
4.5552
 20
2.214400
 30
0.0
 40
0.008
 41
0.008
  0
VERTEX
  8
1_SERA-DSP
 10
4.5719
 20
2.214400
 30
0.0
 40
0.008
 41
0.008
  0
VERTEX
  8
1_SERA-DSP
 10
4.577400
 20
2.2255
 30
0.0
 40
0.008
 41
0.008
  0
VERTEX
  8
1_SERA-DSP
 10
4.577400
 20
2.2366
 30
0.0
 40
0.008
 41
0.008
  0
VERTEX
  8
1_SERA-DSP
 10
4.5719
 20
2.247700
 30
0.0
 40
0.008
 41
0.008
  0
VERTEX
  8
1_SERA-DSP
 10
4.5552
 20
2.247700
 30
0.0
 40
0.008
 41
0.008
  0
SEQEND
  8
1_SERA-DSP
  0
POLYLINE
  8
1_SERA-DSP
 66
     1
 10
0.0
 20
0.0
 30
0.0
 70
     0
  0
VERTEX
  8
1_SERA-DSP
 10
4.618400
 20
2.014400
 30
0.0
 40
0.008
 41
0.008
  0
VERTEX
  8
1_SERA-DSP
 10
4.5962
 20
2.014400
 30
0.0
 40
0.008
 41
0.008
  0
VERTEX
  8
1_SERA-DSP
 10
4.618400
 20
2.0366
 30
0.0
 40
0.008
 41
0.008
  0
VERTEX
  8
1_SERA-DSP
 10
4.618400
 20
2.042200
 30
0.0
 40
0.008
 41
0.008
  0
VERTEX
  8
1_SERA-DSP
 10
4.615700
 20
2.047700
 30
0.0
 40
0.008
 41
0.008
  0
VERTEX
  8
1_SERA-DSP
 10
4.599
 20
2.047700
 30
0.0
 40
0.008
 41
0.008
  0
VERTEX
  8
1_SERA-DSP
 10
4.5962
 20
2.042200
 30
0.0
 40
0.008
 41
0.008
  0
SEQEND
  8
1_SERA-DSP
  0
POLYLINE
  8
1_SERA-DSP
 66
     1
 10
0.0
 20
0.0
 30
0.0
 70
     0
  0
VERTEX
  8
1_SERA-DSP
 10
4.558
 20
2.014400
 30
0.0
 40
0.008
 41
0.008
  0
VERTEX
  8
1_SERA-DSP
 10
4.558
 20
2.047700
 30
0.0
 40
0.008
 41
0.008
  0
SEQEND
  8
1_SERA-DSP
  0
POLYLINE
  8
1_SERA-DSP
 66
     1
 10
0.0
 20
0.0
 30
0.0
 70
     0
  0
VERTEX
  8
1_SERA-DSP
 10
4.5552
 20
2.014400
 30
0.0
 40
0.008
 41
0.008
  0
VERTEX
  8
1_SERA-DSP
 10
4.5719
 20
2.014400
 30
0.0
 40
0.008
 41
0.008
  0
VERTEX
  8
1_SERA-DSP
 10
4.577400
 20
2.0255
 30
0.0
 40
0.008
 41
0.008
  0
VERTEX
  8
1_SERA-DSP
 10
4.577400
 20
2.0366
 30
0.0
 40
0.008
 41
0.008
  0
VERTEX
  8
1_SERA-DSP
 10
4.5719
 20
2.047700
 30
0.0
 40
0.008
 41
0.008
  0
VERTEX
  8
1_SERA-DSP
 10
4.5552
 20
2.047700
 30
0.0
 40
0.008
 41
0.008
  0
SEQEND
  8
1_SERA-DSP
  0
POLYLINE
  8
1_SERA-DSP
 66
     1
 10
0.0
 20
0.0
 30
0.0
 70
     0
  0
VERTEX
  8
1_SERA-DSP
 10
2.8579
 20
0.883
 30
0.0
 40
0.008
 41
0.008
  0
VERTEX
  8
1_SERA-DSP
 10
2.8402
 20
0.883
 30
0.0
 40
0.008
 41
0.008
  0
VERTEX
  8
1_SERA-DSP
 10
2.849
 20
0.900800
 30
0.0
 40
0.008
 41
0.008
  0
VERTEX
  8
1_SERA-DSP
 10
2.8535
 20
0.900800
 30
0.0
 40
0.008
 41
0.008
  0
VERTEX
  8
1_SERA-DSP
 10
2.8535
 20
0.874100
 30
0.0
 40
0.008
 41
0.008
  0
SEQEND
  8
1_SERA-DSP
  0
POLYLINE
  8
1_SERA-DSP
 66
     1
 10
0.0
 20
0.0
 30
0.0
 70
     0
  0
VERTEX
  8
1_SERA-DSP
 10
2.8219
 20
0.900800
 30
0.0
 40
0.008
 41
0.008
  0
VERTEX
  8
1_SERA-DSP
 10
2.8219
 20
0.8785
 30
0.0
 40
0.008
 41
0.008
  0
VERTEX
  8
1_SERA-DSP
 10
2.819700
 20
0.874100
 30
0.0
 40
0.008
 41
0.008
  0
VERTEX
  8
1_SERA-DSP
 10
2.813
 20
0.8874
 30
0.0
 40
0.008
 41
0.008
  0
SEQEND
  8
1_SERA-DSP
  0
POLYLINE
  8
1_SERA-DSP
 66
     1
 10
0.0
 20
0.0
 30
0.0
 70
     0
  0
VERTEX
  8
1_SERA-DSP
 10
2.813
 20
0.8919
 30
0.0
 40
0.008
 41
0.008
  0
VERTEX
  8
1_SERA-DSP
 10
2.813
 20
0.8874
 30
0.0
 40
0.008
 41
0.008
  0
VERTEX
  8
1_SERA-DSP
 10
2.806400
 20
0.874100
 30
0.0
 40
0.008
 41
0.008
  0
VERTEX
  8
1_SERA-DSP
 10
2.804200
 20
0.8785
 30
0.0
 40
0.008
 41
0.008
  0
VERTEX
  8
1_SERA-DSP
 10
2.804200
 20
0.900800
 30
0.0
 40
0.008
 41
0.008
  0
SEQEND
  8
1_SERA-DSP
  0
POLYLINE
  8
1_SERA-DSP
 66
     1
 10
0.0
 20
0.0
 30
0.0
 70
     0
  0
VERTEX
  8
1_SERA-DSP
 10
2.785900
 20
0.8963
 30
0.0
 40
0.008
 41
0.008
  0
VERTEX
  8
1_SERA-DSP
 10
2.7837
 20
0.900800
 30
0.0
 40
0.008
 41
0.008
  0
VERTEX
  8
1_SERA-DSP
 10
2.7704
 20
0.900800
 30
0.0
 40
0.008
 41
0.008
  0
VERTEX
  8
1_SERA-DSP
 10
2.768200
 20
0.8963
 30
0.0
 40
0.008
 41
0.008
  0
VERTEX
  8
1_SERA-DSP
 10
2.768200
 20
0.8919
 30
0.0
 40
0.008
 41
0.008
  0
VERTEX
  8
1_SERA-DSP
 10
2.7704
 20
0.8874
 30
0.0
 40
0.008
 41
0.008
  0
VERTEX
  8
1_SERA-DSP
 10
2.7837
 20
0.8874
 30
0.0
 40
0.008
 41
0.008
  0
VERTEX
  8
1_SERA-DSP
 10
2.785900
 20
0.883
 30
0.0
 40
0.008
 41
0.008
  0
VERTEX
  8
1_SERA-DSP
 10
2.785900
 20
0.8785
 30
0.0
 40
0.008
 41
0.008
  0
VERTEX
  8
1_SERA-DSP
 10
2.7837
 20
0.874100
 30
0.0
 40
0.008
 41
0.008
  0
VERTEX
  8
1_SERA-DSP
 10
2.7704
 20
0.874100
 30
0.0
 40
0.008
 41
0.008
  0
VERTEX
  8
1_SERA-DSP
 10
2.768200
 20
0.8785
 30
0.0
 40
0.008
 41
0.008
  0
SEQEND
  8
1_SERA-DSP
  0
POLYLINE
  8
1_SERA-DSP
 66
     1
 10
0.0
 20
0.0
 30
0.0
 70
     0
  0
VERTEX
  8
1_SERA-DSP
 10
2.9273
 20
1.2205
 30
0.0
 40
0.008
 41
0.008
  0
VERTEX
  8
1_SERA-DSP
 10
2.909500
 20
1.2205
 30
0.0
 40
0.008
 41
0.008
  0
VERTEX
  8
1_SERA-DSP
 10
2.918400
 20
1.238300
 30
0.0
 40
0.008
 41
0.008
  0
VERTEX
  8
1_SERA-DSP
 10
2.9229
 20
1.238300
 30
0.0
 40
0.008
 41
0.008
  0
VERTEX
  8
1_SERA-DSP
 10
2.9229
 20
1.2116
 30
0.0
 40
0.008
 41
0.008
  0
SEQEND
  8
1_SERA-DSP
  0
POLYLINE
  8
1_SERA-DSP
 66
     1
 10
0.0
 20
0.0
 30
0.0
 70
     0
  0
VERTEX
  8
1_SERA-DSP
 10
2.891300
 20
1.2027
 30
0.0
 40
0.008
 41
0.008
  0
VERTEX
  8
1_SERA-DSP
 10
2.8735
 20
1.2027
 30
0.0
 40
0.008
 41
0.008
  0
SEQEND
  8
1_SERA-DSP
  0
POLYLINE
  8
1_SERA-DSP
 66
     1
 10
0.0
 20
0.0
 30
0.0
 70
     0
  0
VERTEX
  8
1_SERA-DSP
 10
2.846400
 20
1.2116
 30
0.0
 40
0.008
 41
0.008
  0
VERTEX
  8
1_SERA-DSP
 10
2.846400
 20
1.2249
 30
0.0
 40
0.008
 41
0.008
  0
SEQEND
  8
1_SERA-DSP
  0
POLYLINE
  8
1_SERA-DSP
 66
     1
 10
0.0
 20
0.0
 30
0.0
 70
     0
  0
VERTEX
  8
1_SERA-DSP
 10
2.8553
 20
1.238300
 30
0.0
 40
0.008
 41
0.008
  0
VERTEX
  8
1_SERA-DSP
 10
2.848700
 20
1.2249
 30
0.0
 40
0.008
 41
0.008
  0
VERTEX
  8
1_SERA-DSP
 10
2.844200
 20
1.2249
 30
0.0
 40
0.008
 41
0.008
  0
VERTEX
  8
1_SERA-DSP
 10
2.837500
 20
1.238300
 30
0.0
 40
0.008
 41
0.008
  0
SEQEND
  8
1_SERA-DSP
  0
POLYLINE
  8
1_SERA-DSP
 66
     1
 10
0.0
 20
0.0
 30
0.0
 70
     0
  0
VERTEX
  8
1_SERA-DSP
 10
2.8149
 20
1.2249
 30
0.0
 40
0.008
 41
0.008
  0
VERTEX
  8
1_SERA-DSP
 10
2.801500
 20
1.2249
 30
0.0
 40
0.008
 41
0.008
  0
SEQEND
  8
1_SERA-DSP
  0
POLYLINE
  8
1_SERA-DSP
 66
     1
 10
0.0
 20
0.0
 30
0.0
 70
     0
  0
VERTEX
  8
1_SERA-DSP
 10
2.8193
 20
1.2116
 30
0.0
 40
0.008
 41
0.008
  0
VERTEX
  8
1_SERA-DSP
 10
2.801500
 20
1.2116
 30
0.0
 40
0.008
 41
0.008
  0
VERTEX
  8
1_SERA-DSP
 10
2.801500
 20
1.238300
 30
0.0
 40
0.008
 41
0.008
  0
VERTEX
  8
1_SERA-DSP
 10
2.8193
 20
1.238300
 30
0.0
 40
0.008
 41
0.008
  0
SEQEND
  8
1_SERA-DSP
  0
POLYLINE
  8
1_SERA-DSP
 66
     1
 10
0.0
 20
0.0
 30
0.0
 70
     0
  0
VERTEX
  8
1_SERA-DSP
 10
2.7833
 20
1.2116
 30
0.0
 40
0.008
 41
0.008
  0
VERTEX
  8
1_SERA-DSP
 10
2.77
 20
1.2249
 30
0.0
 40
0.008
 41
0.008
  0
VERTEX
  8
1_SERA-DSP
 10
2.7833
 20
1.238300
 30
0.0
 40
0.008
 41
0.008
  0
SEQEND
  8
1_SERA-DSP
  0
POLYLINE
  8
1_SERA-DSP
 66
     1
 10
0.0
 20
0.0
 30
0.0
 70
     0
  0
VERTEX
  8
1_SERA-DSP
 10
2.7655
 20
1.238300
 30
0.0
 40
0.008
 41
0.008
  0
VERTEX
  8
1_SERA-DSP
 10
2.7655
 20
1.2116
 30
0.0
 40
0.008
 41
0.008
  0
SEQEND
  8
1_SERA-DSP
  0
POLYLINE
  8
1_SERA-DSP
 66
     1
 10
0.0
 20
0.0
 30
0.0
 70
     0
  0
VERTEX
  8
1_SERA-DSP
 10
2.504400
 20
2.394
 30
0.0
 40
0.008
 41
0.008
  0
VERTEX
  8
1_SERA-DSP
 10
2.498900
 20
2.388400
 30
0.0
 40
0.008
 41
0.008
  0
VERTEX
  8
1_SERA-DSP
 10
2.498900
 20
2.3773
 30
0.0
 40
0.008
 41
0.008
  0
VERTEX
  8
1_SERA-DSP
 10
2.504400
 20
2.3718
 30
0.0
 40
0.008
 41
0.008
  0
VERTEX
  8
1_SERA-DSP
 10
2.51
 20
2.3718
 30
0.0
 40
0.008
 41
0.008
  0
VERTEX
  8
1_SERA-DSP
 10
2.521100
 20
2.3829
 30
0.0
 40
0.008
 41
0.008
  0
VERTEX
  8
1_SERA-DSP
 10
2.5322
 20
2.3718
 30
0.0
 40
0.008
 41
0.008
  0
VERTEX
  8
1_SERA-DSP
 10
2.5322
 20
2.394
 30
0.0
 40
0.008
 41
0.008
  0
SEQEND
  8
1_SERA-DSP
  0
POLYLINE
  8
1_SERA-DSP
 66
     1
 10
0.0
 20
0.0
 30
0.0
 70
     0
  0
VERTEX
  8
1_SERA-DSP
 10
2.51
 20
2.432200
 30
0.0
 40
0.008
 41
0.008
  0
VERTEX
  8
1_SERA-DSP
 10
2.504400
 20
2.432200
 30
0.0
 40
0.008
 41
0.008
  0
VERTEX
  8
1_SERA-DSP
 10
2.498900
 20
2.429400
 30
0.0
 40
0.008
 41
0.008
  0
VERTEX
  8
1_SERA-DSP
 10
2.498900
 20
2.4183
 30
0.0
 40
0.008
 41
0.008
  0
VERTEX
  8
1_SERA-DSP
 10
2.504400
 20
2.415600
 30
0.0
 40
0.008
 41
0.008
  0
VERTEX
  8
1_SERA-DSP
 10
2.5322
 20
2.415600
 30
0.0
 40
0.008
 41
0.008
  0
SEQEND
  8
1_SERA-DSP
  0
POLYLINE
  8
1_SERA-DSP
 66
     1
 10
0.0
 20
0.0
 30
0.0
 70
     0
  0
VERTEX
  8
1_SERA-DSP
 10
2.5322
 20
2.4128
 30
0.0
 40
0.008
 41
0.008
  0
VERTEX
  8
1_SERA-DSP
 10
2.5322
 20
2.4239
 30
0.0
 40
0.008
 41
0.008
  0
SEQEND
  8
1_SERA-DSP
  0
POLYLINE
  8
1_SERA-DSP
 66
     1
 10
0.0
 20
0.0
 30
0.0
 70
     0
  0
VERTEX
  8
1_SERA-DSP
 10
3.739400
 20
0.7825
 30
0.0
 40
0.008
 41
0.008
  0
VERTEX
  8
1_SERA-DSP
 10
3.739400
 20
0.8048
 30
0.0
 40
0.008
 41
0.008
  0
VERTEX
  8
1_SERA-DSP
 10
3.761600
 20
0.7937
 30
0.0
 40
0.008
 41
0.008
  0
VERTEX
  8
1_SERA-DSP
 10
3.761600
 20
0.7881
 30
0.0
 40
0.008
 41
0.008
  0
VERTEX
  8
1_SERA-DSP
 10
3.7283
 20
0.7881
 30
0.0
 40
0.008
 41
0.008
  0
SEQEND
  8
1_SERA-DSP
  0
POLYLINE
  8
1_SERA-DSP
 66
     1
 10
0.0
 20
0.0
 30
0.0
 70
     0
  0
VERTEX
  8
1_SERA-DSP
 10
3.733800
 20
0.845800
 30
0.0
 40
0.008
 41
0.008
  0
VERTEX
  8
1_SERA-DSP
 10
3.7283
 20
0.843
 30
0.0
 40
0.008
 41
0.008
  0
VERTEX
  8
1_SERA-DSP
 10
3.7283
 20
0.8263
 30
0.0
 40
0.008
 41
0.008
  0
VERTEX
  8
1_SERA-DSP
 10
3.733800
 20
0.823500
 30
0.0
 40
0.008
 41
0.008
  0
VERTEX
  8
1_SERA-DSP
 10
3.744900
 20
0.823500
 30
0.0
 40
0.008
 41
0.008
  0
VERTEX
  8
1_SERA-DSP
 10
3.7505
 20
0.8291
 30
0.0
 40
0.008
 41
0.008
  0
VERTEX
  8
1_SERA-DSP
 10
3.7505
 20
0.845800
 30
0.0
 40
0.008
 41
0.008
  0
VERTEX
  8
1_SERA-DSP
 10
3.761600
 20
0.845800
 30
0.0
 40
0.008
 41
0.008
  0
VERTEX
  8
1_SERA-DSP
 10
3.761600
 20
0.823500
 30
0.0
 40
0.008
 41
0.008
  0
SEQEND
  8
1_SERA-DSP
  0
POLYLINE
  8
1_SERA-DSP
 66
     1
 10
0.0
 20
0.0
 30
0.0
 70
     0
  0
VERTEX
  8
1_SERA-DSP
 10
3.744900
 20
0.8729
 30
0.0
 40
0.008
 41
0.008
  0
VERTEX
  8
1_SERA-DSP
 10
3.7283
 20
0.864500
 30
0.0
 40
0.008
 41
0.008
  0
SEQEND
  8
1_SERA-DSP
  0
POLYLINE
  8
1_SERA-DSP
 66
     1
 10
0.0
 20
0.0
 30
0.0
 70
     0
  0
VERTEX
  8
1_SERA-DSP
 10
3.744900
 20
0.8868
 30
0.0
 40
0.008
 41
0.008
  0
VERTEX
  8
1_SERA-DSP
 10
3.744900
 20
0.8701
 30
0.0
 40
0.008
 41
0.008
  0
VERTEX
  8
1_SERA-DSP
 10
3.7505
 20
0.864500
 30
0.0
 40
0.008
 41
0.008
  0
VERTEX
  8
1_SERA-DSP
 10
3.756
 20
0.864500
 30
0.0
 40
0.008
 41
0.008
  0
VERTEX
  8
1_SERA-DSP
 10
3.761600
 20
0.8701
 30
0.0
 40
0.008
 41
0.008
  0
VERTEX
  8
1_SERA-DSP
 10
3.761600
 20
0.8868
 30
0.0
 40
0.008
 41
0.008
  0
VERTEX
  8
1_SERA-DSP
 10
3.7283
 20
0.8868
 30
0.0
 40
0.008
 41
0.008
  0
SEQEND
  8
1_SERA-DSP
  0
POLYLINE
  8
1_SERA-DSP
 66
     1
 10
0.0
 20
0.0
 30
0.0
 70
     0
  0
VERTEX
  8
1_SERA-DSP
 10
3.6176
 20
0.8059
 30
0.0
 40
0.008
 41
0.008
  0
VERTEX
  8
1_SERA-DSP
 10
3.634300
 20
0.8226
 30
0.0
 40
0.008
 41
0.008
  0
VERTEX
  8
1_SERA-DSP
 10
3.651
 20
0.8059
 30
0.0
 40
0.008
 41
0.008
  0
SEQEND
  8
1_SERA-DSP
  0
POLYLINE
  8
1_SERA-DSP
 66
     1
 10
0.0
 20
0.0
 30
0.0
 70
     0
  0
VERTEX
  8
1_SERA-DSP
 10
3.651
 20
0.8281
 30
0.0
 40
0.008
 41
0.008
  0
VERTEX
  8
1_SERA-DSP
 10
3.6176
 20
0.8281
 30
0.0
 40
0.008
 41
0.008
  0
SEQEND
  8
1_SERA-DSP
  0
POLYLINE
  8
1_SERA-DSP
 66
     1
 10
0.0
 20
0.0
 30
0.0
 70
     0
  0
VERTEX
  8
1_SERA-DSP
 10
3.6176
 20
0.860800
 30
0.0
 40
0.008
 41
0.008
  0
VERTEX
  8
1_SERA-DSP
 10
3.6232
 20
0.8663
 30
0.0
 40
0.008
 41
0.008
  0
VERTEX
  8
1_SERA-DSP
 10
3.628800
 20
0.869100
 30
0.0
 40
0.008
 41
0.008
  0
VERTEX
  8
1_SERA-DSP
 10
3.6399
 20
0.869100
 30
0.0
 40
0.008
 41
0.008
  0
VERTEX
  8
1_SERA-DSP
 10
3.645400
 20
0.8663
 30
0.0
 40
0.008
 41
0.008
  0
VERTEX
  8
1_SERA-DSP
 10
3.651
 20
0.860800
 30
0.0
 40
0.008
 41
0.008
  0
VERTEX
  8
1_SERA-DSP
 10
3.651
 20
0.8552
 30
0.0
 40
0.008
 41
0.008
  0
VERTEX
  8
1_SERA-DSP
 10
3.645400
 20
0.849700
 30
0.0
 40
0.008
 41
0.008
  0
VERTEX
  8
1_SERA-DSP
 10
3.6399
 20
0.8469
 30
0.0
 40
0.008
 41
0.008
  0
VERTEX
  8
1_SERA-DSP
 10
3.628800
 20
0.8469
 30
0.0
 40
0.008
 41
0.008
  0
VERTEX
  8
1_SERA-DSP
 10
3.6232
 20
0.849700
 30
0.0
 40
0.008
 41
0.008
  0
VERTEX
  8
1_SERA-DSP
 10
3.6176
 20
0.8552
 30
0.0
 40
0.008
 41
0.008
  0
VERTEX
  8
1_SERA-DSP
 10
3.6176
 20
0.860800
 30
0.0
 40
0.008
 41
0.008
  0
SEQEND
  8
1_SERA-DSP
  0
POLYLINE
  8
1_SERA-DSP
 66
     1
 10
0.0
 20
0.0
 30
0.0
 70
     0
  0
VERTEX
  8
1_SERA-DSP
 10
3.6176
 20
0.887900
 30
0.0
 40
0.008
 41
0.008
  0
VERTEX
  8
1_SERA-DSP
 10
3.6176
 20
0.899
 30
0.0
 40
0.008
 41
0.008
  0
SEQEND
  8
1_SERA-DSP
  0
POLYLINE
  8
1_SERA-DSP
 66
     1
 10
0.0
 20
0.0
 30
0.0
 70
     0
  0
VERTEX
  8
1_SERA-DSP
 10
3.6176
 20
0.8934
 30
0.0
 40
0.008
 41
0.008
  0
VERTEX
  8
1_SERA-DSP
 10
3.651
 20
0.8934
 30
0.0
 40
0.008
 41
0.008
  0
VERTEX
  8
1_SERA-DSP
 10
3.645400
 20
0.899
 30
0.0
 40
0.008
 41
0.008
  0
SEQEND
  8
1_SERA-DSP
  0
POLYLINE
  8
1_SERA-DSP
 66
     1
 10
0.0
 20
0.0
 30
0.0
 70
     0
  0
VERTEX
  8
1_SERA-DSP
 10
2.2702
 20
0.8785
 30
0.0
 40
0.008
 41
0.008
  0
VERTEX
  8
1_SERA-DSP
 10
2.274600
 20
0.874100
 30
0.0
 40
0.008
 41
0.008
  0
VERTEX
  8
1_SERA-DSP
 10
2.2835
 20
0.874100
 30
0.0
 40
0.008
 41
0.008
  0
VERTEX
  8
1_SERA-DSP
 10
2.2879
 20
0.8785
 30
0.0
 40
0.008
 41
0.008
  0
VERTEX
  8
1_SERA-DSP
 10
2.2879
 20
0.883
 30
0.0
 40
0.008
 41
0.008
  0
VERTEX
  8
1_SERA-DSP
 10
2.279
 20
0.8919
 30
0.0
 40
0.008
 41
0.008
  0
VERTEX
  8
1_SERA-DSP
 10
2.2879
 20
0.900800
 30
0.0
 40
0.008
 41
0.008
  0
VERTEX
  8
1_SERA-DSP
 10
2.2702
 20
0.900800
 30
0.0
 40
0.008
 41
0.008
  0
SEQEND
  8
1_SERA-DSP
  0
POLYLINE
  8
1_SERA-DSP
 66
     1
 10
0.0
 20
0.0
 30
0.0
 70
     0
  0
VERTEX
  8
1_SERA-DSP
 10
2.2519
 20
0.900800
 30
0.0
 40
0.008
 41
0.008
  0
VERTEX
  8
1_SERA-DSP
 10
2.2519
 20
0.8785
 30
0.0
 40
0.008
 41
0.008
  0
VERTEX
  8
1_SERA-DSP
 10
2.249700
 20
0.874100
 30
0.0
 40
0.008
 41
0.008
  0
VERTEX
  8
1_SERA-DSP
 10
2.243
 20
0.8874
 30
0.0
 40
0.008
 41
0.008
  0
SEQEND
  8
1_SERA-DSP
  0
POLYLINE
  8
1_SERA-DSP
 66
     1
 10
0.0
 20
0.0
 30
0.0
 70
     0
  0
VERTEX
  8
1_SERA-DSP
 10
2.243
 20
0.8919
 30
0.0
 40
0.008
 41
0.008
  0
VERTEX
  8
1_SERA-DSP
 10
2.243
 20
0.8874
 30
0.0
 40
0.008
 41
0.008
  0
VERTEX
  8
1_SERA-DSP
 10
2.2364
 20
0.874100
 30
0.0
 40
0.008
 41
0.008
  0
VERTEX
  8
1_SERA-DSP
 10
2.2342
 20
0.8785
 30
0.0
 40
0.008
 41
0.008
  0
VERTEX
  8
1_SERA-DSP
 10
2.2342
 20
0.900800
 30
0.0
 40
0.008
 41
0.008
  0
SEQEND
  8
1_SERA-DSP
  0
POLYLINE
  8
1_SERA-DSP
 66
     1
 10
0.0
 20
0.0
 30
0.0
 70
     0
  0
VERTEX
  8
1_SERA-DSP
 10
2.215900
 20
0.8963
 30
0.0
 40
0.008
 41
0.008
  0
VERTEX
  8
1_SERA-DSP
 10
2.2137
 20
0.900800
 30
0.0
 40
0.008
 41
0.008
  0
VERTEX
  8
1_SERA-DSP
 10
2.2004
 20
0.900800
 30
0.0
 40
0.008
 41
0.008
  0
VERTEX
  8
1_SERA-DSP
 10
2.198200
 20
0.8963
 30
0.0
 40
0.008
 41
0.008
  0
VERTEX
  8
1_SERA-DSP
 10
2.198200
 20
0.8919
 30
0.0
 40
0.008
 41
0.008
  0
VERTEX
  8
1_SERA-DSP
 10
2.2004
 20
0.8874
 30
0.0
 40
0.008
 41
0.008
  0
VERTEX
  8
1_SERA-DSP
 10
2.2137
 20
0.8874
 30
0.0
 40
0.008
 41
0.008
  0
VERTEX
  8
1_SERA-DSP
 10
2.215900
 20
0.883
 30
0.0
 40
0.008
 41
0.008
  0
VERTEX
  8
1_SERA-DSP
 10
2.215900
 20
0.8785
 30
0.0
 40
0.008
 41
0.008
  0
VERTEX
  8
1_SERA-DSP
 10
2.2137
 20
0.874100
 30
0.0
 40
0.008
 41
0.008
  0
VERTEX
  8
1_SERA-DSP
 10
2.2004
 20
0.874100
 30
0.0
 40
0.008
 41
0.008
  0
VERTEX
  8
1_SERA-DSP
 10
2.198200
 20
0.8785
 30
0.0
 40
0.008
 41
0.008
  0
SEQEND
  8
1_SERA-DSP
  0
POLYLINE
  8
1_SERA-DSP
 66
     1
 10
0.0
 20
0.0
 30
0.0
 70
     0
  0
VERTEX
  8
1_SERA-DSP
 10
2.339500
 20
1.216
 30
0.0
 40
0.008
 41
0.008
  0
VERTEX
  8
1_SERA-DSP
 10
2.344
 20
1.2116
 30
0.0
 40
0.008
 41
0.008
  0
VERTEX
  8
1_SERA-DSP
 10
2.3529
 20
1.2116
 30
0.0
 40
0.008
 41
0.008
  0
VERTEX
  8
1_SERA-DSP
 10
2.357300
 20
1.216
 30
0.0
 40
0.008
 41
0.008
  0
VERTEX
  8
1_SERA-DSP
 10
2.357300
 20
1.2205
 30
0.0
 40
0.008
 41
0.008
  0
VERTEX
  8
1_SERA-DSP
 10
2.348400
 20
1.2294
 30
0.0
 40
0.008
 41
0.008
  0
VERTEX
  8
1_SERA-DSP
 10
2.357300
 20
1.238300
 30
0.0
 40
0.008
 41
0.008
  0
VERTEX
  8
1_SERA-DSP
 10
2.339500
 20
1.238300
 30
0.0
 40
0.008
 41
0.008
  0
SEQEND
  8
1_SERA-DSP
  0
POLYLINE
  8
1_SERA-DSP
 66
     1
 10
0.0
 20
0.0
 30
0.0
 70
     0
  0
VERTEX
  8
1_SERA-DSP
 10
2.321300
 20
1.2027
 30
0.0
 40
0.008
 41
0.008
  0
VERTEX
  8
1_SERA-DSP
 10
2.3035
 20
1.2027
 30
0.0
 40
0.008
 41
0.008
  0
SEQEND
  8
1_SERA-DSP
  0
POLYLINE
  8
1_SERA-DSP
 66
     1
 10
0.0
 20
0.0
 30
0.0
 70
     0
  0
VERTEX
  8
1_SERA-DSP
 10
2.276400
 20
1.2116
 30
0.0
 40
0.008
 41
0.008
  0
VERTEX
  8
1_SERA-DSP
 10
2.276400
 20
1.2249
 30
0.0
 40
0.008
 41
0.008
  0
SEQEND
  8
1_SERA-DSP
  0
POLYLINE
  8
1_SERA-DSP
 66
     1
 10
0.0
 20
0.0
 30
0.0
 70
     0
  0
VERTEX
  8
1_SERA-DSP
 10
2.2853
 20
1.238300
 30
0.0
 40
0.008
 41
0.008
  0
VERTEX
  8
1_SERA-DSP
 10
2.278700
 20
1.2249
 30
0.0
 40
0.008
 41
0.008
  0
VERTEX
  8
1_SERA-DSP
 10
2.274200
 20
1.2249
 30
0.0
 40
0.008
 41
0.008
  0
VERTEX
  8
1_SERA-DSP
 10
2.2675
 20
1.238300
 30
0.0
 40
0.008
 41
0.008
  0
SEQEND
  8
1_SERA-DSP
  0
POLYLINE
  8
1_SERA-DSP
 66
     1
 10
0.0
 20
0.0
 30
0.0
 70
     0
  0
VERTEX
  8
1_SERA-DSP
 10
2.244900
 20
1.2249
 30
0.0
 40
0.008
 41
0.008
  0
VERTEX
  8
1_SERA-DSP
 10
2.2315
 20
1.2249
 30
0.0
 40
0.008
 41
0.008
  0
SEQEND
  8
1_SERA-DSP
  0
POLYLINE
  8
1_SERA-DSP
 66
     1
 10
0.0
 20
0.0
 30
0.0
 70
     0
  0
VERTEX
  8
1_SERA-DSP
 10
2.2493
 20
1.2116
 30
0.0
 40
0.008
 41
0.008
  0
VERTEX
  8
1_SERA-DSP
 10
2.2315
 20
1.2116
 30
0.0
 40
0.008
 41
0.008
  0
VERTEX
  8
1_SERA-DSP
 10
2.2315
 20
1.238300
 30
0.0
 40
0.008
 41
0.008
  0
VERTEX
  8
1_SERA-DSP
 10
2.2493
 20
1.238300
 30
0.0
 40
0.008
 41
0.008
  0
SEQEND
  8
1_SERA-DSP
  0
POLYLINE
  8
1_SERA-DSP
 66
     1
 10
0.0
 20
0.0
 30
0.0
 70
     0
  0
VERTEX
  8
1_SERA-DSP
 10
2.2133
 20
1.2116
 30
0.0
 40
0.008
 41
0.008
  0
VERTEX
  8
1_SERA-DSP
 10
2.2
 20
1.2249
 30
0.0
 40
0.008
 41
0.008
  0
VERTEX
  8
1_SERA-DSP
 10
2.2133
 20
1.238300
 30
0.0
 40
0.008
 41
0.008
  0
SEQEND
  8
1_SERA-DSP
  0
POLYLINE
  8
1_SERA-DSP
 66
     1
 10
0.0
 20
0.0
 30
0.0
 70
     0
  0
VERTEX
  8
1_SERA-DSP
 10
2.1955
 20
1.238300
 30
0.0
 40
0.008
 41
0.008
  0
VERTEX
  8
1_SERA-DSP
 10
2.1955
 20
1.2116
 30
0.0
 40
0.008
 41
0.008
  0
SEQEND
  8
1_SERA-DSP
  0
POLYLINE
  8
1_SERA-DSP
 66
     1
 10
0.0
 20
0.0
 30
0.0
 70
     0
  0
VERTEX
  8
1_SERA-DSP
 10
3.1638
 20
0.829800
 30
0.0
 40
0.008
 41
0.008
  0
VERTEX
  8
1_SERA-DSP
 10
3.1583
 20
0.824200
 30
0.0
 40
0.008
 41
0.008
  0
VERTEX
  8
1_SERA-DSP
 10
3.1583
 20
0.8131
 30
0.0
 40
0.008
 41
0.008
  0
VERTEX
  8
1_SERA-DSP
 10
3.1638
 20
0.8075
 30
0.0
 40
0.008
 41
0.008
  0
VERTEX
  8
1_SERA-DSP
 10
3.169400
 20
0.8075
 30
0.0
 40
0.008
 41
0.008
  0
VERTEX
  8
1_SERA-DSP
 10
3.1805
 20
0.8187
 30
0.0
 40
0.008
 41
0.008
  0
VERTEX
  8
1_SERA-DSP
 10
3.191600
 20
0.8075
 30
0.0
 40
0.008
 41
0.008
  0
VERTEX
  8
1_SERA-DSP
 10
3.191600
 20
0.829800
 30
0.0
 40
0.008
 41
0.008
  0
SEQEND
  8
1_SERA-DSP
  0
POLYLINE
  8
1_SERA-DSP
 66
     1
 10
0.0
 20
0.0
 30
0.0
 70
     0
  0
VERTEX
  8
1_SERA-DSP
 10
3.1638
 20
0.8708
 30
0.0
 40
0.008
 41
0.008
  0
VERTEX
  8
1_SERA-DSP
 10
3.1583
 20
0.868
 30
0.0
 40
0.008
 41
0.008
  0
VERTEX
  8
1_SERA-DSP
 10
3.1583
 20
0.8513
 30
0.0
 40
0.008
 41
0.008
  0
VERTEX
  8
1_SERA-DSP
 10
3.1638
 20
0.8485
 30
0.0
 40
0.008
 41
0.008
  0
VERTEX
  8
1_SERA-DSP
 10
3.1749
 20
0.8485
 30
0.0
 40
0.008
 41
0.008
  0
VERTEX
  8
1_SERA-DSP
 10
3.1805
 20
0.8541
 30
0.0
 40
0.008
 41
0.008
  0
VERTEX
  8
1_SERA-DSP
 10
3.1805
 20
0.8708
 30
0.0
 40
0.008
 41
0.008
  0
VERTEX
  8
1_SERA-DSP
 10
3.191600
 20
0.8708
 30
0.0
 40
0.008
 41
0.008
  0
VERTEX
  8
1_SERA-DSP
 10
3.191600
 20
0.8485
 30
0.0
 40
0.008
 41
0.008
  0
SEQEND
  8
1_SERA-DSP
  0
POLYLINE
  8
1_SERA-DSP
 66
     1
 10
0.0
 20
0.0
 30
0.0
 70
     0
  0
VERTEX
  8
1_SERA-DSP
 10
3.1749
 20
0.8979
 30
0.0
 40
0.008
 41
0.008
  0
VERTEX
  8
1_SERA-DSP
 10
3.1583
 20
0.889500
 30
0.0
 40
0.008
 41
0.008
  0
SEQEND
  8
1_SERA-DSP
  0
POLYLINE
  8
1_SERA-DSP
 66
     1
 10
0.0
 20
0.0
 30
0.0
 70
     0
  0
VERTEX
  8
1_SERA-DSP
 10
3.1749
 20
0.9118
 30
0.0
 40
0.008
 41
0.008
  0
VERTEX
  8
1_SERA-DSP
 10
3.1749
 20
0.8951
 30
0.0
 40
0.008
 41
0.008
  0
VERTEX
  8
1_SERA-DSP
 10
3.1805
 20
0.889500
 30
0.0
 40
0.008
 41
0.008
  0
VERTEX
  8
1_SERA-DSP
 10
3.186
 20
0.889500
 30
0.0
 40
0.008
 41
0.008
  0
VERTEX
  8
1_SERA-DSP
 10
3.191600
 20
0.8951
 30
0.0
 40
0.008
 41
0.008
  0
VERTEX
  8
1_SERA-DSP
 10
3.191600
 20
0.9118
 30
0.0
 40
0.008
 41
0.008
  0
VERTEX
  8
1_SERA-DSP
 10
3.1583
 20
0.9118
 30
0.0
 40
0.008
 41
0.008
  0
SEQEND
  8
1_SERA-DSP
  0
POLYLINE
  8
1_SERA-DSP
 66
     1
 10
0.0
 20
0.0
 30
0.0
 70
     0
  0
VERTEX
  8
1_SERA-DSP
 10
3.0476
 20
0.8309
 30
0.0
 40
0.008
 41
0.008
  0
VERTEX
  8
1_SERA-DSP
 10
3.0643
 20
0.8476
 30
0.0
 40
0.008
 41
0.008
  0
VERTEX
  8
1_SERA-DSP
 10
3.081
 20
0.8309
 30
0.0
 40
0.008
 41
0.008
  0
SEQEND
  8
1_SERA-DSP
  0
POLYLINE
  8
1_SERA-DSP
 66
     1
 10
0.0
 20
0.0
 30
0.0
 70
     0
  0
VERTEX
  8
1_SERA-DSP
 10
3.081
 20
0.8531
 30
0.0
 40
0.008
 41
0.008
  0
VERTEX
  8
1_SERA-DSP
 10
3.0476
 20
0.8531
 30
0.0
 40
0.008
 41
0.008
  0
SEQEND
  8
1_SERA-DSP
  0
POLYLINE
  8
1_SERA-DSP
 66
     1
 10
0.0
 20
0.0
 30
0.0
 70
     0
  0
VERTEX
  8
1_SERA-DSP
 10
3.0476
 20
0.885800
 30
0.0
 40
0.008
 41
0.008
  0
VERTEX
  8
1_SERA-DSP
 10
3.053200
 20
0.8913
 30
0.0
 40
0.008
 41
0.008
  0
VERTEX
  8
1_SERA-DSP
 10
3.0588
 20
0.894100
 30
0.0
 40
0.008
 41
0.008
  0
VERTEX
  8
1_SERA-DSP
 10
3.0699
 20
0.894100
 30
0.0
 40
0.008
 41
0.008
  0
VERTEX
  8
1_SERA-DSP
 10
3.0754
 20
0.8913
 30
0.0
 40
0.008
 41
0.008
  0
VERTEX
  8
1_SERA-DSP
 10
3.081
 20
0.885800
 30
0.0
 40
0.008
 41
0.008
  0
VERTEX
  8
1_SERA-DSP
 10
3.081
 20
0.8802
 30
0.0
 40
0.008
 41
0.008
  0
VERTEX
  8
1_SERA-DSP
 10
3.0754
 20
0.8747
 30
0.0
 40
0.008
 41
0.008
  0
VERTEX
  8
1_SERA-DSP
 10
3.0699
 20
0.8719
 30
0.0
 40
0.008
 41
0.008
  0
VERTEX
  8
1_SERA-DSP
 10
3.0588
 20
0.8719
 30
0.0
 40
0.008
 41
0.008
  0
VERTEX
  8
1_SERA-DSP
 10
3.053200
 20
0.8747
 30
0.0
 40
0.008
 41
0.008
  0
VERTEX
  8
1_SERA-DSP
 10
3.0476
 20
0.8802
 30
0.0
 40
0.008
 41
0.008
  0
VERTEX
  8
1_SERA-DSP
 10
3.0476
 20
0.885800
 30
0.0
 40
0.008
 41
0.008
  0
SEQEND
  8
1_SERA-DSP
  0
POLYLINE
  8
1_SERA-DSP
 66
     1
 10
0.0
 20
0.0
 30
0.0
 70
     0
  0
VERTEX
  8
1_SERA-DSP
 10
3.0476
 20
0.912900
 30
0.0
 40
0.008
 41
0.008
  0
VERTEX
  8
1_SERA-DSP
 10
3.0476
 20
0.924
 30
0.0
 40
0.008
 41
0.008
  0
SEQEND
  8
1_SERA-DSP
  0
POLYLINE
  8
1_SERA-DSP
 66
     1
 10
0.0
 20
0.0
 30
0.0
 70
     0
  0
VERTEX
  8
1_SERA-DSP
 10
3.0476
 20
0.9184
 30
0.0
 40
0.008
 41
0.008
  0
VERTEX
  8
1_SERA-DSP
 10
3.081
 20
0.9184
 30
0.0
 40
0.008
 41
0.008
  0
VERTEX
  8
1_SERA-DSP
 10
3.0754
 20
0.924
 30
0.0
 40
0.008
 41
0.008
  0
SEQEND
  8
1_SERA-DSP
  0
POLYLINE
  8
1_SERA-DSP
 66
     1
 10
0.0
 20
0.0
 30
0.0
 70
     0
  0
VERTEX
  8
1_SERA-DSP
 10
4.5962
 20
1.4199
 30
0.0
 40
0.008
 41
0.008
  0
VERTEX
  8
1_SERA-DSP
 10
4.599
 20
1.414400
 30
0.0
 40
0.008
 41
0.008
  0
VERTEX
  8
1_SERA-DSP
 10
4.615700
 20
1.414400
 30
0.0
 40
0.008
 41
0.008
  0
VERTEX
  8
1_SERA-DSP
 10
4.618400
 20
1.4199
 30
0.0
 40
0.008
 41
0.008
  0
VERTEX
  8
1_SERA-DSP
 10
4.618400
 20
1.431
 30
0.0
 40
0.008
 41
0.008
  0
VERTEX
  8
1_SERA-DSP
 10
4.612900
 20
1.436600
 30
0.0
 40
0.008
 41
0.008
  0
VERTEX
  8
1_SERA-DSP
 10
4.5962
 20
1.436600
 30
0.0
 40
0.008
 41
0.008
  0
VERTEX
  8
1_SERA-DSP
 10
4.5962
 20
1.4477
 30
0.0
 40
0.008
 41
0.008
  0
VERTEX
  8
1_SERA-DSP
 10
4.618400
 20
1.4477
 30
0.0
 40
0.008
 41
0.008
  0
SEQEND
  8
1_SERA-DSP
  0
POLYLINE
  8
1_SERA-DSP
 66
     1
 10
0.0
 20
0.0
 30
0.0
 70
     0
  0
VERTEX
  8
1_SERA-DSP
 10
4.558
 20
1.414400
 30
0.0
 40
0.008
 41
0.008
  0
VERTEX
  8
1_SERA-DSP
 10
4.558
 20
1.4477
 30
0.0
 40
0.008
 41
0.008
  0
SEQEND
  8
1_SERA-DSP
  0
POLYLINE
  8
1_SERA-DSP
 66
     1
 10
0.0
 20
0.0
 30
0.0
 70
     0
  0
VERTEX
  8
1_SERA-DSP
 10
4.5552
 20
1.414400
 30
0.0
 40
0.008
 41
0.008
  0
VERTEX
  8
1_SERA-DSP
 10
4.5719
 20
1.414400
 30
0.0
 40
0.008
 41
0.008
  0
VERTEX
  8
1_SERA-DSP
 10
4.577400
 20
1.4255
 30
0.0
 40
0.008
 41
0.008
  0
VERTEX
  8
1_SERA-DSP
 10
4.577400
 20
1.436600
 30
0.0
 40
0.008
 41
0.008
  0
VERTEX
  8
1_SERA-DSP
 10
4.5719
 20
1.4477
 30
0.0
 40
0.008
 41
0.008
  0
VERTEX
  8
1_SERA-DSP
 10
4.5552
 20
1.4477
 30
0.0
 40
0.008
 41
0.008
  0
SEQEND
  8
1_SERA-DSP
  0
POLYLINE
  8
1_SERA-DSP
 66
     1
 10
0.0
 20
0.0
 30
0.0
 70
     0
  0
VERTEX
  8
1_SERA-DSP
 10
1.7179
 20
0.874100
 30
0.0
 40
0.008
 41
0.008
  0
VERTEX
  8
1_SERA-DSP
 10
1.700200
 20
0.874100
 30
0.0
 40
0.008
 41
0.008
  0
VERTEX
  8
1_SERA-DSP
 10
1.7179
 20
0.8919
 30
0.0
 40
0.008
 41
0.008
  0
VERTEX
  8
1_SERA-DSP
 10
1.7179
 20
0.8963
 30
0.0
 40
0.008
 41
0.008
  0
VERTEX
  8
1_SERA-DSP
 10
1.715700
 20
0.900800
 30
0.0
 40
0.008
 41
0.008
  0
VERTEX
  8
1_SERA-DSP
 10
1.7024
 20
0.900800
 30
0.0
 40
0.008
 41
0.008
  0
VERTEX
  8
1_SERA-DSP
 10
1.700200
 20
0.8963
 30
0.0
 40
0.008
 41
0.008
  0
SEQEND
  8
1_SERA-DSP
  0
POLYLINE
  8
1_SERA-DSP
 66
     1
 10
0.0
 20
0.0
 30
0.0
 70
     0
  0
VERTEX
  8
1_SERA-DSP
 10
1.681900
 20
0.900800
 30
0.0
 40
0.008
 41
0.008
  0
VERTEX
  8
1_SERA-DSP
 10
1.681900
 20
0.8785
 30
0.0
 40
0.008
 41
0.008
  0
VERTEX
  8
1_SERA-DSP
 10
1.6797
 20
0.874100
 30
0.0
 40
0.008
 41
0.008
  0
VERTEX
  8
1_SERA-DSP
 10
1.673
 20
0.8874
 30
0.0
 40
0.008
 41
0.008
  0
SEQEND
  8
1_SERA-DSP
  0
POLYLINE
  8
1_SERA-DSP
 66
     1
 10
0.0
 20
0.0
 30
0.0
 70
     0
  0
VERTEX
  8
1_SERA-DSP
 10
1.673
 20
0.8919
 30
0.0
 40
0.008
 41
0.008
  0
VERTEX
  8
1_SERA-DSP
 10
1.673
 20
0.8874
 30
0.0
 40
0.008
 41
0.008
  0
VERTEX
  8
1_SERA-DSP
 10
1.6664
 20
0.874100
 30
0.0
 40
0.008
 41
0.008
  0
VERTEX
  8
1_SERA-DSP
 10
1.664200
 20
0.8785
 30
0.0
 40
0.008
 41
0.008
  0
VERTEX
  8
1_SERA-DSP
 10
1.664200
 20
0.900800
 30
0.0
 40
0.008
 41
0.008
  0
SEQEND
  8
1_SERA-DSP
  0
POLYLINE
  8
1_SERA-DSP
 66
     1
 10
0.0
 20
0.0
 30
0.0
 70
     0
  0
VERTEX
  8
1_SERA-DSP
 10
1.645900
 20
0.8963
 30
0.0
 40
0.008
 41
0.008
  0
VERTEX
  8
1_SERA-DSP
 10
1.6437
 20
0.900800
 30
0.0
 40
0.008
 41
0.008
  0
VERTEX
  8
1_SERA-DSP
 10
1.6304
 20
0.900800
 30
0.0
 40
0.008
 41
0.008
  0
VERTEX
  8
1_SERA-DSP
 10
1.628200
 20
0.8963
 30
0.0
 40
0.008
 41
0.008
  0
VERTEX
  8
1_SERA-DSP
 10
1.628200
 20
0.8919
 30
0.0
 40
0.008
 41
0.008
  0
VERTEX
  8
1_SERA-DSP
 10
1.6304
 20
0.8874
 30
0.0
 40
0.008
 41
0.008
  0
VERTEX
  8
1_SERA-DSP
 10
1.6437
 20
0.8874
 30
0.0
 40
0.008
 41
0.008
  0
VERTEX
  8
1_SERA-DSP
 10
1.645900
 20
0.883
 30
0.0
 40
0.008
 41
0.008
  0
VERTEX
  8
1_SERA-DSP
 10
1.645900
 20
0.8785
 30
0.0
 40
0.008
 41
0.008
  0
VERTEX
  8
1_SERA-DSP
 10
1.6437
 20
0.874100
 30
0.0
 40
0.008
 41
0.008
  0
VERTEX
  8
1_SERA-DSP
 10
1.6304
 20
0.874100
 30
0.0
 40
0.008
 41
0.008
  0
VERTEX
  8
1_SERA-DSP
 10
1.628200
 20
0.8785
 30
0.0
 40
0.008
 41
0.008
  0
SEQEND
  8
1_SERA-DSP
  0
POLYLINE
  8
1_SERA-DSP
 66
     1
 10
0.0
 20
0.0
 30
0.0
 70
     0
  0
VERTEX
  8
1_SERA-DSP
 10
1.7873
 20
1.2116
 30
0.0
 40
0.008
 41
0.008
  0
VERTEX
  8
1_SERA-DSP
 10
1.7695
 20
1.2116
 30
0.0
 40
0.008
 41
0.008
  0
VERTEX
  8
1_SERA-DSP
 10
1.7873
 20
1.2294
 30
0.0
 40
0.008
 41
0.008
  0
VERTEX
  8
1_SERA-DSP
 10
1.7873
 20
1.233800
 30
0.0
 40
0.008
 41
0.008
  0
VERTEX
  8
1_SERA-DSP
 10
1.7851
 20
1.238300
 30
0.0
 40
0.008
 41
0.008
  0
VERTEX
  8
1_SERA-DSP
 10
1.7718
 20
1.238300
 30
0.0
 40
0.008
 41
0.008
  0
VERTEX
  8
1_SERA-DSP
 10
1.7695
 20
1.233800
 30
0.0
 40
0.008
 41
0.008
  0
SEQEND
  8
1_SERA-DSP
  0
POLYLINE
  8
1_SERA-DSP
 66
     1
 10
0.0
 20
0.0
 30
0.0
 70
     0
  0
VERTEX
  8
1_SERA-DSP
 10
1.7513
 20
1.2027
 30
0.0
 40
0.008
 41
0.008
  0
VERTEX
  8
1_SERA-DSP
 10
1.733500
 20
1.2027
 30
0.0
 40
0.008
 41
0.008
  0
SEQEND
  8
1_SERA-DSP
  0
POLYLINE
  8
1_SERA-DSP
 66
     1
 10
0.0
 20
0.0
 30
0.0
 70
     0
  0
VERTEX
  8
1_SERA-DSP
 10
1.7064
 20
1.2116
 30
0.0
 40
0.008
 41
0.008
  0
VERTEX
  8
1_SERA-DSP
 10
1.7064
 20
1.2249
 30
0.0
 40
0.008
 41
0.008
  0
SEQEND
  8
1_SERA-DSP
  0
POLYLINE
  8
1_SERA-DSP
 66
     1
 10
0.0
 20
0.0
 30
0.0
 70
     0
  0
VERTEX
  8
1_SERA-DSP
 10
1.715300
 20
1.238300
 30
0.0
 40
0.008
 41
0.008
  0
VERTEX
  8
1_SERA-DSP
 10
1.7087
 20
1.2249
 30
0.0
 40
0.008
 41
0.008
  0
VERTEX
  8
1_SERA-DSP
 10
1.704200
 20
1.2249
 30
0.0
 40
0.008
 41
0.008
  0
VERTEX
  8
1_SERA-DSP
 10
1.6975
 20
1.238300
 30
0.0
 40
0.008
 41
0.008
  0
SEQEND
  8
1_SERA-DSP
  0
POLYLINE
  8
1_SERA-DSP
 66
     1
 10
0.0
 20
0.0
 30
0.0
 70
     0
  0
VERTEX
  8
1_SERA-DSP
 10
1.6749
 20
1.2249
 30
0.0
 40
0.008
 41
0.008
  0
VERTEX
  8
1_SERA-DSP
 10
1.661500
 20
1.2249
 30
0.0
 40
0.008
 41
0.008
  0
SEQEND
  8
1_SERA-DSP
  0
POLYLINE
  8
1_SERA-DSP
 66
     1
 10
0.0
 20
0.0
 30
0.0
 70
     0
  0
VERTEX
  8
1_SERA-DSP
 10
1.679300
 20
1.2116
 30
0.0
 40
0.008
 41
0.008
  0
VERTEX
  8
1_SERA-DSP
 10
1.661500
 20
1.2116
 30
0.0
 40
0.008
 41
0.008
  0
VERTEX
  8
1_SERA-DSP
 10
1.661500
 20
1.238300
 30
0.0
 40
0.008
 41
0.008
  0
VERTEX
  8
1_SERA-DSP
 10
1.679300
 20
1.238300
 30
0.0
 40
0.008
 41
0.008
  0
SEQEND
  8
1_SERA-DSP
  0
POLYLINE
  8
1_SERA-DSP
 66
     1
 10
0.0
 20
0.0
 30
0.0
 70
     0
  0
VERTEX
  8
1_SERA-DSP
 10
1.643300
 20
1.2116
 30
0.0
 40
0.008
 41
0.008
  0
VERTEX
  8
1_SERA-DSP
 10
1.63
 20
1.2249
 30
0.0
 40
0.008
 41
0.008
  0
VERTEX
  8
1_SERA-DSP
 10
1.643300
 20
1.238300
 30
0.0
 40
0.008
 41
0.008
  0
SEQEND
  8
1_SERA-DSP
  0
POLYLINE
  8
1_SERA-DSP
 66
     1
 10
0.0
 20
0.0
 30
0.0
 70
     0
  0
VERTEX
  8
1_SERA-DSP
 10
1.6255
 20
1.238300
 30
0.0
 40
0.008
 41
0.008
  0
VERTEX
  8
1_SERA-DSP
 10
1.6255
 20
1.2116
 30
0.0
 40
0.008
 41
0.008
  0
SEQEND
  8
1_SERA-DSP
  0
POLYLINE
  8
1_SERA-DSP
 66
     1
 10
0.0
 20
0.0
 30
0.0
 70
     0
  0
VERTEX
  8
1_SERA-DSP
 10
1.286
 20
2.1844
 30
0.0
 40
0.008
 41
0.008
  0
VERTEX
  8
1_SERA-DSP
 10
1.288800
 20
2.1789
 30
0.0
 40
0.008
 41
0.008
  0
VERTEX
  8
1_SERA-DSP
 10
1.3054
 20
2.1789
 30
0.0
 40
0.008
 41
0.008
  0
VERTEX
  8
1_SERA-DSP
 10
1.308200
 20
2.1844
 30
0.0
 40
0.008
 41
0.008
  0
VERTEX
  8
1_SERA-DSP
 10
1.308200
 20
2.1955
 30
0.0
 40
0.008
 41
0.008
  0
VERTEX
  8
1_SERA-DSP
 10
1.302600
 20
2.201100
 30
0.0
 40
0.008
 41
0.008
  0
VERTEX
  8
1_SERA-DSP
 10
1.286
 20
2.201100
 30
0.0
 40
0.008
 41
0.008
  0
VERTEX
  8
1_SERA-DSP
 10
1.286
 20
2.2122
 30
0.0
 40
0.008
 41
0.008
  0
VERTEX
  8
1_SERA-DSP
 10
1.308200
 20
2.2122
 30
0.0
 40
0.008
 41
0.008
  0
SEQEND
  8
1_SERA-DSP
  0
POLYLINE
  8
1_SERA-DSP
 66
     1
 10
0.0
 20
0.0
 30
0.0
 70
     0
  0
VERTEX
  8
1_SERA-DSP
 10
1.2478
 20
2.19
 30
0.0
 40
0.008
 41
0.008
  0
VERTEX
  8
1_SERA-DSP
 10
1.2478
 20
2.1844
 30
0.0
 40
0.008
 41
0.008
  0
VERTEX
  8
1_SERA-DSP
 10
1.250500
 20
2.1789
 30
0.0
 40
0.008
 41
0.008
  0
VERTEX
  8
1_SERA-DSP
 10
1.261700
 20
2.1789
 30
0.0
 40
0.008
 41
0.008
  0
VERTEX
  8
1_SERA-DSP
 10
1.264400
 20
2.1844
 30
0.0
 40
0.008
 41
0.008
  0
VERTEX
  8
1_SERA-DSP
 10
1.264400
 20
2.2122
 30
0.0
 40
0.008
 41
0.008
  0
SEQEND
  8
1_SERA-DSP
  0
POLYLINE
  8
1_SERA-DSP
 66
     1
 10
0.0
 20
0.0
 30
0.0
 70
     0
  0
VERTEX
  8
1_SERA-DSP
 10
1.2672
 20
2.2122
 30
0.0
 40
0.008
 41
0.008
  0
VERTEX
  8
1_SERA-DSP
 10
1.2561
 20
2.2122
 30
0.0
 40
0.008
 41
0.008
  0
SEQEND
  8
1_SERA-DSP
  0
POLYLINE
  8
1_SERA-DSP
 66
     1
 10
0.0
 20
0.0
 30
0.0
 70
     0
  0
VERTEX
  8
1_SERA-DSP
 10
4.5962
 20
1.8199
 30
0.0
 40
0.008
 41
0.008
  0
VERTEX
  8
1_SERA-DSP
 10
4.601800
 20
1.814400
 30
0.0
 40
0.008
 41
0.008
  0
VERTEX
  8
1_SERA-DSP
 10
4.612900
 20
1.814400
 30
0.0
 40
0.008
 41
0.008
  0
VERTEX
  8
1_SERA-DSP
 10
4.618400
 20
1.8199
 30
0.0
 40
0.008
 41
0.008
  0
VERTEX
  8
1_SERA-DSP
 10
4.618400
 20
1.8255
 30
0.0
 40
0.008
 41
0.008
  0
VERTEX
  8
1_SERA-DSP
 10
4.607300
 20
1.836600
 30
0.0
 40
0.008
 41
0.008
  0
VERTEX
  8
1_SERA-DSP
 10
4.618400
 20
1.8477
 30
0.0
 40
0.008
 41
0.008
  0
VERTEX
  8
1_SERA-DSP
 10
4.5962
 20
1.8477
 30
0.0
 40
0.008
 41
0.008
  0
SEQEND
  8
1_SERA-DSP
  0
POLYLINE
  8
1_SERA-DSP
 66
     1
 10
0.0
 20
0.0
 30
0.0
 70
     0
  0
VERTEX
  8
1_SERA-DSP
 10
4.558
 20
1.814400
 30
0.0
 40
0.008
 41
0.008
  0
VERTEX
  8
1_SERA-DSP
 10
4.558
 20
1.8477
 30
0.0
 40
0.008
 41
0.008
  0
SEQEND
  8
1_SERA-DSP
  0
POLYLINE
  8
1_SERA-DSP
 66
     1
 10
0.0
 20
0.0
 30
0.0
 70
     0
  0
VERTEX
  8
1_SERA-DSP
 10
4.5552
 20
1.814400
 30
0.0
 40
0.008
 41
0.008
  0
VERTEX
  8
1_SERA-DSP
 10
4.5719
 20
1.814400
 30
0.0
 40
0.008
 41
0.008
  0
VERTEX
  8
1_SERA-DSP
 10
4.577400
 20
1.8255
 30
0.0
 40
0.008
 41
0.008
  0
VERTEX
  8
1_SERA-DSP
 10
4.577400
 20
1.836600
 30
0.0
 40
0.008
 41
0.008
  0
VERTEX
  8
1_SERA-DSP
 10
4.5719
 20
1.8477
 30
0.0
 40
0.008
 41
0.008
  0
VERTEX
  8
1_SERA-DSP
 10
4.5552
 20
1.8477
 30
0.0
 40
0.008
 41
0.008
  0
SEQEND
  8
1_SERA-DSP
  0
POLYLINE
  8
1_SERA-DSP
 66
     1
 10
0.0
 20
0.0
 30
0.0
 70
     0
  0
VERTEX
  8
1_SERA-DSP
 10
1.143500
 20
0.874100
 30
0.0
 40
0.008
 41
0.008
  0
VERTEX
  8
1_SERA-DSP
 10
1.134600
 20
0.874100
 30
0.0
 40
0.008
 41
0.008
  0
SEQEND
  8
1_SERA-DSP
  0
POLYLINE
  8
1_SERA-DSP
 66
     1
 10
0.0
 20
0.0
 30
0.0
 70
     0
  0
VERTEX
  8
1_SERA-DSP
 10
1.139
 20
0.874100
 30
0.0
 40
0.008
 41
0.008
  0
VERTEX
  8
1_SERA-DSP
 10
1.139
 20
0.900800
 30
0.0
 40
0.008
 41
0.008
  0
VERTEX
  8
1_SERA-DSP
 10
1.134600
 20
0.8963
 30
0.0
 40
0.008
 41
0.008
  0
SEQEND
  8
1_SERA-DSP
  0
POLYLINE
  8
1_SERA-DSP
 66
     1
 10
0.0
 20
0.0
 30
0.0
 70
     0
  0
VERTEX
  8
1_SERA-DSP
 10
1.1119
 20
0.900800
 30
0.0
 40
0.008
 41
0.008
  0
VERTEX
  8
1_SERA-DSP
 10
1.1119
 20
0.8785
 30
0.0
 40
0.008
 41
0.008
  0
VERTEX
  8
1_SERA-DSP
 10
1.1097
 20
0.874100
 30
0.0
 40
0.008
 41
0.008
  0
VERTEX
  8
1_SERA-DSP
 10
1.103
 20
0.8874
 30
0.0
 40
0.008
 41
0.008
  0
SEQEND
  8
1_SERA-DSP
  0
POLYLINE
  8
1_SERA-DSP
 66
     1
 10
0.0
 20
0.0
 30
0.0
 70
     0
  0
VERTEX
  8
1_SERA-DSP
 10
1.103
 20
0.8919
 30
0.0
 40
0.008
 41
0.008
  0
VERTEX
  8
1_SERA-DSP
 10
1.103
 20
0.8874
 30
0.0
 40
0.008
 41
0.008
  0
VERTEX
  8
1_SERA-DSP
 10
1.0964
 20
0.874100
 30
0.0
 40
0.008
 41
0.008
  0
VERTEX
  8
1_SERA-DSP
 10
1.0942
 20
0.8785
 30
0.0
 40
0.008
 41
0.008
  0
VERTEX
  8
1_SERA-DSP
 10
1.0942
 20
0.900800
 30
0.0
 40
0.008
 41
0.008
  0
SEQEND
  8
1_SERA-DSP
  0
POLYLINE
  8
1_SERA-DSP
 66
     1
 10
0.0
 20
0.0
 30
0.0
 70
     0
  0
VERTEX
  8
1_SERA-DSP
 10
1.0759
 20
0.8963
 30
0.0
 40
0.008
 41
0.008
  0
VERTEX
  8
1_SERA-DSP
 10
1.073700
 20
0.900800
 30
0.0
 40
0.008
 41
0.008
  0
VERTEX
  8
1_SERA-DSP
 10
1.060400
 20
0.900800
 30
0.0
 40
0.008
 41
0.008
  0
VERTEX
  8
1_SERA-DSP
 10
1.0582
 20
0.8963
 30
0.0
 40
0.008
 41
0.008
  0
VERTEX
  8
1_SERA-DSP
 10
1.0582
 20
0.8919
 30
0.0
 40
0.008
 41
0.008
  0
VERTEX
  8
1_SERA-DSP
 10
1.060400
 20
0.8874
 30
0.0
 40
0.008
 41
0.008
  0
VERTEX
  8
1_SERA-DSP
 10
1.073700
 20
0.8874
 30
0.0
 40
0.008
 41
0.008
  0
VERTEX
  8
1_SERA-DSP
 10
1.0759
 20
0.883
 30
0.0
 40
0.008
 41
0.008
  0
VERTEX
  8
1_SERA-DSP
 10
1.0759
 20
0.8785
 30
0.0
 40
0.008
 41
0.008
  0
VERTEX
  8
1_SERA-DSP
 10
1.073700
 20
0.874100
 30
0.0
 40
0.008
 41
0.008
  0
VERTEX
  8
1_SERA-DSP
 10
1.060400
 20
0.874100
 30
0.0
 40
0.008
 41
0.008
  0
VERTEX
  8
1_SERA-DSP
 10
1.0582
 20
0.8785
 30
0.0
 40
0.008
 41
0.008
  0
SEQEND
  8
1_SERA-DSP
  0
POLYLINE
  8
1_SERA-DSP
 66
     1
 10
0.0
 20
0.0
 30
0.0
 70
     0
  0
VERTEX
  8
1_SERA-DSP
 10
1.2129
 20
1.2116
 30
0.0
 40
0.008
 41
0.008
  0
VERTEX
  8
1_SERA-DSP
 10
1.204
 20
1.2116
 30
0.0
 40
0.008
 41
0.008
  0
SEQEND
  8
1_SERA-DSP
  0
POLYLINE
  8
1_SERA-DSP
 66
     1
 10
0.0
 20
0.0
 30
0.0
 70
     0
  0
VERTEX
  8
1_SERA-DSP
 10
1.2084
 20
1.2116
 30
0.0
 40
0.008
 41
0.008
  0
VERTEX
  8
1_SERA-DSP
 10
1.2084
 20
1.238300
 30
0.0
 40
0.008
 41
0.008
  0
VERTEX
  8
1_SERA-DSP
 10
1.204
 20
1.233800
 30
0.0
 40
0.008
 41
0.008
  0
SEQEND
  8
1_SERA-DSP
  0
POLYLINE
  8
1_SERA-DSP
 66
     1
 10
0.0
 20
0.0
 30
0.0
 70
     0
  0
VERTEX
  8
1_SERA-DSP
 10
1.181300
 20
1.2027
 30
0.0
 40
0.008
 41
0.008
  0
VERTEX
  8
1_SERA-DSP
 10
1.163500
 20
1.2027
 30
0.0
 40
0.008
 41
0.008
  0
SEQEND
  8
1_SERA-DSP
  0
POLYLINE
  8
1_SERA-DSP
 66
     1
 10
0.0
 20
0.0
 30
0.0
 70
     0
  0
VERTEX
  8
1_SERA-DSP
 10
1.1364
 20
1.2116
 30
0.0
 40
0.008
 41
0.008
  0
VERTEX
  8
1_SERA-DSP
 10
1.1364
 20
1.2249
 30
0.0
 40
0.008
 41
0.008
  0
SEQEND
  8
1_SERA-DSP
  0
POLYLINE
  8
1_SERA-DSP
 66
     1
 10
0.0
 20
0.0
 30
0.0
 70
     0
  0
VERTEX
  8
1_SERA-DSP
 10
1.1453
 20
1.238300
 30
0.0
 40
0.008
 41
0.008
  0
VERTEX
  8
1_SERA-DSP
 10
1.1387
 20
1.2249
 30
0.0
 40
0.008
 41
0.008
  0
VERTEX
  8
1_SERA-DSP
 10
1.1342
 20
1.2249
 30
0.0
 40
0.008
 41
0.008
  0
VERTEX
  8
1_SERA-DSP
 10
1.127500
 20
1.238300
 30
0.0
 40
0.008
 41
0.008
  0
SEQEND
  8
1_SERA-DSP
  0
POLYLINE
  8
1_SERA-DSP
 66
     1
 10
0.0
 20
0.0
 30
0.0
 70
     0
  0
VERTEX
  8
1_SERA-DSP
 10
1.104900
 20
1.2249
 30
0.0
 40
0.008
 41
0.008
  0
VERTEX
  8
1_SERA-DSP
 10
1.0915
 20
1.2249
 30
0.0
 40
0.008
 41
0.008
  0
SEQEND
  8
1_SERA-DSP
  0
POLYLINE
  8
1_SERA-DSP
 66
     1
 10
0.0
 20
0.0
 30
0.0
 70
     0
  0
VERTEX
  8
1_SERA-DSP
 10
1.109300
 20
1.2116
 30
0.0
 40
0.008
 41
0.008
  0
VERTEX
  8
1_SERA-DSP
 10
1.0915
 20
1.2116
 30
0.0
 40
0.008
 41
0.008
  0
VERTEX
  8
1_SERA-DSP
 10
1.0915
 20
1.238300
 30
0.0
 40
0.008
 41
0.008
  0
VERTEX
  8
1_SERA-DSP
 10
1.109300
 20
1.238300
 30
0.0
 40
0.008
 41
0.008
  0
SEQEND
  8
1_SERA-DSP
  0
POLYLINE
  8
1_SERA-DSP
 66
     1
 10
0.0
 20
0.0
 30
0.0
 70
     0
  0
VERTEX
  8
1_SERA-DSP
 10
1.073300
 20
1.2116
 30
0.0
 40
0.008
 41
0.008
  0
VERTEX
  8
1_SERA-DSP
 10
1.06
 20
1.2249
 30
0.0
 40
0.008
 41
0.008
  0
VERTEX
  8
1_SERA-DSP
 10
1.073300
 20
1.238300
 30
0.0
 40
0.008
 41
0.008
  0
SEQEND
  8
1_SERA-DSP
  0
POLYLINE
  8
1_SERA-DSP
 66
     1
 10
0.0
 20
0.0
 30
0.0
 70
     0
  0
VERTEX
  8
1_SERA-DSP
 10
1.0555
 20
1.238300
 30
0.0
 40
0.008
 41
0.008
  0
VERTEX
  8
1_SERA-DSP
 10
1.0555
 20
1.2116
 30
0.0
 40
0.008
 41
0.008
  0
SEQEND
  8
1_SERA-DSP
  0
POLYLINE
  8
1_SERA-DSP
 66
     1
 10
0.0
 20
0.0
 30
0.0
 70
     0
  0
VERTEX
  8
1_SERA-DSP
 10
1.125
 20
1.903200
 30
0.0
 40
0.008
 41
0.008
  0
VERTEX
  8
1_SERA-DSP
 10
1.125
 20
1.881
 30
0.0
 40
0.008
 41
0.008
  0
VERTEX
  8
1_SERA-DSP
 10
1.1028
 20
1.8921
 30
0.0
 40
0.008
 41
0.008
  0
VERTEX
  8
1_SERA-DSP
 10
1.1028
 20
1.8976
 30
0.0
 40
0.008
 41
0.008
  0
VERTEX
  8
1_SERA-DSP
 10
1.136100
 20
1.8976
 30
0.0
 40
0.008
 41
0.008
  0
SEQEND
  8
1_SERA-DSP
  0
POLYLINE
  8
1_SERA-DSP
 66
     1
 10
0.0
 20
0.0
 30
0.0
 70
     0
  0
VERTEX
  8
1_SERA-DSP
 10
1.125
 20
1.8428
 30
0.0
 40
0.008
 41
0.008
  0
VERTEX
  8
1_SERA-DSP
 10
1.1306
 20
1.8428
 30
0.0
 40
0.008
 41
0.008
  0
VERTEX
  8
1_SERA-DSP
 10
1.136100
 20
1.8455
 30
0.0
 40
0.008
 41
0.008
  0
VERTEX
  8
1_SERA-DSP
 10
1.136100
 20
1.856700
 30
0.0
 40
0.008
 41
0.008
  0
VERTEX
  8
1_SERA-DSP
 10
1.1306
 20
1.8594
 30
0.0
 40
0.008
 41
0.008
  0
VERTEX
  8
1_SERA-DSP
 10
1.1028
 20
1.8594
 30
0.0
 40
0.008
 41
0.008
  0
SEQEND
  8
1_SERA-DSP
  0
POLYLINE
  8
1_SERA-DSP
 66
     1
 10
0.0
 20
0.0
 30
0.0
 70
     0
  0
VERTEX
  8
1_SERA-DSP
 10
1.1028
 20
1.8622
 30
0.0
 40
0.008
 41
0.008
  0
VERTEX
  8
1_SERA-DSP
 10
1.1028
 20
1.8511
 30
0.0
 40
0.008
 41
0.008
  0
SEQEND
  8
1_SERA-DSP
  0
POLYLINE
  8
1_SERA-DSP
 66
     1
 10
0.0
 20
0.0
 30
0.0
 70
     0
  0
VERTEX
  8
1_SERA-DSP
 10
2.5883
 20
0.8075
 30
0.0
 40
0.008
 41
0.008
  0
VERTEX
  8
1_SERA-DSP
 10
2.5883
 20
0.829800
 30
0.0
 40
0.008
 41
0.008
  0
VERTEX
  8
1_SERA-DSP
 10
2.6105
 20
0.8075
 30
0.0
 40
0.008
 41
0.008
  0
VERTEX
  8
1_SERA-DSP
 10
2.616
 20
0.8075
 30
0.0
 40
0.008
 41
0.008
  0
VERTEX
  8
1_SERA-DSP
 10
2.621600
 20
0.8103
 30
0.0
 40
0.008
 41
0.008
  0
VERTEX
  8
1_SERA-DSP
 10
2.621600
 20
0.827
 30
0.0
 40
0.008
 41
0.008
  0
VERTEX
  8
1_SERA-DSP
 10
2.616
 20
0.829800
 30
0.0
 40
0.008
 41
0.008
  0
SEQEND
  8
1_SERA-DSP
  0
POLYLINE
  8
1_SERA-DSP
 66
     1
 10
0.0
 20
0.0
 30
0.0
 70
     0
  0
VERTEX
  8
1_SERA-DSP
 10
2.5938
 20
0.8708
 30
0.0
 40
0.008
 41
0.008
  0
VERTEX
  8
1_SERA-DSP
 10
2.5883
 20
0.868
 30
0.0
 40
0.008
 41
0.008
  0
VERTEX
  8
1_SERA-DSP
 10
2.5883
 20
0.8513
 30
0.0
 40
0.008
 41
0.008
  0
VERTEX
  8
1_SERA-DSP
 10
2.5938
 20
0.8485
 30
0.0
 40
0.008
 41
0.008
  0
VERTEX
  8
1_SERA-DSP
 10
2.6049
 20
0.8485
 30
0.0
 40
0.008
 41
0.008
  0
VERTEX
  8
1_SERA-DSP
 10
2.6105
 20
0.8541
 30
0.0
 40
0.008
 41
0.008
  0
VERTEX
  8
1_SERA-DSP
 10
2.6105
 20
0.8708
 30
0.0
 40
0.008
 41
0.008
  0
VERTEX
  8
1_SERA-DSP
 10
2.621600
 20
0.8708
 30
0.0
 40
0.008
 41
0.008
  0
VERTEX
  8
1_SERA-DSP
 10
2.621600
 20
0.8485
 30
0.0
 40
0.008
 41
0.008
  0
SEQEND
  8
1_SERA-DSP
  0
POLYLINE
  8
1_SERA-DSP
 66
     1
 10
0.0
 20
0.0
 30
0.0
 70
     0
  0
VERTEX
  8
1_SERA-DSP
 10
2.6049
 20
0.8979
 30
0.0
 40
0.008
 41
0.008
  0
VERTEX
  8
1_SERA-DSP
 10
2.5883
 20
0.889500
 30
0.0
 40
0.008
 41
0.008
  0
SEQEND
  8
1_SERA-DSP
  0
POLYLINE
  8
1_SERA-DSP
 66
     1
 10
0.0
 20
0.0
 30
0.0
 70
     0
  0
VERTEX
  8
1_SERA-DSP
 10
2.6049
 20
0.9118
 30
0.0
 40
0.008
 41
0.008
  0
VERTEX
  8
1_SERA-DSP
 10
2.6049
 20
0.8951
 30
0.0
 40
0.008
 41
0.008
  0
VERTEX
  8
1_SERA-DSP
 10
2.6105
 20
0.889500
 30
0.0
 40
0.008
 41
0.008
  0
VERTEX
  8
1_SERA-DSP
 10
2.616
 20
0.889500
 30
0.0
 40
0.008
 41
0.008
  0
VERTEX
  8
1_SERA-DSP
 10
2.621600
 20
0.8951
 30
0.0
 40
0.008
 41
0.008
  0
VERTEX
  8
1_SERA-DSP
 10
2.621600
 20
0.9118
 30
0.0
 40
0.008
 41
0.008
  0
VERTEX
  8
1_SERA-DSP
 10
2.5883
 20
0.9118
 30
0.0
 40
0.008
 41
0.008
  0
SEQEND
  8
1_SERA-DSP
  0
POLYLINE
  8
1_SERA-DSP
 66
     1
 10
0.0
 20
0.0
 30
0.0
 70
     0
  0
VERTEX
  8
1_SERA-DSP
 10
2.477600
 20
0.8309
 30
0.0
 40
0.008
 41
0.008
  0
VERTEX
  8
1_SERA-DSP
 10
2.494300
 20
0.8476
 30
0.0
 40
0.008
 41
0.008
  0
VERTEX
  8
1_SERA-DSP
 10
2.511
 20
0.8309
 30
0.0
 40
0.008
 41
0.008
  0
SEQEND
  8
1_SERA-DSP
  0
POLYLINE
  8
1_SERA-DSP
 66
     1
 10
0.0
 20
0.0
 30
0.0
 70
     0
  0
VERTEX
  8
1_SERA-DSP
 10
2.511
 20
0.8531
 30
0.0
 40
0.008
 41
0.008
  0
VERTEX
  8
1_SERA-DSP
 10
2.477600
 20
0.8531
 30
0.0
 40
0.008
 41
0.008
  0
SEQEND
  8
1_SERA-DSP
  0
POLYLINE
  8
1_SERA-DSP
 66
     1
 10
0.0
 20
0.0
 30
0.0
 70
     0
  0
VERTEX
  8
1_SERA-DSP
 10
2.477600
 20
0.885800
 30
0.0
 40
0.008
 41
0.008
  0
VERTEX
  8
1_SERA-DSP
 10
2.4832
 20
0.8913
 30
0.0
 40
0.008
 41
0.008
  0
VERTEX
  8
1_SERA-DSP
 10
2.488800
 20
0.894100
 30
0.0
 40
0.008
 41
0.008
  0
VERTEX
  8
1_SERA-DSP
 10
2.4999
 20
0.894100
 30
0.0
 40
0.008
 41
0.008
  0
VERTEX
  8
1_SERA-DSP
 10
2.5054
 20
0.8913
 30
0.0
 40
0.008
 41
0.008
  0
VERTEX
  8
1_SERA-DSP
 10
2.511
 20
0.885800
 30
0.0
 40
0.008
 41
0.008
  0
VERTEX
  8
1_SERA-DSP
 10
2.511
 20
0.8802
 30
0.0
 40
0.008
 41
0.008
  0
VERTEX
  8
1_SERA-DSP
 10
2.5054
 20
0.8747
 30
0.0
 40
0.008
 41
0.008
  0
VERTEX
  8
1_SERA-DSP
 10
2.4999
 20
0.8719
 30
0.0
 40
0.008
 41
0.008
  0
VERTEX
  8
1_SERA-DSP
 10
2.488800
 20
0.8719
 30
0.0
 40
0.008
 41
0.008
  0
VERTEX
  8
1_SERA-DSP
 10
2.4832
 20
0.8747
 30
0.0
 40
0.008
 41
0.008
  0
VERTEX
  8
1_SERA-DSP
 10
2.477600
 20
0.8802
 30
0.0
 40
0.008
 41
0.008
  0
VERTEX
  8
1_SERA-DSP
 10
2.477600
 20
0.885800
 30
0.0
 40
0.008
 41
0.008
  0
SEQEND
  8
1_SERA-DSP
  0
POLYLINE
  8
1_SERA-DSP
 66
     1
 10
0.0
 20
0.0
 30
0.0
 70
     0
  0
VERTEX
  8
1_SERA-DSP
 10
2.477600
 20
0.912900
 30
0.0
 40
0.008
 41
0.008
  0
VERTEX
  8
1_SERA-DSP
 10
2.477600
 20
0.924
 30
0.0
 40
0.008
 41
0.008
  0
SEQEND
  8
1_SERA-DSP
  0
POLYLINE
  8
1_SERA-DSP
 66
     1
 10
0.0
 20
0.0
 30
0.0
 70
     0
  0
VERTEX
  8
1_SERA-DSP
 10
2.477600
 20
0.9184
 30
0.0
 40
0.008
 41
0.008
  0
VERTEX
  8
1_SERA-DSP
 10
2.511
 20
0.9184
 30
0.0
 40
0.008
 41
0.008
  0
VERTEX
  8
1_SERA-DSP
 10
2.5054
 20
0.924
 30
0.0
 40
0.008
 41
0.008
  0
SEQEND
  8
1_SERA-DSP
  0
POLYLINE
  8
1_SERA-DSP
 66
     1
 10
0.0
 20
0.0
 30
0.0
 70
     0
  0
VERTEX
  8
1_SERA-DSP
 10
1.448300
 20
0.8214
 30
0.0
 40
0.008
 41
0.008
  0
VERTEX
  8
1_SERA-DSP
 10
1.453800
 20
0.827
 30
0.0
 40
0.008
 41
0.008
  0
VERTEX
  8
1_SERA-DSP
 10
1.4594
 20
0.829800
 30
0.0
 40
0.008
 41
0.008
  0
VERTEX
  8
1_SERA-DSP
 10
1.4705
 20
0.829800
 30
0.0
 40
0.008
 41
0.008
  0
VERTEX
  8
1_SERA-DSP
 10
1.476
 20
0.827
 30
0.0
 40
0.008
 41
0.008
  0
VERTEX
  8
1_SERA-DSP
 10
1.4816
 20
0.8214
 30
0.0
 40
0.008
 41
0.008
  0
VERTEX
  8
1_SERA-DSP
 10
1.4816
 20
0.8159
 30
0.0
 40
0.008
 41
0.008
  0
VERTEX
  8
1_SERA-DSP
 10
1.476
 20
0.8103
 30
0.0
 40
0.008
 41
0.008
  0
VERTEX
  8
1_SERA-DSP
 10
1.4705
 20
0.8075
 30
0.0
 40
0.008
 41
0.008
  0
VERTEX
  8
1_SERA-DSP
 10
1.4594
 20
0.8075
 30
0.0
 40
0.008
 41
0.008
  0
VERTEX
  8
1_SERA-DSP
 10
1.453800
 20
0.8103
 30
0.0
 40
0.008
 41
0.008
  0
VERTEX
  8
1_SERA-DSP
 10
1.448300
 20
0.8159
 30
0.0
 40
0.008
 41
0.008
  0
VERTEX
  8
1_SERA-DSP
 10
1.448300
 20
0.8214
 30
0.0
 40
0.008
 41
0.008
  0
SEQEND
  8
1_SERA-DSP
  0
POLYLINE
  8
1_SERA-DSP
 66
     1
 10
0.0
 20
0.0
 30
0.0
 70
     0
  0
VERTEX
  8
1_SERA-DSP
 10
1.453800
 20
0.8708
 30
0.0
 40
0.008
 41
0.008
  0
VERTEX
  8
1_SERA-DSP
 10
1.448300
 20
0.868
 30
0.0
 40
0.008
 41
0.008
  0
VERTEX
  8
1_SERA-DSP
 10
1.448300
 20
0.8513
 30
0.0
 40
0.008
 41
0.008
  0
VERTEX
  8
1_SERA-DSP
 10
1.453800
 20
0.8485
 30
0.0
 40
0.008
 41
0.008
  0
VERTEX
  8
1_SERA-DSP
 10
1.4649
 20
0.8485
 30
0.0
 40
0.008
 41
0.008
  0
VERTEX
  8
1_SERA-DSP
 10
1.4705
 20
0.8541
 30
0.0
 40
0.008
 41
0.008
  0
VERTEX
  8
1_SERA-DSP
 10
1.4705
 20
0.8708
 30
0.0
 40
0.008
 41
0.008
  0
VERTEX
  8
1_SERA-DSP
 10
1.4816
 20
0.8708
 30
0.0
 40
0.008
 41
0.008
  0
VERTEX
  8
1_SERA-DSP
 10
1.4816
 20
0.8485
 30
0.0
 40
0.008
 41
0.008
  0
SEQEND
  8
1_SERA-DSP
  0
POLYLINE
  8
1_SERA-DSP
 66
     1
 10
0.0
 20
0.0
 30
0.0
 70
     0
  0
VERTEX
  8
1_SERA-DSP
 10
1.4649
 20
0.8979
 30
0.0
 40
0.008
 41
0.008
  0
VERTEX
  8
1_SERA-DSP
 10
1.448300
 20
0.889500
 30
0.0
 40
0.008
 41
0.008
  0
SEQEND
  8
1_SERA-DSP
  0
POLYLINE
  8
1_SERA-DSP
 66
     1
 10
0.0
 20
0.0
 30
0.0
 70
     0
  0
VERTEX
  8
1_SERA-DSP
 10
1.4649
 20
0.9118
 30
0.0
 40
0.008
 41
0.008
  0
VERTEX
  8
1_SERA-DSP
 10
1.4649
 20
0.8951
 30
0.0
 40
0.008
 41
0.008
  0
VERTEX
  8
1_SERA-DSP
 10
1.4705
 20
0.889500
 30
0.0
 40
0.008
 41
0.008
  0
VERTEX
  8
1_SERA-DSP
 10
1.476
 20
0.889500
 30
0.0
 40
0.008
 41
0.008
  0
VERTEX
  8
1_SERA-DSP
 10
1.4816
 20
0.8951
 30
0.0
 40
0.008
 41
0.008
  0
VERTEX
  8
1_SERA-DSP
 10
1.4816
 20
0.9118
 30
0.0
 40
0.008
 41
0.008
  0
VERTEX
  8
1_SERA-DSP
 10
1.448300
 20
0.9118
 30
0.0
 40
0.008
 41
0.008
  0
SEQEND
  8
1_SERA-DSP
  0
POLYLINE
  8
1_SERA-DSP
 66
     1
 10
0.0
 20
0.0
 30
0.0
 70
     0
  0
VERTEX
  8
1_SERA-DSP
 10
1.337600
 20
0.8309
 30
0.0
 40
0.008
 41
0.008
  0
VERTEX
  8
1_SERA-DSP
 10
1.354300
 20
0.8476
 30
0.0
 40
0.008
 41
0.008
  0
VERTEX
  8
1_SERA-DSP
 10
1.371
 20
0.8309
 30
0.0
 40
0.008
 41
0.008
  0
SEQEND
  8
1_SERA-DSP
  0
POLYLINE
  8
1_SERA-DSP
 66
     1
 10
0.0
 20
0.0
 30
0.0
 70
     0
  0
VERTEX
  8
1_SERA-DSP
 10
1.371
 20
0.8531
 30
0.0
 40
0.008
 41
0.008
  0
VERTEX
  8
1_SERA-DSP
 10
1.337600
 20
0.8531
 30
0.0
 40
0.008
 41
0.008
  0
SEQEND
  8
1_SERA-DSP
  0
POLYLINE
  8
1_SERA-DSP
 66
     1
 10
0.0
 20
0.0
 30
0.0
 70
     0
  0
VERTEX
  8
1_SERA-DSP
 10
1.337600
 20
0.885800
 30
0.0
 40
0.008
 41
0.008
  0
VERTEX
  8
1_SERA-DSP
 10
1.343200
 20
0.8913
 30
0.0
 40
0.008
 41
0.008
  0
VERTEX
  8
1_SERA-DSP
 10
1.348800
 20
0.894100
 30
0.0
 40
0.008
 41
0.008
  0
VERTEX
  8
1_SERA-DSP
 10
1.3599
 20
0.894100
 30
0.0
 40
0.008
 41
0.008
  0
VERTEX
  8
1_SERA-DSP
 10
1.3654
 20
0.8913
 30
0.0
 40
0.008
 41
0.008
  0
VERTEX
  8
1_SERA-DSP
 10
1.371
 20
0.885800
 30
0.0
 40
0.008
 41
0.008
  0
VERTEX
  8
1_SERA-DSP
 10
1.371
 20
0.8802
 30
0.0
 40
0.008
 41
0.008
  0
VERTEX
  8
1_SERA-DSP
 10
1.3654
 20
0.8747
 30
0.0
 40
0.008
 41
0.008
  0
VERTEX
  8
1_SERA-DSP
 10
1.3599
 20
0.8719
 30
0.0
 40
0.008
 41
0.008
  0
VERTEX
  8
1_SERA-DSP
 10
1.348800
 20
0.8719
 30
0.0
 40
0.008
 41
0.008
  0
VERTEX
  8
1_SERA-DSP
 10
1.343200
 20
0.8747
 30
0.0
 40
0.008
 41
0.008
  0
VERTEX
  8
1_SERA-DSP
 10
1.337600
 20
0.8802
 30
0.0
 40
0.008
 41
0.008
  0
VERTEX
  8
1_SERA-DSP
 10
1.337600
 20
0.885800
 30
0.0
 40
0.008
 41
0.008
  0
SEQEND
  8
1_SERA-DSP
  0
POLYLINE
  8
1_SERA-DSP
 66
     1
 10
0.0
 20
0.0
 30
0.0
 70
     0
  0
VERTEX
  8
1_SERA-DSP
 10
1.337600
 20
0.912900
 30
0.0
 40
0.008
 41
0.008
  0
VERTEX
  8
1_SERA-DSP
 10
1.337600
 20
0.924
 30
0.0
 40
0.008
 41
0.008
  0
SEQEND
  8
1_SERA-DSP
  0
POLYLINE
  8
1_SERA-DSP
 66
     1
 10
0.0
 20
0.0
 30
0.0
 70
     0
  0
VERTEX
  8
1_SERA-DSP
 10
1.337600
 20
0.9184
 30
0.0
 40
0.008
 41
0.008
  0
VERTEX
  8
1_SERA-DSP
 10
1.371
 20
0.9184
 30
0.0
 40
0.008
 41
0.008
  0
VERTEX
  8
1_SERA-DSP
 10
1.3654
 20
0.924
 30
0.0
 40
0.008
 41
0.008
  0
SEQEND
  8
1_SERA-DSP
  0
POLYLINE
  8
1_SERA-DSP
 66
     1
 10
0.0
 20
0.0
 30
0.0
 70
     0
  0
VERTEX
  8
1_SERA-DSP
 10
2.018300
 20
0.8131
 30
0.0
 40
0.008
 41
0.008
  0
VERTEX
  8
1_SERA-DSP
 10
2.018300
 20
0.824200
 30
0.0
 40
0.008
 41
0.008
  0
SEQEND
  8
1_SERA-DSP
  0
POLYLINE
  8
1_SERA-DSP
 66
     1
 10
0.0
 20
0.0
 30
0.0
 70
     0
  0
VERTEX
  8
1_SERA-DSP
 10
2.018300
 20
0.8187
 30
0.0
 40
0.008
 41
0.008
  0
VERTEX
  8
1_SERA-DSP
 10
2.051600
 20
0.8187
 30
0.0
 40
0.008
 41
0.008
  0
VERTEX
  8
1_SERA-DSP
 10
2.046
 20
0.824200
 30
0.0
 40
0.008
 41
0.008
  0
SEQEND
  8
1_SERA-DSP
  0
POLYLINE
  8
1_SERA-DSP
 66
     1
 10
0.0
 20
0.0
 30
0.0
 70
     0
  0
VERTEX
  8
1_SERA-DSP
 10
2.0238
 20
0.8708
 30
0.0
 40
0.008
 41
0.008
  0
VERTEX
  8
1_SERA-DSP
 10
2.018300
 20
0.868
 30
0.0
 40
0.008
 41
0.008
  0
VERTEX
  8
1_SERA-DSP
 10
2.018300
 20
0.8513
 30
0.0
 40
0.008
 41
0.008
  0
VERTEX
  8
1_SERA-DSP
 10
2.0238
 20
0.8485
 30
0.0
 40
0.008
 41
0.008
  0
VERTEX
  8
1_SERA-DSP
 10
2.034900
 20
0.8485
 30
0.0
 40
0.008
 41
0.008
  0
VERTEX
  8
1_SERA-DSP
 10
2.0405
 20
0.8541
 30
0.0
 40
0.008
 41
0.008
  0
VERTEX
  8
1_SERA-DSP
 10
2.0405
 20
0.8708
 30
0.0
 40
0.008
 41
0.008
  0
VERTEX
  8
1_SERA-DSP
 10
2.051600
 20
0.8708
 30
0.0
 40
0.008
 41
0.008
  0
VERTEX
  8
1_SERA-DSP
 10
2.051600
 20
0.8485
 30
0.0
 40
0.008
 41
0.008
  0
SEQEND
  8
1_SERA-DSP
  0
POLYLINE
  8
1_SERA-DSP
 66
     1
 10
0.0
 20
0.0
 30
0.0
 70
     0
  0
VERTEX
  8
1_SERA-DSP
 10
2.034900
 20
0.8979
 30
0.0
 40
0.008
 41
0.008
  0
VERTEX
  8
1_SERA-DSP
 10
2.018300
 20
0.889500
 30
0.0
 40
0.008
 41
0.008
  0
SEQEND
  8
1_SERA-DSP
  0
POLYLINE
  8
1_SERA-DSP
 66
     1
 10
0.0
 20
0.0
 30
0.0
 70
     0
  0
VERTEX
  8
1_SERA-DSP
 10
2.034900
 20
0.9118
 30
0.0
 40
0.008
 41
0.008
  0
VERTEX
  8
1_SERA-DSP
 10
2.034900
 20
0.8951
 30
0.0
 40
0.008
 41
0.008
  0
VERTEX
  8
1_SERA-DSP
 10
2.0405
 20
0.889500
 30
0.0
 40
0.008
 41
0.008
  0
VERTEX
  8
1_SERA-DSP
 10
2.046
 20
0.889500
 30
0.0
 40
0.008
 41
0.008
  0
VERTEX
  8
1_SERA-DSP
 10
2.051600
 20
0.8951
 30
0.0
 40
0.008
 41
0.008
  0
VERTEX
  8
1_SERA-DSP
 10
2.051600
 20
0.9118
 30
0.0
 40
0.008
 41
0.008
  0
VERTEX
  8
1_SERA-DSP
 10
2.018300
 20
0.9118
 30
0.0
 40
0.008
 41
0.008
  0
SEQEND
  8
1_SERA-DSP
  0
POLYLINE
  8
1_SERA-DSP
 66
     1
 10
0.0
 20
0.0
 30
0.0
 70
     0
  0
VERTEX
  8
1_SERA-DSP
 10
1.9076
 20
0.8309
 30
0.0
 40
0.008
 41
0.008
  0
VERTEX
  8
1_SERA-DSP
 10
1.9243
 20
0.8476
 30
0.0
 40
0.008
 41
0.008
  0
VERTEX
  8
1_SERA-DSP
 10
1.941
 20
0.8309
 30
0.0
 40
0.008
 41
0.008
  0
SEQEND
  8
1_SERA-DSP
  0
POLYLINE
  8
1_SERA-DSP
 66
     1
 10
0.0
 20
0.0
 30
0.0
 70
     0
  0
VERTEX
  8
1_SERA-DSP
 10
1.941
 20
0.8531
 30
0.0
 40
0.008
 41
0.008
  0
VERTEX
  8
1_SERA-DSP
 10
1.9076
 20
0.8531
 30
0.0
 40
0.008
 41
0.008
  0
SEQEND
  8
1_SERA-DSP
  0
POLYLINE
  8
1_SERA-DSP
 66
     1
 10
0.0
 20
0.0
 30
0.0
 70
     0
  0
VERTEX
  8
1_SERA-DSP
 10
1.9076
 20
0.885800
 30
0.0
 40
0.008
 41
0.008
  0
VERTEX
  8
1_SERA-DSP
 10
1.913200
 20
0.8913
 30
0.0
 40
0.008
 41
0.008
  0
VERTEX
  8
1_SERA-DSP
 10
1.9188
 20
0.894100
 30
0.0
 40
0.008
 41
0.008
  0
VERTEX
  8
1_SERA-DSP
 10
1.929900
 20
0.894100
 30
0.0
 40
0.008
 41
0.008
  0
VERTEX
  8
1_SERA-DSP
 10
1.9354
 20
0.8913
 30
0.0
 40
0.008
 41
0.008
  0
VERTEX
  8
1_SERA-DSP
 10
1.941
 20
0.885800
 30
0.0
 40
0.008
 41
0.008
  0
VERTEX
  8
1_SERA-DSP
 10
1.941
 20
0.8802
 30
0.0
 40
0.008
 41
0.008
  0
VERTEX
  8
1_SERA-DSP
 10
1.9354
 20
0.8747
 30
0.0
 40
0.008
 41
0.008
  0
VERTEX
  8
1_SERA-DSP
 10
1.929900
 20
0.8719
 30
0.0
 40
0.008
 41
0.008
  0
VERTEX
  8
1_SERA-DSP
 10
1.9188
 20
0.8719
 30
0.0
 40
0.008
 41
0.008
  0
VERTEX
  8
1_SERA-DSP
 10
1.913200
 20
0.8747
 30
0.0
 40
0.008
 41
0.008
  0
VERTEX
  8
1_SERA-DSP
 10
1.9076
 20
0.8802
 30
0.0
 40
0.008
 41
0.008
  0
VERTEX
  8
1_SERA-DSP
 10
1.9076
 20
0.885800
 30
0.0
 40
0.008
 41
0.008
  0
SEQEND
  8
1_SERA-DSP
  0
POLYLINE
  8
1_SERA-DSP
 66
     1
 10
0.0
 20
0.0
 30
0.0
 70
     0
  0
VERTEX
  8
1_SERA-DSP
 10
1.9076
 20
0.912900
 30
0.0
 40
0.008
 41
0.008
  0
VERTEX
  8
1_SERA-DSP
 10
1.9076
 20
0.924
 30
0.0
 40
0.008
 41
0.008
  0
SEQEND
  8
1_SERA-DSP
  0
POLYLINE
  8
1_SERA-DSP
 66
     1
 10
0.0
 20
0.0
 30
0.0
 70
     0
  0
VERTEX
  8
1_SERA-DSP
 10
1.9076
 20
0.9184
 30
0.0
 40
0.008
 41
0.008
  0
VERTEX
  8
1_SERA-DSP
 10
1.941
 20
0.9184
 30
0.0
 40
0.008
 41
0.008
  0
VERTEX
  8
1_SERA-DSP
 10
1.9354
 20
0.924
 30
0.0
 40
0.008
 41
0.008
  0
SEQEND
  8
1_SERA-DSP
  0
POLYLINE
  8
1_SERA-DSP
 66
     1
 10
0.0
 20
0.0
 30
0.0
 70
     0
  0
VERTEX
  8
1_SERA-DSP
 10
3.9774
 20
0.8874
 30
0.0
 40
0.008
 41
0.008
  0
VERTEX
  8
1_SERA-DSP
 10
3.990700
 20
0.8874
 30
0.0
 40
0.008
 41
0.008
  0
VERTEX
  8
1_SERA-DSP
 10
3.9929
 20
0.883
 30
0.0
 40
0.008
 41
0.008
  0
VERTEX
  8
1_SERA-DSP
 10
3.9929
 20
0.8785
 30
0.0
 40
0.008
 41
0.008
  0
VERTEX
  8
1_SERA-DSP
 10
3.990700
 20
0.874100
 30
0.0
 40
0.008
 41
0.008
  0
VERTEX
  8
1_SERA-DSP
 10
3.9774
 20
0.874100
 30
0.0
 40
0.008
 41
0.008
  0
VERTEX
  8
1_SERA-DSP
 10
3.9752
 20
0.8785
 30
0.0
 40
0.008
 41
0.008
  0
VERTEX
  8
1_SERA-DSP
 10
3.9752
 20
0.883
 30
0.0
 40
0.008
 41
0.008
  0
VERTEX
  8
1_SERA-DSP
 10
3.984
 20
0.900800
 30
0.0
 40
0.008
 41
0.008
  0
SEQEND
  8
1_SERA-DSP
  0
POLYLINE
  8
1_SERA-DSP
 66
     1
 10
0.0
 20
0.0
 30
0.0
 70
     0
  0
VERTEX
  8
1_SERA-DSP
 10
3.956900
 20
0.900800
 30
0.0
 40
0.008
 41
0.008
  0
VERTEX
  8
1_SERA-DSP
 10
3.956900
 20
0.8785
 30
0.0
 40
0.008
 41
0.008
  0
VERTEX
  8
1_SERA-DSP
 10
3.9547
 20
0.874100
 30
0.0
 40
0.008
 41
0.008
  0
VERTEX
  8
1_SERA-DSP
 10
3.948
 20
0.8874
 30
0.0
 40
0.008
 41
0.008
  0
SEQEND
  8
1_SERA-DSP
  0
POLYLINE
  8
1_SERA-DSP
 66
     1
 10
0.0
 20
0.0
 30
0.0
 70
     0
  0
VERTEX
  8
1_SERA-DSP
 10
3.948
 20
0.8919
 30
0.0
 40
0.008
 41
0.008
  0
VERTEX
  8
1_SERA-DSP
 10
3.948
 20
0.8874
 30
0.0
 40
0.008
 41
0.008
  0
VERTEX
  8
1_SERA-DSP
 10
3.9414
 20
0.874100
 30
0.0
 40
0.008
 41
0.008
  0
VERTEX
  8
1_SERA-DSP
 10
3.9392
 20
0.8785
 30
0.0
 40
0.008
 41
0.008
  0
VERTEX
  8
1_SERA-DSP
 10
3.9392
 20
0.900800
 30
0.0
 40
0.008
 41
0.008
  0
SEQEND
  8
1_SERA-DSP
  0
POLYLINE
  8
1_SERA-DSP
 66
     1
 10
0.0
 20
0.0
 30
0.0
 70
     0
  0
VERTEX
  8
1_SERA-DSP
 10
3.920900
 20
0.8963
 30
0.0
 40
0.008
 41
0.008
  0
VERTEX
  8
1_SERA-DSP
 10
3.918700
 20
0.900800
 30
0.0
 40
0.008
 41
0.008
  0
VERTEX
  8
1_SERA-DSP
 10
3.9054
 20
0.900800
 30
0.0
 40
0.008
 41
0.008
  0
VERTEX
  8
1_SERA-DSP
 10
3.903200
 20
0.8963
 30
0.0
 40
0.008
 41
0.008
  0
VERTEX
  8
1_SERA-DSP
 10
3.903200
 20
0.8919
 30
0.0
 40
0.008
 41
0.008
  0
VERTEX
  8
1_SERA-DSP
 10
3.9054
 20
0.8874
 30
0.0
 40
0.008
 41
0.008
  0
VERTEX
  8
1_SERA-DSP
 10
3.918700
 20
0.8874
 30
0.0
 40
0.008
 41
0.008
  0
VERTEX
  8
1_SERA-DSP
 10
3.920900
 20
0.883
 30
0.0
 40
0.008
 41
0.008
  0
VERTEX
  8
1_SERA-DSP
 10
3.920900
 20
0.8785
 30
0.0
 40
0.008
 41
0.008
  0
VERTEX
  8
1_SERA-DSP
 10
3.918700
 20
0.874100
 30
0.0
 40
0.008
 41
0.008
  0
VERTEX
  8
1_SERA-DSP
 10
3.9054
 20
0.874100
 30
0.0
 40
0.008
 41
0.008
  0
VERTEX
  8
1_SERA-DSP
 10
3.903200
 20
0.8785
 30
0.0
 40
0.008
 41
0.008
  0
SEQEND
  8
1_SERA-DSP
  0
POLYLINE
  8
1_SERA-DSP
 66
     1
 10
0.0
 20
0.0
 30
0.0
 70
     0
  0
VERTEX
  8
1_SERA-DSP
 10
4.046800
 20
1.2249
 30
0.0
 40
0.008
 41
0.008
  0
VERTEX
  8
1_SERA-DSP
 10
4.0601
 20
1.2249
 30
0.0
 40
0.008
 41
0.008
  0
VERTEX
  8
1_SERA-DSP
 10
4.0623
 20
1.2205
 30
0.0
 40
0.008
 41
0.008
  0
VERTEX
  8
1_SERA-DSP
 10
4.0623
 20
1.216
 30
0.0
 40
0.008
 41
0.008
  0
VERTEX
  8
1_SERA-DSP
 10
4.0601
 20
1.2116
 30
0.0
 40
0.008
 41
0.008
  0
VERTEX
  8
1_SERA-DSP
 10
4.046800
 20
1.2116
 30
0.0
 40
0.008
 41
0.008
  0
VERTEX
  8
1_SERA-DSP
 10
4.0445
 20
1.216
 30
0.0
 40
0.008
 41
0.008
  0
VERTEX
  8
1_SERA-DSP
 10
4.0445
 20
1.2205
 30
0.0
 40
0.008
 41
0.008
  0
VERTEX
  8
1_SERA-DSP
 10
4.0534
 20
1.238300
 30
0.0
 40
0.008
 41
0.008
  0
SEQEND
  8
1_SERA-DSP
  0
POLYLINE
  8
1_SERA-DSP
 66
     1
 10
0.0
 20
0.0
 30
0.0
 70
     0
  0
VERTEX
  8
1_SERA-DSP
 10
4.0263
 20
1.2027
 30
0.0
 40
0.008
 41
0.008
  0
VERTEX
  8
1_SERA-DSP
 10
4.008500
 20
1.2027
 30
0.0
 40
0.008
 41
0.008
  0
SEQEND
  8
1_SERA-DSP
  0
POLYLINE
  8
1_SERA-DSP
 66
     1
 10
0.0
 20
0.0
 30
0.0
 70
     0
  0
VERTEX
  8
1_SERA-DSP
 10
3.9814
 20
1.2116
 30
0.0
 40
0.008
 41
0.008
  0
VERTEX
  8
1_SERA-DSP
 10
3.9814
 20
1.2249
 30
0.0
 40
0.008
 41
0.008
  0
SEQEND
  8
1_SERA-DSP
  0
POLYLINE
  8
1_SERA-DSP
 66
     1
 10
0.0
 20
0.0
 30
0.0
 70
     0
  0
VERTEX
  8
1_SERA-DSP
 10
3.990300
 20
1.238300
 30
0.0
 40
0.008
 41
0.008
  0
VERTEX
  8
1_SERA-DSP
 10
3.9837
 20
1.2249
 30
0.0
 40
0.008
 41
0.008
  0
VERTEX
  8
1_SERA-DSP
 10
3.9792
 20
1.2249
 30
0.0
 40
0.008
 41
0.008
  0
VERTEX
  8
1_SERA-DSP
 10
3.9725
 20
1.238300
 30
0.0
 40
0.008
 41
0.008
  0
SEQEND
  8
1_SERA-DSP
  0
POLYLINE
  8
1_SERA-DSP
 66
     1
 10
0.0
 20
0.0
 30
0.0
 70
     0
  0
VERTEX
  8
1_SERA-DSP
 10
3.9499
 20
1.2249
 30
0.0
 40
0.008
 41
0.008
  0
VERTEX
  8
1_SERA-DSP
 10
3.936500
 20
1.2249
 30
0.0
 40
0.008
 41
0.008
  0
SEQEND
  8
1_SERA-DSP
  0
POLYLINE
  8
1_SERA-DSP
 66
     1
 10
0.0
 20
0.0
 30
0.0
 70
     0
  0
VERTEX
  8
1_SERA-DSP
 10
3.954300
 20
1.2116
 30
0.0
 40
0.008
 41
0.008
  0
VERTEX
  8
1_SERA-DSP
 10
3.936500
 20
1.2116
 30
0.0
 40
0.008
 41
0.008
  0
VERTEX
  8
1_SERA-DSP
 10
3.936500
 20
1.238300
 30
0.0
 40
0.008
 41
0.008
  0
VERTEX
  8
1_SERA-DSP
 10
3.954300
 20
1.238300
 30
0.0
 40
0.008
 41
0.008
  0
SEQEND
  8
1_SERA-DSP
  0
POLYLINE
  8
1_SERA-DSP
 66
     1
 10
0.0
 20
0.0
 30
0.0
 70
     0
  0
VERTEX
  8
1_SERA-DSP
 10
3.9183
 20
1.2116
 30
0.0
 40
0.008
 41
0.008
  0
VERTEX
  8
1_SERA-DSP
 10
3.905
 20
1.2249
 30
0.0
 40
0.008
 41
0.008
  0
VERTEX
  8
1_SERA-DSP
 10
3.9183
 20
1.238300
 30
0.0
 40
0.008
 41
0.008
  0
SEQEND
  8
1_SERA-DSP
  0
POLYLINE
  8
1_SERA-DSP
 66
     1
 10
0.0
 20
0.0
 30
0.0
 70
     0
  0
VERTEX
  8
1_SERA-DSP
 10
3.9005
 20
1.238300
 30
0.0
 40
0.008
 41
0.008
  0
VERTEX
  8
1_SERA-DSP
 10
3.9005
 20
1.2116
 30
0.0
 40
0.008
 41
0.008
  0
SEQEND
  8
1_SERA-DSP
  0
POLYLINE
  8
1_SERA-DSP
 66
     1
 10
0.0
 20
0.0
 30
0.0
 70
     0
  0
VERTEX
  8
1_SERA-DSP
 10
4.618400
 20
1.6255
 30
0.0
 40
0.008
 41
0.008
  0
VERTEX
  8
1_SERA-DSP
 10
4.5962
 20
1.6255
 30
0.0
 40
0.008
 41
0.008
  0
VERTEX
  8
1_SERA-DSP
 10
4.607300
 20
1.6477
 30
0.0
 40
0.008
 41
0.008
  0
VERTEX
  8
1_SERA-DSP
 10
4.612900
 20
1.6477
 30
0.0
 40
0.008
 41
0.008
  0
VERTEX
  8
1_SERA-DSP
 10
4.612900
 20
1.614400
 30
0.0
 40
0.008
 41
0.008
  0
SEQEND
  8
1_SERA-DSP
  0
POLYLINE
  8
1_SERA-DSP
 66
     1
 10
0.0
 20
0.0
 30
0.0
 70
     0
  0
VERTEX
  8
1_SERA-DSP
 10
4.558
 20
1.614400
 30
0.0
 40
0.008
 41
0.008
  0
VERTEX
  8
1_SERA-DSP
 10
4.558
 20
1.6477
 30
0.0
 40
0.008
 41
0.008
  0
SEQEND
  8
1_SERA-DSP
  0
POLYLINE
  8
1_SERA-DSP
 66
     1
 10
0.0
 20
0.0
 30
0.0
 70
     0
  0
VERTEX
  8
1_SERA-DSP
 10
4.5552
 20
1.614400
 30
0.0
 40
0.008
 41
0.008
  0
VERTEX
  8
1_SERA-DSP
 10
4.5719
 20
1.614400
 30
0.0
 40
0.008
 41
0.008
  0
VERTEX
  8
1_SERA-DSP
 10
4.577400
 20
1.6255
 30
0.0
 40
0.008
 41
0.008
  0
VERTEX
  8
1_SERA-DSP
 10
4.577400
 20
1.6366
 30
0.0
 40
0.008
 41
0.008
  0
VERTEX
  8
1_SERA-DSP
 10
4.5719
 20
1.6477
 30
0.0
 40
0.008
 41
0.008
  0
VERTEX
  8
1_SERA-DSP
 10
4.5552
 20
1.6477
 30
0.0
 40
0.008
 41
0.008
  0
SEQEND
  8
1_SERA-DSP
  0
POLYLINE
  8
1_SERA-DSP
 66
     1
 10
0.0
 20
0.0
 30
0.0
 70
     0
  0
VERTEX
  8
1_SERA-DSP
 10
4.303800
 20
0.8048
 30
0.0
 40
0.008
 41
0.008
  0
VERTEX
  8
1_SERA-DSP
 10
4.2983
 20
0.802000
 30
0.0
 40
0.008
 41
0.008
  0
VERTEX
  8
1_SERA-DSP
 10
4.2983
 20
0.785300
 30
0.0
 40
0.008
 41
0.008
  0
VERTEX
  8
1_SERA-DSP
 10
4.303800
 20
0.7825
 30
0.0
 40
0.008
 41
0.008
  0
VERTEX
  8
1_SERA-DSP
 10
4.314900
 20
0.7825
 30
0.0
 40
0.008
 41
0.008
  0
VERTEX
  8
1_SERA-DSP
 10
4.3205
 20
0.7881
 30
0.0
 40
0.008
 41
0.008
  0
VERTEX
  8
1_SERA-DSP
 10
4.3205
 20
0.8048
 30
0.0
 40
0.008
 41
0.008
  0
VERTEX
  8
1_SERA-DSP
 10
4.3316
 20
0.8048
 30
0.0
 40
0.008
 41
0.008
  0
VERTEX
  8
1_SERA-DSP
 10
4.3316
 20
0.7825
 30
0.0
 40
0.008
 41
0.008
  0
SEQEND
  8
1_SERA-DSP
  0
POLYLINE
  8
1_SERA-DSP
 66
     1
 10
0.0
 20
0.0
 30
0.0
 70
     0
  0
VERTEX
  8
1_SERA-DSP
 10
4.303800
 20
0.845800
 30
0.0
 40
0.008
 41
0.008
  0
VERTEX
  8
1_SERA-DSP
 10
4.2983
 20
0.843
 30
0.0
 40
0.008
 41
0.008
  0
VERTEX
  8
1_SERA-DSP
 10
4.2983
 20
0.8263
 30
0.0
 40
0.008
 41
0.008
  0
VERTEX
  8
1_SERA-DSP
 10
4.303800
 20
0.823500
 30
0.0
 40
0.008
 41
0.008
  0
VERTEX
  8
1_SERA-DSP
 10
4.314900
 20
0.823500
 30
0.0
 40
0.008
 41
0.008
  0
VERTEX
  8
1_SERA-DSP
 10
4.3205
 20
0.8291
 30
0.0
 40
0.008
 41
0.008
  0
VERTEX
  8
1_SERA-DSP
 10
4.3205
 20
0.845800
 30
0.0
 40
0.008
 41
0.008
  0
VERTEX
  8
1_SERA-DSP
 10
4.3316
 20
0.845800
 30
0.0
 40
0.008
 41
0.008
  0
VERTEX
  8
1_SERA-DSP
 10
4.3316
 20
0.823500
 30
0.0
 40
0.008
 41
0.008
  0
SEQEND
  8
1_SERA-DSP
  0
POLYLINE
  8
1_SERA-DSP
 66
     1
 10
0.0
 20
0.0
 30
0.0
 70
     0
  0
VERTEX
  8
1_SERA-DSP
 10
4.314900
 20
0.8729
 30
0.0
 40
0.008
 41
0.008
  0
VERTEX
  8
1_SERA-DSP
 10
4.2983
 20
0.864500
 30
0.0
 40
0.008
 41
0.008
  0
SEQEND
  8
1_SERA-DSP
  0
POLYLINE
  8
1_SERA-DSP
 66
     1
 10
0.0
 20
0.0
 30
0.0
 70
     0
  0
VERTEX
  8
1_SERA-DSP
 10
4.314900
 20
0.8868
 30
0.0
 40
0.008
 41
0.008
  0
VERTEX
  8
1_SERA-DSP
 10
4.314900
 20
0.8701
 30
0.0
 40
0.008
 41
0.008
  0
VERTEX
  8
1_SERA-DSP
 10
4.3205
 20
0.864500
 30
0.0
 40
0.008
 41
0.008
  0
VERTEX
  8
1_SERA-DSP
 10
4.326
 20
0.864500
 30
0.0
 40
0.008
 41
0.008
  0
VERTEX
  8
1_SERA-DSP
 10
4.3316
 20
0.8701
 30
0.0
 40
0.008
 41
0.008
  0
VERTEX
  8
1_SERA-DSP
 10
4.3316
 20
0.8868
 30
0.0
 40
0.008
 41
0.008
  0
VERTEX
  8
1_SERA-DSP
 10
4.2983
 20
0.8868
 30
0.0
 40
0.008
 41
0.008
  0
SEQEND
  8
1_SERA-DSP
  0
POLYLINE
  8
1_SERA-DSP
 66
     1
 10
0.0
 20
0.0
 30
0.0
 70
     0
  0
VERTEX
  8
1_SERA-DSP
 10
4.1876
 20
0.8059
 30
0.0
 40
0.008
 41
0.008
  0
VERTEX
  8
1_SERA-DSP
 10
4.2043
 20
0.8226
 30
0.0
 40
0.008
 41
0.008
  0
VERTEX
  8
1_SERA-DSP
 10
4.221
 20
0.8059
 30
0.0
 40
0.008
 41
0.008
  0
SEQEND
  8
1_SERA-DSP
  0
POLYLINE
  8
1_SERA-DSP
 66
     1
 10
0.0
 20
0.0
 30
0.0
 70
     0
  0
VERTEX
  8
1_SERA-DSP
 10
4.221
 20
0.8281
 30
0.0
 40
0.008
 41
0.008
  0
VERTEX
  8
1_SERA-DSP
 10
4.1876
 20
0.8281
 30
0.0
 40
0.008
 41
0.008
  0
SEQEND
  8
1_SERA-DSP
  0
POLYLINE
  8
1_SERA-DSP
 66
     1
 10
0.0
 20
0.0
 30
0.0
 70
     0
  0
VERTEX
  8
1_SERA-DSP
 10
4.1876
 20
0.860800
 30
0.0
 40
0.008
 41
0.008
  0
VERTEX
  8
1_SERA-DSP
 10
4.193200
 20
0.8663
 30
0.0
 40
0.008
 41
0.008
  0
VERTEX
  8
1_SERA-DSP
 10
4.1988
 20
0.869100
 30
0.0
 40
0.008
 41
0.008
  0
VERTEX
  8
1_SERA-DSP
 10
4.2099
 20
0.869100
 30
0.0
 40
0.008
 41
0.008
  0
VERTEX
  8
1_SERA-DSP
 10
4.215400
 20
0.8663
 30
0.0
 40
0.008
 41
0.008
  0
VERTEX
  8
1_SERA-DSP
 10
4.221
 20
0.860800
 30
0.0
 40
0.008
 41
0.008
  0
VERTEX
  8
1_SERA-DSP
 10
4.221
 20
0.8552
 30
0.0
 40
0.008
 41
0.008
  0
VERTEX
  8
1_SERA-DSP
 10
4.215400
 20
0.849700
 30
0.0
 40
0.008
 41
0.008
  0
VERTEX
  8
1_SERA-DSP
 10
4.2099
 20
0.8469
 30
0.0
 40
0.008
 41
0.008
  0
VERTEX
  8
1_SERA-DSP
 10
4.1988
 20
0.8469
 30
0.0
 40
0.008
 41
0.008
  0
VERTEX
  8
1_SERA-DSP
 10
4.193200
 20
0.849700
 30
0.0
 40
0.008
 41
0.008
  0
VERTEX
  8
1_SERA-DSP
 10
4.1876
 20
0.8552
 30
0.0
 40
0.008
 41
0.008
  0
VERTEX
  8
1_SERA-DSP
 10
4.1876
 20
0.860800
 30
0.0
 40
0.008
 41
0.008
  0
SEQEND
  8
1_SERA-DSP
  0
POLYLINE
  8
1_SERA-DSP
 66
     1
 10
0.0
 20
0.0
 30
0.0
 70
     0
  0
VERTEX
  8
1_SERA-DSP
 10
4.1876
 20
0.887900
 30
0.0
 40
0.008
 41
0.008
  0
VERTEX
  8
1_SERA-DSP
 10
4.1876
 20
0.899
 30
0.0
 40
0.008
 41
0.008
  0
SEQEND
  8
1_SERA-DSP
  0
POLYLINE
  8
1_SERA-DSP
 66
     1
 10
0.0
 20
0.0
 30
0.0
 70
     0
  0
VERTEX
  8
1_SERA-DSP
 10
4.1876
 20
0.8934
 30
0.0
 40
0.008
 41
0.008
  0
VERTEX
  8
1_SERA-DSP
 10
4.221
 20
0.8934
 30
0.0
 40
0.008
 41
0.008
  0
VERTEX
  8
1_SERA-DSP
 10
4.215400
 20
0.899
 30
0.0
 40
0.008
 41
0.008
  0
SEQEND
  8
1_SERA-DSP
  0
POLYLINE
  8
1_SERA-DSP
 66
     1
 10
0.0
 20
0.0
 30
0.0
 70
     0
  0
VERTEX
  8
1_SERA-DSP
 10
3.0588
 20
2.146600
 30
0.0
 40
0.008
 41
0.008
  0
VERTEX
  8
1_SERA-DSP
 10
3.0476
 20
2.1244
 30
0.0
 40
0.008
 41
0.008
  0
SEQEND
  8
1_SERA-DSP
  0
POLYLINE
  8
1_SERA-DSP
 66
     1
 10
0.0
 20
0.0
 30
0.0
 70
     0
  0
VERTEX
  8
1_SERA-DSP
 10
3.042100
 20
2.1133
 30
0.0
 40
0.008
 41
0.008
  0
VERTEX
  8
1_SERA-DSP
 10
3.0476
 20
2.1244
 30
0.0
 40
0.008
 41
0.008
  0
VERTEX
  8
1_SERA-DSP
 10
3.036500
 20
2.146600
 30
0.0
 40
0.008
 41
0.008
  0
SEQEND
  8
1_SERA-DSP
  0
POLYLINE
  8
1_SERA-DSP
 66
     1
 10
0.0
 20
0.0
 30
0.0
 70
     0
  0
VERTEX
  8
1_SERA-DSP
 10
3.001100
 20
2.146600
 30
0.0
 40
0.008
 41
0.008
  0
VERTEX
  8
1_SERA-DSP
 10
3.012200
 20
2.146600
 30
0.0
 40
0.008
 41
0.008
  0
VERTEX
  8
1_SERA-DSP
 10
3.015
 20
2.141
 30
0.0
 40
0.008
 41
0.008
  0
VERTEX
  8
1_SERA-DSP
 10
3.015
 20
2.1299
 30
0.0
 40
0.008
 41
0.008
  0
VERTEX
  8
1_SERA-DSP
 10
3.0178
 20
2.1244
 30
0.0
 40
0.008
 41
0.008
  0
VERTEX
  8
1_SERA-DSP
 10
2.9983
 20
2.1244
 30
0.0
 40
0.008
 41
0.008
  0
VERTEX
  8
1_SERA-DSP
 10
2.9955
 20
2.1299
 30
0.0
 40
0.008
 41
0.008
  0
VERTEX
  8
1_SERA-DSP
 10
2.9983
 20
2.1355
 30
0.0
 40
0.008
 41
0.008
  0
VERTEX
  8
1_SERA-DSP
 10
3.015
 20
2.1355
 30
0.0
 40
0.008
 41
0.008
  0
SEQEND
  8
1_SERA-DSP
  0
POLYLINE
  8
1_SERA-DSP
 66
     1
 10
0.0
 20
0.0
 30
0.0
 70
     0
  0
VERTEX
  8
1_SERA-DSP
 10
2.976800
 20
2.1244
 30
0.0
 40
0.008
 41
0.008
  0
VERTEX
  8
1_SERA-DSP
 10
2.9656
 20
2.1244
 30
0.0
 40
0.008
 41
0.008
  0
SEQEND
  8
1_SERA-DSP
  0
POLYLINE
  8
1_SERA-DSP
 66
     1
 10
0.0
 20
0.0
 30
0.0
 70
     0
  0
VERTEX
  8
1_SERA-DSP
 10
2.9712
 20
2.1244
 30
0.0
 40
0.008
 41
0.008
  0
VERTEX
  8
1_SERA-DSP
 10
2.9712
 20
2.157700
 30
0.0
 40
0.008
 41
0.008
  0
VERTEX
  8
1_SERA-DSP
 10
2.9656
 20
2.157700
 30
0.0
 40
0.008
 41
0.008
  0
SEQEND
  8
1_SERA-DSP
  0
POLYLINE
  8
1_SERA-DSP
 66
     1
 10
0.0
 20
0.0
 30
0.0
 70
     0
  0
VERTEX
  8
1_SERA-DSP
 10
2.924600
 20
2.1133
 30
0.0
 40
0.008
 41
0.008
  0
VERTEX
  8
1_SERA-DSP
 10
2.924600
 20
2.146600
 30
0.0
 40
0.008
 41
0.008
  0
VERTEX
  8
1_SERA-DSP
 10
2.9413
 20
2.146600
 30
0.0
 40
0.008
 41
0.008
  0
VERTEX
  8
1_SERA-DSP
 10
2.944100
 20
2.141
 30
0.0
 40
0.008
 41
0.008
  0
VERTEX
  8
1_SERA-DSP
 10
2.944100
 20
2.1299
 30
0.0
 40
0.008
 41
0.008
  0
VERTEX
  8
1_SERA-DSP
 10
2.9413
 20
2.1244
 30
0.0
 40
0.008
 41
0.008
  0
VERTEX
  8
1_SERA-DSP
 10
2.924600
 20
2.1244
 30
0.0
 40
0.008
 41
0.008
  0
SEQEND
  8
1_SERA-DSP
  0
POLYLINE
  8
1_SERA-DSP
 66
     1
 10
0.0
 20
0.0
 30
0.0
 70
     0
  0
VERTEX
  8
1_SERA-DSP
 10
2.9031
 20
2.146600
 30
0.0
 40
0.008
 41
0.008
  0
VERTEX
  8
1_SERA-DSP
 10
2.886400
 20
2.146600
 30
0.0
 40
0.008
 41
0.008
  0
VERTEX
  8
1_SERA-DSP
 10
2.883600
 20
2.141
 30
0.0
 40
0.008
 41
0.008
  0
VERTEX
  8
1_SERA-DSP
 10
2.886400
 20
2.1355
 30
0.0
 40
0.008
 41
0.008
  0
VERTEX
  8
1_SERA-DSP
 10
2.9031
 20
2.1355
 30
0.0
 40
0.008
 41
0.008
  0
VERTEX
  8
1_SERA-DSP
 10
2.905900
 20
2.1299
 30
0.0
 40
0.008
 41
0.008
  0
VERTEX
  8
1_SERA-DSP
 10
2.9031
 20
2.1244
 30
0.0
 40
0.008
 41
0.008
  0
VERTEX
  8
1_SERA-DSP
 10
2.886400
 20
2.1244
 30
0.0
 40
0.008
 41
0.008
  0
SEQEND
  8
1_SERA-DSP
  0
POLYLINE
  8
1_SERA-DSP
 66
     1
 10
0.0
 20
0.0
 30
0.0
 70
     0
  0
VERTEX
  8
1_SERA-DSP
 10
2.864900
 20
2.1244
 30
0.0
 40
0.008
 41
0.008
  0
VERTEX
  8
1_SERA-DSP
 10
2.8538
 20
2.1244
 30
0.0
 40
0.008
 41
0.008
  0
SEQEND
  8
1_SERA-DSP
  0
POLYLINE
  8
1_SERA-DSP
 66
     1
 10
0.0
 20
0.0
 30
0.0
 70
     0
  0
VERTEX
  8
1_SERA-DSP
 10
2.859300
 20
2.1244
 30
0.0
 40
0.008
 41
0.008
  0
VERTEX
  8
1_SERA-DSP
 10
2.859300
 20
2.146600
 30
0.0
 40
0.008
 41
0.008
  0
VERTEX
  8
1_SERA-DSP
 10
2.8538
 20
2.146600
 30
0.0
 40
0.008
 41
0.008
  0
SEQEND
  8
1_SERA-DSP
  0
POLYLINE
  8
1_SERA-DSP
 66
     1
 10
0.0
 20
0.0
 30
0.0
 70
     0
  0
VERTEX
  8
1_SERA-DSP
 10
2.812800
 20
2.1244
 30
0.0
 40
0.008
 41
0.008
  0
VERTEX
  8
1_SERA-DSP
 10
2.812800
 20
2.157700
 30
0.0
 40
0.008
 41
0.008
  0
SEQEND
  8
1_SERA-DSP
  0
POLYLINE
  8
1_SERA-DSP
 66
     1
 10
0.0
 20
0.0
 30
0.0
 70
     0
  0
VERTEX
  8
1_SERA-DSP
 10
2.81
 20
2.1244
 30
0.0
 40
0.008
 41
0.008
  0
VERTEX
  8
1_SERA-DSP
 10
2.826600
 20
2.1244
 30
0.0
 40
0.008
 41
0.008
  0
VERTEX
  8
1_SERA-DSP
 10
2.832200
 20
2.1355
 30
0.0
 40
0.008
 41
0.008
  0
VERTEX
  8
1_SERA-DSP
 10
2.832200
 20
2.146600
 30
0.0
 40
0.008
 41
0.008
  0
VERTEX
  8
1_SERA-DSP
 10
2.826600
 20
2.157700
 30
0.0
 40
0.008
 41
0.008
  0
VERTEX
  8
1_SERA-DSP
 10
2.81
 20
2.157700
 30
0.0
 40
0.008
 41
0.008
  0
SEQEND
  8
1_SERA-DSP
  0
POLYLINE
  8
1_SERA-DSP
 66
     1
 10
0.0
 20
0.0
 30
0.0
 70
     0
  0
VERTEX
  8
1_SERA-DSP
 10
3.4102
 20
0.8785
 30
0.0
 40
0.008
 41
0.008
  0
VERTEX
  8
1_SERA-DSP
 10
3.4124
 20
0.874100
 30
0.0
 40
0.008
 41
0.008
  0
VERTEX
  8
1_SERA-DSP
 10
3.425700
 20
0.874100
 30
0.0
 40
0.008
 41
0.008
  0
VERTEX
  8
1_SERA-DSP
 10
3.4279
 20
0.8785
 30
0.0
 40
0.008
 41
0.008
  0
VERTEX
  8
1_SERA-DSP
 10
3.4279
 20
0.8874
 30
0.0
 40
0.008
 41
0.008
  0
VERTEX
  8
1_SERA-DSP
 10
3.4235
 20
0.8919
 30
0.0
 40
0.008
 41
0.008
  0
VERTEX
  8
1_SERA-DSP
 10
3.4102
 20
0.8919
 30
0.0
 40
0.008
 41
0.008
  0
VERTEX
  8
1_SERA-DSP
 10
3.4102
 20
0.900800
 30
0.0
 40
0.008
 41
0.008
  0
VERTEX
  8
1_SERA-DSP
 10
3.4279
 20
0.900800
 30
0.0
 40
0.008
 41
0.008
  0
SEQEND
  8
1_SERA-DSP
  0
POLYLINE
  8
1_SERA-DSP
 66
     1
 10
0.0
 20
0.0
 30
0.0
 70
     0
  0
VERTEX
  8
1_SERA-DSP
 10
3.391900
 20
0.900800
 30
0.0
 40
0.008
 41
0.008
  0
VERTEX
  8
1_SERA-DSP
 10
3.391900
 20
0.8785
 30
0.0
 40
0.008
 41
0.008
  0
VERTEX
  8
1_SERA-DSP
 10
3.3897
 20
0.874100
 30
0.0
 40
0.008
 41
0.008
  0
VERTEX
  8
1_SERA-DSP
 10
3.383
 20
0.8874
 30
0.0
 40
0.008
 41
0.008
  0
SEQEND
  8
1_SERA-DSP
  0
POLYLINE
  8
1_SERA-DSP
 66
     1
 10
0.0
 20
0.0
 30
0.0
 70
     0
  0
VERTEX
  8
1_SERA-DSP
 10
3.383
 20
0.8919
 30
0.0
 40
0.008
 41
0.008
  0
VERTEX
  8
1_SERA-DSP
 10
3.383
 20
0.8874
 30
0.0
 40
0.008
 41
0.008
  0
VERTEX
  8
1_SERA-DSP
 10
3.376400
 20
0.874100
 30
0.0
 40
0.008
 41
0.008
  0
VERTEX
  8
1_SERA-DSP
 10
3.374200
 20
0.8785
 30
0.0
 40
0.008
 41
0.008
  0
VERTEX
  8
1_SERA-DSP
 10
3.374200
 20
0.900800
 30
0.0
 40
0.008
 41
0.008
  0
SEQEND
  8
1_SERA-DSP
  0
POLYLINE
  8
1_SERA-DSP
 66
     1
 10
0.0
 20
0.0
 30
0.0
 70
     0
  0
VERTEX
  8
1_SERA-DSP
 10
3.3559
 20
0.8963
 30
0.0
 40
0.008
 41
0.008
  0
VERTEX
  8
1_SERA-DSP
 10
3.353700
 20
0.900800
 30
0.0
 40
0.008
 41
0.008
  0
VERTEX
  8
1_SERA-DSP
 10
3.3404
 20
0.900800
 30
0.0
 40
0.008
 41
0.008
  0
VERTEX
  8
1_SERA-DSP
 10
3.3382
 20
0.8963
 30
0.0
 40
0.008
 41
0.008
  0
VERTEX
  8
1_SERA-DSP
 10
3.3382
 20
0.8919
 30
0.0
 40
0.008
 41
0.008
  0
VERTEX
  8
1_SERA-DSP
 10
3.3404
 20
0.8874
 30
0.0
 40
0.008
 41
0.008
  0
VERTEX
  8
1_SERA-DSP
 10
3.353700
 20
0.8874
 30
0.0
 40
0.008
 41
0.008
  0
VERTEX
  8
1_SERA-DSP
 10
3.3559
 20
0.883
 30
0.0
 40
0.008
 41
0.008
  0
VERTEX
  8
1_SERA-DSP
 10
3.3559
 20
0.8785
 30
0.0
 40
0.008
 41
0.008
  0
VERTEX
  8
1_SERA-DSP
 10
3.353700
 20
0.874100
 30
0.0
 40
0.008
 41
0.008
  0
VERTEX
  8
1_SERA-DSP
 10
3.3404
 20
0.874100
 30
0.0
 40
0.008
 41
0.008
  0
VERTEX
  8
1_SERA-DSP
 10
3.3382
 20
0.8785
 30
0.0
 40
0.008
 41
0.008
  0
SEQEND
  8
1_SERA-DSP
  0
POLYLINE
  8
1_SERA-DSP
 66
     1
 10
0.0
 20
0.0
 30
0.0
 70
     0
  0
VERTEX
  8
1_SERA-DSP
 10
3.479500
 20
1.216
 30
0.0
 40
0.008
 41
0.008
  0
VERTEX
  8
1_SERA-DSP
 10
3.481800
 20
1.2116
 30
0.0
 40
0.008
 41
0.008
  0
VERTEX
  8
1_SERA-DSP
 10
3.4951
 20
1.2116
 30
0.0
 40
0.008
 41
0.008
  0
VERTEX
  8
1_SERA-DSP
 10
3.4973
 20
1.216
 30
0.0
 40
0.008
 41
0.008
  0
VERTEX
  8
1_SERA-DSP
 10
3.4973
 20
1.2249
 30
0.0
 40
0.008
 41
0.008
  0
VERTEX
  8
1_SERA-DSP
 10
3.4929
 20
1.2294
 30
0.0
 40
0.008
 41
0.008
  0
VERTEX
  8
1_SERA-DSP
 10
3.479500
 20
1.2294
 30
0.0
 40
0.008
 41
0.008
  0
VERTEX
  8
1_SERA-DSP
 10
3.479500
 20
1.238300
 30
0.0
 40
0.008
 41
0.008
  0
VERTEX
  8
1_SERA-DSP
 10
3.4973
 20
1.238300
 30
0.0
 40
0.008
 41
0.008
  0
SEQEND
  8
1_SERA-DSP
  0
POLYLINE
  8
1_SERA-DSP
 66
     1
 10
0.0
 20
0.0
 30
0.0
 70
     0
  0
VERTEX
  8
1_SERA-DSP
 10
3.461300
 20
1.2027
 30
0.0
 40
0.008
 41
0.008
  0
VERTEX
  8
1_SERA-DSP
 10
3.4435
 20
1.2027
 30
0.0
 40
0.008
 41
0.008
  0
SEQEND
  8
1_SERA-DSP
  0
POLYLINE
  8
1_SERA-DSP
 66
     1
 10
0.0
 20
0.0
 30
0.0
 70
     0
  0
VERTEX
  8
1_SERA-DSP
 10
3.4164
 20
1.2116
 30
0.0
 40
0.008
 41
0.008
  0
VERTEX
  8
1_SERA-DSP
 10
3.4164
 20
1.2249
 30
0.0
 40
0.008
 41
0.008
  0
SEQEND
  8
1_SERA-DSP
  0
POLYLINE
  8
1_SERA-DSP
 66
     1
 10
0.0
 20
0.0
 30
0.0
 70
     0
  0
VERTEX
  8
1_SERA-DSP
 10
3.425300
 20
1.238300
 30
0.0
 40
0.008
 41
0.008
  0
VERTEX
  8
1_SERA-DSP
 10
3.418700
 20
1.2249
 30
0.0
 40
0.008
 41
0.008
  0
VERTEX
  8
1_SERA-DSP
 10
3.4142
 20
1.2249
 30
0.0
 40
0.008
 41
0.008
  0
VERTEX
  8
1_SERA-DSP
 10
3.4075
 20
1.238300
 30
0.0
 40
0.008
 41
0.008
  0
SEQEND
  8
1_SERA-DSP
  0
POLYLINE
  8
1_SERA-DSP
 66
     1
 10
0.0
 20
0.0
 30
0.0
 70
     0
  0
VERTEX
  8
1_SERA-DSP
 10
3.3849
 20
1.2249
 30
0.0
 40
0.008
 41
0.008
  0
VERTEX
  8
1_SERA-DSP
 10
3.371500
 20
1.2249
 30
0.0
 40
0.008
 41
0.008
  0
SEQEND
  8
1_SERA-DSP
  0
POLYLINE
  8
1_SERA-DSP
 66
     1
 10
0.0
 20
0.0
 30
0.0
 70
     0
  0
VERTEX
  8
1_SERA-DSP
 10
3.3893
 20
1.2116
 30
0.0
 40
0.008
 41
0.008
  0
VERTEX
  8
1_SERA-DSP
 10
3.371500
 20
1.2116
 30
0.0
 40
0.008
 41
0.008
  0
VERTEX
  8
1_SERA-DSP
 10
3.371500
 20
1.238300
 30
0.0
 40
0.008
 41
0.008
  0
VERTEX
  8
1_SERA-DSP
 10
3.3893
 20
1.238300
 30
0.0
 40
0.008
 41
0.008
  0
SEQEND
  8
1_SERA-DSP
  0
POLYLINE
  8
1_SERA-DSP
 66
     1
 10
0.0
 20
0.0
 30
0.0
 70
     0
  0
VERTEX
  8
1_SERA-DSP
 10
3.3533
 20
1.2116
 30
0.0
 40
0.008
 41
0.008
  0
VERTEX
  8
1_SERA-DSP
 10
3.34
 20
1.2249
 30
0.0
 40
0.008
 41
0.008
  0
VERTEX
  8
1_SERA-DSP
 10
3.3533
 20
1.238300
 30
0.0
 40
0.008
 41
0.008
  0
SEQEND
  8
1_SERA-DSP
  0
POLYLINE
  8
1_SERA-DSP
 66
     1
 10
0.0
 20
0.0
 30
0.0
 70
     0
  0
VERTEX
  8
1_SERA-DSP
 10
3.335500
 20
1.238300
 30
0.0
 40
0.008
 41
0.008
  0
VERTEX
  8
1_SERA-DSP
 10
3.335500
 20
1.2116
 30
0.0
 40
0.008
 41
0.008
  0
SEQEND
  8
1_SERA-DSP
  0
POLYLINE
  8
1_SERA-DSP
 66
     1
 10
0.0
 20
0.0
 30
0.0
 70
     0
  0
VERTEX
  8
1_SERA-DSP
 10
3.146100
 20
0.5582
 30
0.0
 40
0.008
 41
0.008
  0
VERTEX
  8
1_SERA-DSP
 10
3.146100
 20
0.536
 30
0.0
 40
0.008
 41
0.008
  0
VERTEX
  8
1_SERA-DSP
 10
3.123900
 20
0.5582
 30
0.0
 40
0.008
 41
0.008
  0
VERTEX
  8
1_SERA-DSP
 10
3.118300
 20
0.5582
 30
0.0
 40
0.008
 41
0.008
  0
VERTEX
  8
1_SERA-DSP
 10
3.1128
 20
0.5554
 30
0.0
 40
0.008
 41
0.008
  0
VERTEX
  8
1_SERA-DSP
 10
3.1128
 20
0.5388
 30
0.0
 40
0.008
 41
0.008
  0
VERTEX
  8
1_SERA-DSP
 10
3.118300
 20
0.536
 30
0.0
 40
0.008
 41
0.008
  0
SEQEND
  8
1_SERA-DSP
  0
POLYLINE
  8
1_SERA-DSP
 66
     1
 10
0.0
 20
0.0
 30
0.0
 70
     0
  0
VERTEX
  8
1_SERA-DSP
 10
3.135
 20
0.4978
 30
0.0
 40
0.008
 41
0.008
  0
VERTEX
  8
1_SERA-DSP
 10
3.1406
 20
0.4978
 30
0.0
 40
0.008
 41
0.008
  0
VERTEX
  8
1_SERA-DSP
 10
3.146100
 20
0.5005
 30
0.0
 40
0.008
 41
0.008
  0
VERTEX
  8
1_SERA-DSP
 10
3.146100
 20
0.5117
 30
0.0
 40
0.008
 41
0.008
  0
VERTEX
  8
1_SERA-DSP
 10
3.1406
 20
0.5144
 30
0.0
 40
0.008
 41
0.008
  0
VERTEX
  8
1_SERA-DSP
 10
3.1128
 20
0.5144
 30
0.0
 40
0.008
 41
0.008
  0
SEQEND
  8
1_SERA-DSP
  0
POLYLINE
  8
1_SERA-DSP
 66
     1
 10
0.0
 20
0.0
 30
0.0
 70
     0
  0
VERTEX
  8
1_SERA-DSP
 10
3.1128
 20
0.5172
 30
0.0
 40
0.008
 41
0.008
  0
VERTEX
  8
1_SERA-DSP
 10
3.1128
 20
0.5061
 30
0.0
 40
0.008
 41
0.008
  0
SEQEND
  8
1_SERA-DSP
  0
POLYLINE
  8
1_SERA-DSP
 66
     1
 10
0.0
 20
0.0
 30
0.0
 70
     0
  0
VERTEX
  8
1_SERA-DSP
 10
1.115
 20
1.361
 30
0.0
 40
0.008
 41
0.008
  0
VERTEX
  8
1_SERA-DSP
 10
1.131700
 20
1.361
 30
0.0
 40
0.008
 41
0.008
  0
VERTEX
  8
1_SERA-DSP
 10
1.1344
 20
1.3555
 30
0.0
 40
0.008
 41
0.008
  0
VERTEX
  8
1_SERA-DSP
 10
1.1344
 20
1.3499
 30
0.0
 40
0.008
 41
0.008
  0
VERTEX
  8
1_SERA-DSP
 10
1.131700
 20
1.3444
 30
0.0
 40
0.008
 41
0.008
  0
VERTEX
  8
1_SERA-DSP
 10
1.115
 20
1.3444
 30
0.0
 40
0.008
 41
0.008
  0
VERTEX
  8
1_SERA-DSP
 10
1.1122
 20
1.3499
 30
0.0
 40
0.008
 41
0.008
  0
VERTEX
  8
1_SERA-DSP
 10
1.1122
 20
1.3555
 30
0.0
 40
0.008
 41
0.008
  0
VERTEX
  8
1_SERA-DSP
 10
1.123300
 20
1.3777
 30
0.0
 40
0.008
 41
0.008
  0
SEQEND
  8
1_SERA-DSP
  0
POLYLINE
  8
1_SERA-DSP
 66
     1
 10
0.0
 20
0.0
 30
0.0
 70
     0
  0
VERTEX
  8
1_SERA-DSP
 10
3.8226
 20
1.5639
 30
0.0
 40
0.008
 41
0.008
  0
VERTEX
  8
1_SERA-DSP
 10
3.811500
 20
1.5639
 30
0.0
 40
0.008
 41
0.008
  0
SEQEND
  8
1_SERA-DSP
  0
POLYLINE
  8
1_SERA-DSP
 66
     1
 10
0.0
 20
0.0
 30
0.0
 70
     0
  0
VERTEX
  8
1_SERA-DSP
 10
3.8171
 20
1.5639
 30
0.0
 40
0.008
 41
0.008
  0
VERTEX
  8
1_SERA-DSP
 10
3.8171
 20
1.597200
 30
0.0
 40
0.008
 41
0.008
  0
VERTEX
  8
1_SERA-DSP
 10
3.811500
 20
1.591700
 30
0.0
 40
0.008
 41
0.008
  0
SEQEND
  8
1_SERA-DSP
  0
POLYLINE
  8
1_SERA-DSP
 66
     1
 10
0.0
 20
0.0
 30
0.0
 70
     0
  0
VERTEX
  8
1_SERA-DSP
 10
3.7678
 20
1.575
 30
0.0
 40
0.008
 41
0.008
  0
VERTEX
  8
1_SERA-DSP
 10
3.7678
 20
1.5694
 30
0.0
 40
0.008
 41
0.008
  0
VERTEX
  8
1_SERA-DSP
 10
3.770500
 20
1.5639
 30
0.0
 40
0.008
 41
0.008
  0
VERTEX
  8
1_SERA-DSP
 10
3.7817
 20
1.5639
 30
0.0
 40
0.008
 41
0.008
  0
VERTEX
  8
1_SERA-DSP
 10
3.7844
 20
1.5694
 30
0.0
 40
0.008
 41
0.008
  0
VERTEX
  8
1_SERA-DSP
 10
3.7844
 20
1.597200
 30
0.0
 40
0.008
 41
0.008
  0
SEQEND
  8
1_SERA-DSP
  0
POLYLINE
  8
1_SERA-DSP
 66
     1
 10
0.0
 20
0.0
 30
0.0
 70
     0
  0
VERTEX
  8
1_SERA-DSP
 10
3.7872
 20
1.597200
 30
0.0
 40
0.008
 41
0.008
  0
VERTEX
  8
1_SERA-DSP
 10
3.7761
 20
1.597200
 30
0.0
 40
0.008
 41
0.008
  0
SEQEND
  8
1_SERA-DSP
  0
POLYLINE
  8
1_SERA-DSP
 66
     1
 10
0.0
 20
0.0
 30
0.0
 70
     0
  0
VERTEX
  8
1_SERA-DSP
 10
1.115
 20
1.361
 30
0.0
 40
0.008
 41
0.008
  0
VERTEX
  8
1_SERA-DSP
 10
1.131700
 20
1.361
 30
0.0
 40
0.008
 41
0.008
  0
VERTEX
  8
1_SERA-DSP
 10
1.1344
 20
1.3555
 30
0.0
 40
0.008
 41
0.008
  0
VERTEX
  8
1_SERA-DSP
 10
1.1344
 20
1.3499
 30
0.0
 40
0.008
 41
0.008
  0
VERTEX
  8
1_SERA-DSP
 10
1.131700
 20
1.3444
 30
0.0
 40
0.008
 41
0.008
  0
VERTEX
  8
1_SERA-DSP
 10
1.115
 20
1.3444
 30
0.0
 40
0.008
 41
0.008
  0
VERTEX
  8
1_SERA-DSP
 10
1.1122
 20
1.3499
 30
0.0
 40
0.008
 41
0.008
  0
VERTEX
  8
1_SERA-DSP
 10
1.1122
 20
1.3555
 30
0.0
 40
0.008
 41
0.008
  0
VERTEX
  8
1_SERA-DSP
 10
1.123300
 20
1.3777
 30
0.0
 40
0.008
 41
0.008
  0
SEQEND
  8
1_SERA-DSP
  0
POLYLINE
  8
1_SERA-DSP
 66
     1
 10
0.0
 20
0.0
 30
0.0
 70
     0
  0
VERTEX
  8
1_SERA-DSP
 10
1.24
 20
2.445
 30
0.0
 40
0.008
 41
0.008
  0
VERTEX
  8
1_SERA-DSP
 10
3.84
 20
2.445
 30
0.0
 40
0.008
 41
0.008
  0
VERTEX
  8
1_SERA-DSP
 10
3.84
 20
1.735
 30
0.0
 40
0.008
 41
0.008
  0
VERTEX
  8
1_SERA-DSP
 10
1.24
 20
1.735
 30
0.0
 40
0.008
 41
0.008
  0
VERTEX
  8
1_SERA-DSP
 10
1.24
 20
2.445
 30
0.0
 40
0.008
 41
0.008
  0
SEQEND
  8
1_SERA-DSP
  0
POLYLINE
  8
1_SERA-DSP
 66
     1
 10
0.0
 20
0.0
 30
0.0
 70
     0
  0
VERTEX
  8
1_SERA-DSP
 10
3.09
 20
0.725
 30
0.0
 40
0.008
 41
0.008
  0
VERTEX
  8
1_SERA-DSP
 10
3.09
 20
0.75
 30
0.0
 40
0.008
 41
0.008
  0
SEQEND
  8
1_SERA-DSP
  0
POLYLINE
  8
1_SERA-DSP
 66
     1
 10
0.0
 20
0.0
 30
0.0
 70
     0
  0
VERTEX
  8
1_SERA-DSP
 10
1.5575
 20
0.6815
 30
0.0
 40
0.008
 41
0.008
  0
VERTEX
  8
1_SERA-DSP
 10
1.5575
 20
1.0725
 30
0.0
 40
0.008
 41
0.008
  0
VERTEX
  8
1_SERA-DSP
 10
1.8225
 20
1.0725
 30
0.0
 40
0.008
 41
0.008
  0
VERTEX
  8
1_SERA-DSP
 10
1.8225
 20
0.6815
 30
0.0
 40
0.008
 41
0.008
  0
VERTEX
  8
1_SERA-DSP
 10
1.5575
 20
0.6815
 30
0.0
 40
0.008
 41
0.008
  0
SEQEND
  8
1_SERA-DSP
  0
POLYLINE
  8
1_SERA-DSP
 66
     1
 10
0.0
 20
0.0
 30
0.0
 70
     0
  0
VERTEX
  8
1_SERA-DSP
 10
0.9875
 20
0.6815
 30
0.0
 40
0.008
 41
0.008
  0
VERTEX
  8
1_SERA-DSP
 10
0.9875
 20
1.0725
 30
0.0
 40
0.008
 41
0.008
  0
VERTEX
  8
1_SERA-DSP
 10
1.252500
 20
1.0725
 30
0.0
 40
0.008
 41
0.008
  0
VERTEX
  8
1_SERA-DSP
 10
1.252500
 20
0.6815
 30
0.0
 40
0.008
 41
0.008
  0
VERTEX
  8
1_SERA-DSP
 10
0.9875
 20
0.6815
 30
0.0
 40
0.008
 41
0.008
  0
SEQEND
  8
1_SERA-DSP
  0
POLYLINE
  8
1_SERA-DSP
 66
     1
 10
0.0
 20
0.0
 30
0.0
 70
     0
  0
VERTEX
  8
1_SERA-DSP
 10
2.52
 20
0.95
 30
0.0
 40
0.008
 41
0.008
  0
VERTEX
  8
1_SERA-DSP
 10
2.47
 20
0.95
 30
0.0
 40
0.008
 41
0.008
  0
VERTEX
  8
1_SERA-DSP
 10
2.47
 20
0.75
 30
0.0
 40
0.008
 41
0.008
  0
VERTEX
  8
1_SERA-DSP
 10
2.52
 20
0.75
 30
0.0
 40
0.008
 41
0.008
  0
VERTEX
  8
1_SERA-DSP
 10
2.57
 20
0.75
 30
0.0
 40
0.008
 41
0.008
  0
VERTEX
  8
1_SERA-DSP
 10
2.57
 20
0.95
 30
0.0
 40
0.008
 41
0.008
  0
VERTEX
  8
1_SERA-DSP
 10
2.52
 20
0.95
 30
0.0
 40
0.008
 41
0.008
  0
VERTEX
  8
1_SERA-DSP
 10
2.52
 20
0.975
 30
0.0
 40
0.008
 41
0.008
  0
SEQEND
  8
1_SERA-DSP
  0
POLYLINE
  8
1_SERA-DSP
 66
     1
 10
0.0
 20
0.0
 30
0.0
 70
     0
  0
VERTEX
  8
1_SERA-DSP
 10
2.52
 20
0.725
 30
0.0
 40
0.008
 41
0.008
  0
VERTEX
  8
1_SERA-DSP
 10
2.52
 20
0.75
 30
0.0
 40
0.008
 41
0.008
  0
SEQEND
  8
1_SERA-DSP
  0
POLYLINE
  8
1_SERA-DSP
 66
     1
 10
0.0
 20
0.0
 30
0.0
 70
     0
  0
VERTEX
  8
1_SERA-DSP
 10
1.38
 20
0.95
 30
0.0
 40
0.008
 41
0.008
  0
VERTEX
  8
1_SERA-DSP
 10
1.33
 20
0.95
 30
0.0
 40
0.008
 41
0.008
  0
VERTEX
  8
1_SERA-DSP
 10
1.33
 20
0.75
 30
0.0
 40
0.008
 41
0.008
  0
VERTEX
  8
1_SERA-DSP
 10
1.38
 20
0.75
 30
0.0
 40
0.008
 41
0.008
  0
VERTEX
  8
1_SERA-DSP
 10
1.43
 20
0.75
 30
0.0
 40
0.008
 41
0.008
  0
VERTEX
  8
1_SERA-DSP
 10
1.43
 20
0.95
 30
0.0
 40
0.008
 41
0.008
  0
VERTEX
  8
1_SERA-DSP
 10
1.38
 20
0.95
 30
0.0
 40
0.008
 41
0.008
  0
VERTEX
  8
1_SERA-DSP
 10
1.38
 20
0.975
 30
0.0
 40
0.008
 41
0.008
  0
SEQEND
  8
1_SERA-DSP
  0
POLYLINE
  8
1_SERA-DSP
 66
     1
 10
0.0
 20
0.0
 30
0.0
 70
     0
  0
VERTEX
  8
1_SERA-DSP
 10
1.38
 20
0.725
 30
0.0
 40
0.008
 41
0.008
  0
VERTEX
  8
1_SERA-DSP
 10
1.38
 20
0.75
 30
0.0
 40
0.008
 41
0.008
  0
SEQEND
  8
1_SERA-DSP
  0
POLYLINE
  8
1_SERA-DSP
 66
     1
 10
0.0
 20
0.0
 30
0.0
 70
     0
  0
VERTEX
  8
1_SERA-DSP
 10
1.95
 20
0.95
 30
0.0
 40
0.008
 41
0.008
  0
VERTEX
  8
1_SERA-DSP
 10
1.9
 20
0.95
 30
0.0
 40
0.008
 41
0.008
  0
VERTEX
  8
1_SERA-DSP
 10
1.9
 20
0.75
 30
0.0
 40
0.008
 41
0.008
  0
VERTEX
  8
1_SERA-DSP
 10
1.95
 20
0.75
 30
0.0
 40
0.008
 41
0.008
  0
VERTEX
  8
1_SERA-DSP
 10
2.0
 20
0.75
 30
0.0
 40
0.008
 41
0.008
  0
VERTEX
  8
1_SERA-DSP
 10
2.0
 20
0.95
 30
0.0
 40
0.008
 41
0.008
  0
VERTEX
  8
1_SERA-DSP
 10
1.95
 20
0.95
 30
0.0
 40
0.008
 41
0.008
  0
VERTEX
  8
1_SERA-DSP
 10
1.95
 20
0.975
 30
0.0
 40
0.008
 41
0.008
  0
SEQEND
  8
1_SERA-DSP
  0
POLYLINE
  8
1_SERA-DSP
 66
     1
 10
0.0
 20
0.0
 30
0.0
 70
     0
  0
VERTEX
  8
1_SERA-DSP
 10
1.95
 20
0.725
 30
0.0
 40
0.008
 41
0.008
  0
VERTEX
  8
1_SERA-DSP
 10
1.95
 20
0.75
 30
0.0
 40
0.008
 41
0.008
  0
SEQEND
  8
1_SERA-DSP
  0
POLYLINE
  8
1_SERA-DSP
 66
     1
 10
0.0
 20
0.0
 30
0.0
 70
     0
  0
VERTEX
  8
1_SERA-DSP
 10
3.8325
 20
0.6815
 30
0.0
 40
0.008
 41
0.008
  0
VERTEX
  8
1_SERA-DSP
 10
3.8325
 20
1.0725
 30
0.0
 40
0.008
 41
0.008
  0
VERTEX
  8
1_SERA-DSP
 10
4.0975
 20
1.0725
 30
0.0
 40
0.008
 41
0.008
  0
VERTEX
  8
1_SERA-DSP
 10
4.0975
 20
0.6815
 30
0.0
 40
0.008
 41
0.008
  0
VERTEX
  8
1_SERA-DSP
 10
3.8325
 20
0.6815
 30
0.0
 40
0.008
 41
0.008
  0
SEQEND
  8
1_SERA-DSP
  0
POLYLINE
  8
1_SERA-DSP
 66
     1
 10
0.0
 20
0.0
 30
0.0
 70
     0
  0
VERTEX
  8
1_SERA-DSP
 10
4.23
 20
0.925
 30
0.0
 40
0.008
 41
0.008
  0
VERTEX
  8
1_SERA-DSP
 10
4.18
 20
0.925
 30
0.0
 40
0.008
 41
0.008
  0
VERTEX
  8
1_SERA-DSP
 10
4.18
 20
0.725
 30
0.0
 40
0.008
 41
0.008
  0
VERTEX
  8
1_SERA-DSP
 10
4.23
 20
0.725
 30
0.0
 40
0.008
 41
0.008
  0
VERTEX
  8
1_SERA-DSP
 10
4.28
 20
0.725
 30
0.0
 40
0.008
 41
0.008
  0
VERTEX
  8
1_SERA-DSP
 10
4.28
 20
0.925
 30
0.0
 40
0.008
 41
0.008
  0
VERTEX
  8
1_SERA-DSP
 10
4.23
 20
0.925
 30
0.0
 40
0.008
 41
0.008
  0
VERTEX
  8
1_SERA-DSP
 10
4.23
 20
0.95
 30
0.0
 40
0.008
 41
0.008
  0
SEQEND
  8
1_SERA-DSP
  0
POLYLINE
  8
1_SERA-DSP
 66
     1
 10
0.0
 20
0.0
 30
0.0
 70
     0
  0
VERTEX
  8
1_SERA-DSP
 10
4.23
 20
0.7
 30
0.0
 40
0.008
 41
0.008
  0
VERTEX
  8
1_SERA-DSP
 10
4.23
 20
0.725
 30
0.0
 40
0.008
 41
0.008
  0
SEQEND
  8
1_SERA-DSP
  0
POLYLINE
  8
1_SERA-DSP
 66
     1
 10
0.0
 20
0.0
 30
0.0
 70
     0
  0
VERTEX
  8
1_SERA-DSP
 10
3.78
 20
1.48
 30
0.0
 40
0.008
 41
0.008
  0
VERTEX
  8
1_SERA-DSP
 10
3.86
 20
1.48
 30
0.0
 40
0.008
 41
0.008
  0
SEQEND
  8
1_SERA-DSP
  0
POLYLINE
  8
1_SERA-DSP
 66
     1
 10
0.0
 20
0.0
 30
0.0
 70
     0
  0
VERTEX
  8
1_SERA-DSP
 10
3.82
 20
1.52
 30
0.0
 40
0.008
 41
0.008
  0
VERTEX
  8
1_SERA-DSP
 10
3.82
 20
1.44
 30
0.0
 40
0.008
 41
0.008
  0
SEQEND
  8
1_SERA-DSP
  0
POLYLINE
  8
1_SERA-DSP
 66
     1
 10
0.0
 20
0.0
 30
0.0
 70
     0
  0
VERTEX
  8
1_SERA-DSP
 10
3.2675
 20
0.6815
 30
0.0
 40
0.008
 41
0.008
  0
VERTEX
  8
1_SERA-DSP
 10
3.2675
 20
1.0725
 30
0.0
 40
0.008
 41
0.008
  0
VERTEX
  8
1_SERA-DSP
 10
3.5325
 20
1.0725
 30
0.0
 40
0.008
 41
0.008
  0
VERTEX
  8
1_SERA-DSP
 10
3.5325
 20
0.6815
 30
0.0
 40
0.008
 41
0.008
  0
VERTEX
  8
1_SERA-DSP
 10
3.2675
 20
0.6815
 30
0.0
 40
0.008
 41
0.008
  0
SEQEND
  8
1_SERA-DSP
  0
POLYLINE
  8
1_SERA-DSP
 66
     1
 10
0.0
 20
0.0
 30
0.0
 70
     0
  0
VERTEX
  8
1_SERA-DSP
 10
2.6975
 20
0.6815
 30
0.0
 40
0.008
 41
0.008
  0
VERTEX
  8
1_SERA-DSP
 10
2.6975
 20
1.0725
 30
0.0
 40
0.008
 41
0.008
  0
VERTEX
  8
1_SERA-DSP
 10
2.962500
 20
1.0725
 30
0.0
 40
0.008
 41
0.008
  0
VERTEX
  8
1_SERA-DSP
 10
2.962500
 20
0.6815
 30
0.0
 40
0.008
 41
0.008
  0
VERTEX
  8
1_SERA-DSP
 10
2.6975
 20
0.6815
 30
0.0
 40
0.008
 41
0.008
  0
SEQEND
  8
1_SERA-DSP
  0
POLYLINE
  8
1_SERA-DSP
 66
     1
 10
0.0
 20
0.0
 30
0.0
 70
     0
  0
VERTEX
  8
1_SERA-DSP
 10
3.66
 20
0.925
 30
0.0
 40
0.008
 41
0.008
  0
VERTEX
  8
1_SERA-DSP
 10
3.61
 20
0.925
 30
0.0
 40
0.008
 41
0.008
  0
VERTEX
  8
1_SERA-DSP
 10
3.61
 20
0.725
 30
0.0
 40
0.008
 41
0.008
  0
VERTEX
  8
1_SERA-DSP
 10
3.66
 20
0.725
 30
0.0
 40
0.008
 41
0.008
  0
VERTEX
  8
1_SERA-DSP
 10
3.71
 20
0.725
 30
0.0
 40
0.008
 41
0.008
  0
VERTEX
  8
1_SERA-DSP
 10
3.71
 20
0.925
 30
0.0
 40
0.008
 41
0.008
  0
VERTEX
  8
1_SERA-DSP
 10
3.66
 20
0.925
 30
0.0
 40
0.008
 41
0.008
  0
VERTEX
  8
1_SERA-DSP
 10
3.66
 20
0.95
 30
0.0
 40
0.008
 41
0.008
  0
SEQEND
  8
1_SERA-DSP
  0
POLYLINE
  8
1_SERA-DSP
 66
     1
 10
0.0
 20
0.0
 30
0.0
 70
     0
  0
VERTEX
  8
1_SERA-DSP
 10
3.66
 20
0.7
 30
0.0
 40
0.008
 41
0.008
  0
VERTEX
  8
1_SERA-DSP
 10
3.66
 20
0.725
 30
0.0
 40
0.008
 41
0.008
  0
SEQEND
  8
1_SERA-DSP
  0
POLYLINE
  8
1_SERA-DSP
 66
     1
 10
0.0
 20
0.0
 30
0.0
 70
     0
  0
VERTEX
  8
1_SERA-DSP
 10
2.127500
 20
0.6815
 30
0.0
 40
0.008
 41
0.008
  0
VERTEX
  8
1_SERA-DSP
 10
2.127500
 20
1.0725
 30
0.0
 40
0.008
 41
0.008
  0
VERTEX
  8
1_SERA-DSP
 10
2.3925
 20
1.0725
 30
0.0
 40
0.008
 41
0.008
  0
VERTEX
  8
1_SERA-DSP
 10
2.3925
 20
0.6815
 30
0.0
 40
0.008
 41
0.008
  0
VERTEX
  8
1_SERA-DSP
 10
2.127500
 20
0.6815
 30
0.0
 40
0.008
 41
0.008
  0
SEQEND
  8
1_SERA-DSP
  0
POLYLINE
  8
1_SERA-DSP
 66
     1
 10
0.0
 20
0.0
 30
0.0
 70
     0
  0
VERTEX
  8
1_SERA-DSP
 10
3.09
 20
0.95
 30
0.0
 40
0.008
 41
0.008
  0
VERTEX
  8
1_SERA-DSP
 10
3.04
 20
0.95
 30
0.0
 40
0.008
 41
0.008
  0
VERTEX
  8
1_SERA-DSP
 10
3.04
 20
0.75
 30
0.0
 40
0.008
 41
0.008
  0
VERTEX
  8
1_SERA-DSP
 10
3.09
 20
0.75
 30
0.0
 40
0.008
 41
0.008
  0
VERTEX
  8
1_SERA-DSP
 10
3.14
 20
0.75
 30
0.0
 40
0.008
 41
0.008
  0
VERTEX
  8
1_SERA-DSP
 10
3.14
 20
0.95
 30
0.0
 40
0.008
 41
0.008
  0
VERTEX
  8
1_SERA-DSP
 10
3.09
 20
0.95
 30
0.0
 40
0.008
 41
0.008
  0
VERTEX
  8
1_SERA-DSP
 10
3.09
 20
0.975
 30
0.0
 40
0.008
 41
0.008
  0
SEQEND
  8
1_SERA-DSP
  0
POLYLINE
  8
1_SERA-DSP
 66
     1
 10
0.0
 20
0.0
 30
0.0
 70
     0
  0
VERTEX
  8
1_SERA-DSP
 10
4.2655
 20
0.6089
 30
0.0
 40
0.01
 41
0.01
  0
VERTEX
  8
1_SERA-DSP
 10
4.238900
 20
0.6089
 30
0.0
 40
0.01
 41
0.01
  0
VERTEX
  8
1_SERA-DSP
 10
4.2344
 20
0.6178
 30
0.0
 40
0.01
 41
0.01
  0
VERTEX
  8
1_SERA-DSP
 10
4.2344
 20
0.6267
 30
0.0
 40
0.01
 41
0.01
  0
VERTEX
  8
1_SERA-DSP
 10
4.238900
 20
0.6355
 30
0.0
 40
0.01
 41
0.01
  0
VERTEX
  8
1_SERA-DSP
 10
4.2655
 20
0.6355
 30
0.0
 40
0.01
 41
0.01
  0
VERTEX
  8
1_SERA-DSP
 10
4.27
 20
0.6267
 30
0.0
 40
0.01
 41
0.01
  0
VERTEX
  8
1_SERA-DSP
 10
4.27
 20
0.6178
 30
0.0
 40
0.01
 41
0.01
  0
VERTEX
  8
1_SERA-DSP
 10
4.252200
 20
0.582200
 30
0.0
 40
0.01
 41
0.01
  0
SEQEND
  8
1_SERA-DSP
  0
POLYLINE
  8
1_SERA-DSP
 66
     1
 10
0.0
 20
0.0
 30
0.0
 70
     0
  0
VERTEX
  8
1_SERA-DSP
 10
4.1833
 20
0.582200
 30
0.0
 40
0.01
 41
0.01
  0
VERTEX
  8
1_SERA-DSP
 10
4.21
 20
0.6355
 30
0.0
 40
0.01
 41
0.01
  0
VERTEX
  8
1_SERA-DSP
 10
4.1744
 20
0.6355
 30
0.0
 40
0.01
 41
0.01
  0
SEQEND
  8
1_SERA-DSP
  0
POLYLINE
  8
1_SERA-DSP
 66
     1
 10
0.0
 20
0.0
 30
0.0
 70
     0
  0
VERTEX
  8
1_SERA-DSP
 10
1.0355
 20
0.6089
 30
0.0
 40
0.01
 41
0.01
  0
VERTEX
  8
1_SERA-DSP
 10
1.04
 20
0.6178
 30
0.0
 40
0.01
 41
0.01
  0
VERTEX
  8
1_SERA-DSP
 10
1.04
 20
0.6267
 30
0.0
 40
0.01
 41
0.01
  0
VERTEX
  8
1_SERA-DSP
 10
1.0355
 20
0.6355
 30
0.0
 40
0.01
 41
0.01
  0
VERTEX
  8
1_SERA-DSP
 10
1.0089
 20
0.6355
 30
0.0
 40
0.01
 41
0.01
  0
VERTEX
  8
1_SERA-DSP
 10
1.004400
 20
0.6267
 30
0.0
 40
0.01
 41
0.01
  0
VERTEX
  8
1_SERA-DSP
 10
1.004400
 20
0.6178
 30
0.0
 40
0.01
 41
0.01
  0
VERTEX
  8
1_SERA-DSP
 10
1.0089
 20
0.6089
 30
0.0
 40
0.01
 41
0.01
  0
VERTEX
  8
1_SERA-DSP
 10
1.0355
 20
0.6089
 30
0.0
 40
0.01
 41
0.01
  0
VERTEX
  8
1_SERA-DSP
 10
1.04
 20
0.6
 30
0.0
 40
0.01
 41
0.01
  0
VERTEX
  8
1_SERA-DSP
 10
1.04
 20
0.5911
 30
0.0
 40
0.01
 41
0.01
  0
VERTEX
  8
1_SERA-DSP
 10
1.0355
 20
0.582200
 30
0.0
 40
0.01
 41
0.01
  0
VERTEX
  8
1_SERA-DSP
 10
1.0089
 20
0.582200
 30
0.0
 40
0.01
 41
0.01
  0
VERTEX
  8
1_SERA-DSP
 10
1.004400
 20
0.5911
 30
0.0
 40
0.01
 41
0.01
  0
VERTEX
  8
1_SERA-DSP
 10
1.004400
 20
0.6
 30
0.0
 40
0.01
 41
0.01
  0
VERTEX
  8
1_SERA-DSP
 10
1.0089
 20
0.6089
 30
0.0
 40
0.01
 41
0.01
  0
SEQEND
  8
1_SERA-DSP
  0
POLYLINE
  8
1_SERA-DSP
 66
     1
 10
0.0
 20
0.0
 30
0.0
 70
     0
  0
VERTEX
  8
1_SERA-DSP
 10
0.953300
 20
0.582200
 30
0.0
 40
0.01
 41
0.01
  0
VERTEX
  8
1_SERA-DSP
 10
0.98
 20
0.6355
 30
0.0
 40
0.01
 41
0.01
  0
VERTEX
  8
1_SERA-DSP
 10
0.9444
 20
0.6355
 30
0.0
 40
0.01
 41
0.01
  0
SEQEND
  8
1_SERA-DSP
  0
POLYLINE
  8
1_SERA-DSP
 66
     1
 10
0.0
 20
0.0
 30
0.0
 70
     0
  0
VERTEX
  8
1_SERA-DSP
 10
4.2433
 20
2.822200
 30
0.0
 40
0.01
 41
0.01
  0
VERTEX
  8
1_SERA-DSP
 10
4.27
 20
2.8755
 30
0.0
 40
0.01
 41
0.01
  0
VERTEX
  8
1_SERA-DSP
 10
4.2344
 20
2.8755
 30
0.0
 40
0.01
 41
0.01
  0
SEQEND
  8
1_SERA-DSP
  0
POLYLINE
  8
1_SERA-DSP
 66
     1
 10
0.0
 20
0.0
 30
0.0
 70
     0
  0
VERTEX
  8
1_SERA-DSP
 10
4.1833
 20
2.822200
 30
0.0
 40
0.01
 41
0.01
  0
VERTEX
  8
1_SERA-DSP
 10
4.21
 20
2.8755
 30
0.0
 40
0.01
 41
0.01
  0
VERTEX
  8
1_SERA-DSP
 10
4.1744
 20
2.8755
 30
0.0
 40
0.01
 41
0.01
  0
SEQEND
  8
1_SERA-DSP
  0
POLYLINE
  8
1_SERA-DSP
 66
     1
 10
0.0
 20
0.0
 30
0.0
 70
     0
  0
VERTEX
  8
1_SERA-DSP
 10
1.0089
 20
2.848900
 30
0.0
 40
0.01
 41
0.01
  0
VERTEX
  8
1_SERA-DSP
 10
1.0355
 20
2.848900
 30
0.0
 40
0.01
 41
0.01
  0
VERTEX
  8
1_SERA-DSP
 10
1.04
 20
2.84
 30
0.0
 40
0.01
 41
0.01
  0
VERTEX
  8
1_SERA-DSP
 10
1.04
 20
2.831100
 30
0.0
 40
0.01
 41
0.01
  0
VERTEX
  8
1_SERA-DSP
 10
1.0355
 20
2.822200
 30
0.0
 40
0.01
 41
0.01
  0
VERTEX
  8
1_SERA-DSP
 10
1.0089
 20
2.822200
 30
0.0
 40
0.01
 41
0.01
  0
VERTEX
  8
1_SERA-DSP
 10
1.004400
 20
2.831100
 30
0.0
 40
0.01
 41
0.01
  0
VERTEX
  8
1_SERA-DSP
 10
1.004400
 20
2.84
 30
0.0
 40
0.01
 41
0.01
  0
VERTEX
  8
1_SERA-DSP
 10
1.0222
 20
2.8755
 30
0.0
 40
0.01
 41
0.01
  0
SEQEND
  8
1_SERA-DSP
  0
POLYLINE
  8
1_SERA-DSP
 66
     1
 10
0.0
 20
0.0
 30
0.0
 70
     0
  0
VERTEX
  8
1_SERA-DSP
 10
0.953300
 20
2.822200
 30
0.0
 40
0.01
 41
0.01
  0
VERTEX
  8
1_SERA-DSP
 10
0.98
 20
2.8755
 30
0.0
 40
0.01
 41
0.01
  0
VERTEX
  8
1_SERA-DSP
 10
0.9444
 20
2.8755
 30
0.0
 40
0.01
 41
0.01
  0
SEQEND
  8
1_SERA-DSP
  0
POLYLINE
  8
1_SERA-DSP
 66
     1
 10
0.0
 20
0.0
 30
0.0
 70
     0
  0
VERTEX
  8
1_SERA-DSP
 10
3.17
 20
0.6
 30
0.0
 40
0.01
 41
0.01
  0
VERTEX
  8
1_SERA-DSP
 10
3.25
 20
0.6
 30
0.0
 40
0.01
 41
0.01
  0
VERTEX
  8
1_SERA-DSP
 10
3.25
 20
0.635
 30
0.0
 40
0.01
 41
0.01
  0
VERTEX
  8
1_SERA-DSP
 10
3.17
 20
0.635
 30
0.0
 40
0.01
 41
0.01
  0
VERTEX
  8
1_SERA-DSP
 10
3.17
 20
0.6
 30
0.0
 40
0.01
 41
0.01
  0
SEQEND
  8
1_SERA-DSP
  0
POLYLINE
  8
1_SERA-DSP
 66
     1
 10
0.0
 20
0.0
 30
0.0
 70
     0
  0
VERTEX
  8
1_SERA-DSP
 10
0.87
 20
2.82
 30
0.0
 40
0.01
 41
0.01
  0
VERTEX
  8
1_SERA-DSP
 10
0.99
 20
2.94
 30
0.0
 40
0.01
 41
0.01
  0
VERTEX
  8
1_SERA-DSP
 10
4.37
 20
2.94
 30
0.0
 40
0.01
 41
0.01
  0
VERTEX
  8
1_SERA-DSP
 10
4.49
 20
2.82
 30
0.0
 40
0.01
 41
0.01
  0
VERTEX
  8
1_SERA-DSP
 10
4.49
 20
2.44
 30
0.0
 40
0.01
 41
0.01
  0
VERTEX
  8
1_SERA-DSP
 10
4.66
 20
2.27
 30
0.0
 40
0.01
 41
0.01
  0
VERTEX
  8
1_SERA-DSP
 10
4.725
 20
2.27
 30
0.0
 40
0.01
 41
0.01
  0
VERTEX
  8
1_SERA-DSP
 10
4.845
 20
2.15
 30
0.0
 40
0.01
 41
0.01
  0
VERTEX
  8
1_SERA-DSP
 10
4.845
 20
1.01
 30
0.0
 40
0.01
 41
0.01
  0
VERTEX
  8
1_SERA-DSP
 10
4.725
 20
0.89
 30
0.0
 40
0.01
 41
0.01
  0
VERTEX
  8
1_SERA-DSP
 10
4.66
 20
0.89
 30
0.0
 40
0.01
 41
0.01
  0
VERTEX
  8
1_SERA-DSP
 10
4.49
 20
0.72
 30
0.0
 40
0.01
 41
0.01
  0
VERTEX
  8
1_SERA-DSP
 10
4.49
 20
0.34
 30
0.0
 40
0.01
 41
0.01
  0
VERTEX
  8
1_SERA-DSP
 10
4.37
 20
0.22
 30
0.0
 40
0.01
 41
0.01
  0
VERTEX
  8
1_SERA-DSP
 10
0.99
 20
0.22
 30
0.0
 40
0.01
 41
0.01
  0
VERTEX
  8
1_SERA-DSP
 10
0.87
 20
0.34
 30
0.0
 40
0.01
 41
0.01
  0
VERTEX
  8
1_SERA-DSP
 10
0.87
 20
0.73
 30
0.0
 40
0.01
 41
0.01
  0
VERTEX
  8
1_SERA-DSP
 10
0.71
 20
0.89
 30
0.0
 40
0.01
 41
0.01
  0
VERTEX
  8
1_SERA-DSP
 10
0.64
 20
0.89
 30
0.0
 40
0.01
 41
0.01
  0
VERTEX
  8
1_SERA-DSP
 10
0.515
 20
1.015
 30
0.0
 40
0.01
 41
0.01
  0
VERTEX
  8
1_SERA-DSP
 10
0.515
 20
2.15
 30
0.0
 40
0.01
 41
0.01
  0
VERTEX
  8
1_SERA-DSP
 10
0.635
 20
2.27
 30
0.0
 40
0.01
 41
0.01
  0
VERTEX
  8
1_SERA-DSP
 10
0.705
 20
2.27
 30
0.0
 40
0.01
 41
0.01
  0
VERTEX
  8
1_SERA-DSP
 10
0.87
 20
2.435
 30
0.0
 40
0.01
 41
0.01
  0
VERTEX
  8
1_SERA-DSP
 10
0.87
 20
2.82
 30
0.0
 40
0.01
 41
0.01
  0
SEQEND
  8
1_SERA-DSP
  0
POLYLINE
  8
1_SERA-DSP
 66
     1
 10
0.0
 20
0.0
 30
0.0
 70
     0
  0
VERTEX
  8
1_SERA-DSP
 10
1.69
 20
0.795
 30
0.0
 40
0.01
 41
0.01
  0
VERTEX
  8
1_SERA-DSP
 10
1.703892
 20
0.796215
 30
0.0
 40
0.01
 41
0.01
  0
VERTEX
  8
1_SERA-DSP
 10
1.717362
 20
0.799825
 30
0.0
 40
0.01
 41
0.01
  0
VERTEX
  8
1_SERA-DSP
 10
1.73
 20
0.805718
 30
0.0
 40
0.01
 41
0.01
  0
VERTEX
  8
1_SERA-DSP
 10
1.741423
 20
0.813716
 30
0.0
 40
0.01
 41
0.01
  0
VERTEX
  8
1_SERA-DSP
 10
1.751284
 20
0.823577
 30
0.0
 40
0.01
 41
0.01
  0
VERTEX
  8
1_SERA-DSP
 10
1.759282
 20
0.835
 30
0.0
 40
0.01
 41
0.01
  0
VERTEX
  8
1_SERA-DSP
 10
1.765175
 20
0.847638
 30
0.0
 40
0.01
 41
0.01
  0
VERTEX
  8
1_SERA-DSP
 10
1.77
 20
0.875
 30
0.0
 40
0.01
 41
0.01
  0
SEQEND
  8
1_SERA-DSP
  0
POLYLINE
  8
1_SERA-DSP
 66
     1
 10
0.0
 20
0.0
 30
0.0
 70
     0
  0
VERTEX
  8
1_SERA-DSP
 10
1.61
 20
0.875
 30
0.0
 40
0.01
 41
0.01
  0
VERTEX
  8
1_SERA-DSP
 10
1.611215
 20
0.861108
 30
0.0
 40
0.01
 41
0.01
  0
VERTEX
  8
1_SERA-DSP
 10
1.614825
 20
0.847638
 30
0.0
 40
0.01
 41
0.01
  0
VERTEX
  8
1_SERA-DSP
 10
1.620718
 20
0.835
 30
0.0
 40
0.01
 41
0.01
  0
VERTEX
  8
1_SERA-DSP
 10
1.628716
 20
0.823577
 30
0.0
 40
0.01
 41
0.01
  0
VERTEX
  8
1_SERA-DSP
 10
1.638577
 20
0.813716
 30
0.0
 40
0.01
 41
0.01
  0
VERTEX
  8
1_SERA-DSP
 10
1.65
 20
0.805718
 30
0.0
 40
0.01
 41
0.01
  0
VERTEX
  8
1_SERA-DSP
 10
1.662638
 20
0.799825
 30
0.0
 40
0.01
 41
0.01
  0
VERTEX
  8
1_SERA-DSP
 10
1.676108
 20
0.796215
 30
0.0
 40
0.01
 41
0.01
  0
VERTEX
  8
1_SERA-DSP
 10
1.69
 20
0.795
 30
0.0
 40
0.01
 41
0.01
  0
SEQEND
  8
1_SERA-DSP
  0
POLYLINE
  8
1_SERA-DSP
 66
     1
 10
0.0
 20
0.0
 30
0.0
 70
     0
  0
VERTEX
  8
1_SERA-DSP
 10
1.69
 20
0.955
 30
0.0
 40
0.01
 41
0.01
  0
VERTEX
  8
1_SERA-DSP
 10
1.676108
 20
0.953785
 30
0.0
 40
0.01
 41
0.01
  0
VERTEX
  8
1_SERA-DSP
 10
1.662638
 20
0.950175
 30
0.0
 40
0.01
 41
0.01
  0
VERTEX
  8
1_SERA-DSP
 10
1.65
 20
0.944282
 30
0.0
 40
0.01
 41
0.01
  0
VERTEX
  8
1_SERA-DSP
 10
1.638577
 20
0.936284
 30
0.0
 40
0.01
 41
0.01
  0
VERTEX
  8
1_SERA-DSP
 10
1.628716
 20
0.926423
 30
0.0
 40
0.01
 41
0.01
  0
VERTEX
  8
1_SERA-DSP
 10
1.620718
 20
0.915
 30
0.0
 40
0.01
 41
0.01
  0
VERTEX
  8
1_SERA-DSP
 10
1.614825
 20
0.902362
 30
0.0
 40
0.01
 41
0.01
  0
VERTEX
  8
1_SERA-DSP
 10
1.611215
 20
0.888892
 30
0.0
 40
0.01
 41
0.01
  0
VERTEX
  8
1_SERA-DSP
 10
1.61
 20
0.875
 30
0.0
 40
0.01
 41
0.01
  0
SEQEND
  8
1_SERA-DSP
  0
POLYLINE
  8
1_SERA-DSP
 66
     1
 10
0.0
 20
0.0
 30
0.0
 70
     0
  0
VERTEX
  8
1_SERA-DSP
 10
1.77
 20
0.875
 30
0.0
 40
0.01
 41
0.01
  0
VERTEX
  8
1_SERA-DSP
 10
1.768785
 20
0.888892
 30
0.0
 40
0.01
 41
0.01
  0
VERTEX
  8
1_SERA-DSP
 10
1.765175
 20
0.902362
 30
0.0
 40
0.01
 41
0.01
  0
VERTEX
  8
1_SERA-DSP
 10
1.759282
 20
0.915
 30
0.0
 40
0.01
 41
0.01
  0
VERTEX
  8
1_SERA-DSP
 10
1.751284
 20
0.926423
 30
0.0
 40
0.01
 41
0.01
  0
VERTEX
  8
1_SERA-DSP
 10
1.741423
 20
0.936284
 30
0.0
 40
0.01
 41
0.01
  0
VERTEX
  8
1_SERA-DSP
 10
1.73
 20
0.944282
 30
0.0
 40
0.01
 41
0.01
  0
VERTEX
  8
1_SERA-DSP
 10
1.717362
 20
0.950175
 30
0.0
 40
0.01
 41
0.01
  0
VERTEX
  8
1_SERA-DSP
 10
1.703892
 20
0.953785
 30
0.0
 40
0.01
 41
0.01
  0
VERTEX
  8
1_SERA-DSP
 10
1.69
 20
0.955
 30
0.0
 40
0.01
 41
0.01
  0
SEQEND
  8
1_SERA-DSP
  0
POLYLINE
  8
1_SERA-DSP
 66
     1
 10
0.0
 20
0.0
 30
0.0
 70
     0
  0
VERTEX
  8
1_SERA-DSP
 10
1.125
 20
0.795
 30
0.0
 40
0.01
 41
0.01
  0
VERTEX
  8
1_SERA-DSP
 10
1.138892
 20
0.796215
 30
0.0
 40
0.01
 41
0.01
  0
VERTEX
  8
1_SERA-DSP
 10
1.152362
 20
0.799825
 30
0.0
 40
0.01
 41
0.01
  0
VERTEX
  8
1_SERA-DSP
 10
1.165
 20
0.805718
 30
0.0
 40
0.01
 41
0.01
  0
VERTEX
  8
1_SERA-DSP
 10
1.176423
 20
0.813716
 30
0.0
 40
0.01
 41
0.01
  0
VERTEX
  8
1_SERA-DSP
 10
1.186284
 20
0.823577
 30
0.0
 40
0.01
 41
0.01
  0
VERTEX
  8
1_SERA-DSP
 10
1.194282
 20
0.835
 30
0.0
 40
0.01
 41
0.01
  0
VERTEX
  8
1_SERA-DSP
 10
1.200175
 20
0.847638
 30
0.0
 40
0.01
 41
0.01
  0
VERTEX
  8
1_SERA-DSP
 10
1.205
 20
0.875
 30
0.0
 40
0.01
 41
0.01
  0
SEQEND
  8
1_SERA-DSP
  0
POLYLINE
  8
1_SERA-DSP
 66
     1
 10
0.0
 20
0.0
 30
0.0
 70
     0
  0
VERTEX
  8
1_SERA-DSP
 10
1.045
 20
0.875
 30
0.0
 40
0.01
 41
0.01
  0
VERTEX
  8
1_SERA-DSP
 10
1.046215
 20
0.861108
 30
0.0
 40
0.01
 41
0.01
  0
VERTEX
  8
1_SERA-DSP
 10
1.049825
 20
0.847638
 30
0.0
 40
0.01
 41
0.01
  0
VERTEX
  8
1_SERA-DSP
 10
1.055718
 20
0.835
 30
0.0
 40
0.01
 41
0.01
  0
VERTEX
  8
1_SERA-DSP
 10
1.063716
 20
0.823577
 30
0.0
 40
0.01
 41
0.01
  0
VERTEX
  8
1_SERA-DSP
 10
1.073577
 20
0.813716
 30
0.0
 40
0.01
 41
0.01
  0
VERTEX
  8
1_SERA-DSP
 10
1.085
 20
0.805718
 30
0.0
 40
0.01
 41
0.01
  0
VERTEX
  8
1_SERA-DSP
 10
1.097638
 20
0.799825
 30
0.0
 40
0.01
 41
0.01
  0
VERTEX
  8
1_SERA-DSP
 10
1.111108
 20
0.796215
 30
0.0
 40
0.01
 41
0.01
  0
VERTEX
  8
1_SERA-DSP
 10
1.125
 20
0.795
 30
0.0
 40
0.01
 41
0.01
  0
SEQEND
  8
1_SERA-DSP
  0
POLYLINE
  8
1_SERA-DSP
 66
     1
 10
0.0
 20
0.0
 30
0.0
 70
     0
  0
VERTEX
  8
1_SERA-DSP
 10
1.125
 20
0.955
 30
0.0
 40
0.01
 41
0.01
  0
VERTEX
  8
1_SERA-DSP
 10
1.111108
 20
0.953785
 30
0.0
 40
0.01
 41
0.01
  0
VERTEX
  8
1_SERA-DSP
 10
1.097638
 20
0.950175
 30
0.0
 40
0.01
 41
0.01
  0
VERTEX
  8
1_SERA-DSP
 10
1.085
 20
0.944282
 30
0.0
 40
0.01
 41
0.01
  0
VERTEX
  8
1_SERA-DSP
 10
1.073577
 20
0.936284
 30
0.0
 40
0.01
 41
0.01
  0
VERTEX
  8
1_SERA-DSP
 10
1.063716
 20
0.926423
 30
0.0
 40
0.01
 41
0.01
  0
VERTEX
  8
1_SERA-DSP
 10
1.055718
 20
0.915
 30
0.0
 40
0.01
 41
0.01
  0
VERTEX
  8
1_SERA-DSP
 10
1.049825
 20
0.902362
 30
0.0
 40
0.01
 41
0.01
  0
VERTEX
  8
1_SERA-DSP
 10
1.046215
 20
0.888892
 30
0.0
 40
0.01
 41
0.01
  0
VERTEX
  8
1_SERA-DSP
 10
1.045
 20
0.875
 30
0.0
 40
0.01
 41
0.01
  0
SEQEND
  8
1_SERA-DSP
  0
POLYLINE
  8
1_SERA-DSP
 66
     1
 10
0.0
 20
0.0
 30
0.0
 70
     0
  0
VERTEX
  8
1_SERA-DSP
 10
1.205
 20
0.875
 30
0.0
 40
0.01
 41
0.01
  0
VERTEX
  8
1_SERA-DSP
 10
1.203785
 20
0.888892
 30
0.0
 40
0.01
 41
0.01
  0
VERTEX
  8
1_SERA-DSP
 10
1.200175
 20
0.902362
 30
0.0
 40
0.01
 41
0.01
  0
VERTEX
  8
1_SERA-DSP
 10
1.194282
 20
0.915
 30
0.0
 40
0.01
 41
0.01
  0
VERTEX
  8
1_SERA-DSP
 10
1.186284
 20
0.926423
 30
0.0
 40
0.01
 41
0.01
  0
VERTEX
  8
1_SERA-DSP
 10
1.176423
 20
0.936284
 30
0.0
 40
0.01
 41
0.01
  0
VERTEX
  8
1_SERA-DSP
 10
1.165
 20
0.944282
 30
0.0
 40
0.01
 41
0.01
  0
VERTEX
  8
1_SERA-DSP
 10
1.152362
 20
0.950175
 30
0.0
 40
0.01
 41
0.01
  0
VERTEX
  8
1_SERA-DSP
 10
1.138892
 20
0.953785
 30
0.0
 40
0.01
 41
0.01
  0
VERTEX
  8
1_SERA-DSP
 10
1.125
 20
0.955
 30
0.0
 40
0.01
 41
0.01
  0
SEQEND
  8
1_SERA-DSP
  0
POLYLINE
  8
1_SERA-DSP
 66
     1
 10
0.0
 20
0.0
 30
0.0
 70
     0
  0
VERTEX
  8
1_SERA-DSP
 10
3.97
 20
0.795
 30
0.0
 40
0.01
 41
0.01
  0
VERTEX
  8
1_SERA-DSP
 10
3.983892
 20
0.796215
 30
0.0
 40
0.01
 41
0.01
  0
VERTEX
  8
1_SERA-DSP
 10
3.997362
 20
0.799825
 30
0.0
 40
0.01
 41
0.01
  0
VERTEX
  8
1_SERA-DSP
 10
4.01
 20
0.805718
 30
0.0
 40
0.01
 41
0.01
  0
VERTEX
  8
1_SERA-DSP
 10
4.021423
 20
0.813716
 30
0.0
 40
0.01
 41
0.01
  0
VERTEX
  8
1_SERA-DSP
 10
4.031284
 20
0.823577
 30
0.0
 40
0.01
 41
0.01
  0
VERTEX
  8
1_SERA-DSP
 10
4.039282
 20
0.835
 30
0.0
 40
0.01
 41
0.01
  0
VERTEX
  8
1_SERA-DSP
 10
4.045175
 20
0.847638
 30
0.0
 40
0.01
 41
0.01
  0
VERTEX
  8
1_SERA-DSP
 10
4.05
 20
0.875
 30
0.0
 40
0.01
 41
0.01
  0
SEQEND
  8
1_SERA-DSP
  0
POLYLINE
  8
1_SERA-DSP
 66
     1
 10
0.0
 20
0.0
 30
0.0
 70
     0
  0
VERTEX
  8
1_SERA-DSP
 10
3.89
 20
0.875
 30
0.0
 40
0.01
 41
0.01
  0
VERTEX
  8
1_SERA-DSP
 10
3.891215
 20
0.861108
 30
0.0
 40
0.01
 41
0.01
  0
VERTEX
  8
1_SERA-DSP
 10
3.894825
 20
0.847638
 30
0.0
 40
0.01
 41
0.01
  0
VERTEX
  8
1_SERA-DSP
 10
3.900718
 20
0.835
 30
0.0
 40
0.01
 41
0.01
  0
VERTEX
  8
1_SERA-DSP
 10
3.908716
 20
0.823577
 30
0.0
 40
0.01
 41
0.01
  0
VERTEX
  8
1_SERA-DSP
 10
3.918577
 20
0.813716
 30
0.0
 40
0.01
 41
0.01
  0
VERTEX
  8
1_SERA-DSP
 10
3.93
 20
0.805718
 30
0.0
 40
0.01
 41
0.01
  0
VERTEX
  8
1_SERA-DSP
 10
3.942638
 20
0.799825
 30
0.0
 40
0.01
 41
0.01
  0
VERTEX
  8
1_SERA-DSP
 10
3.956108
 20
0.796215
 30
0.0
 40
0.01
 41
0.01
  0
VERTEX
  8
1_SERA-DSP
 10
3.97
 20
0.795
 30
0.0
 40
0.01
 41
0.01
  0
SEQEND
  8
1_SERA-DSP
  0
POLYLINE
  8
1_SERA-DSP
 66
     1
 10
0.0
 20
0.0
 30
0.0
 70
     0
  0
VERTEX
  8
1_SERA-DSP
 10
3.97
 20
0.955
 30
0.0
 40
0.01
 41
0.01
  0
VERTEX
  8
1_SERA-DSP
 10
3.956108
 20
0.953785
 30
0.0
 40
0.01
 41
0.01
  0
VERTEX
  8
1_SERA-DSP
 10
3.942638
 20
0.950175
 30
0.0
 40
0.01
 41
0.01
  0
VERTEX
  8
1_SERA-DSP
 10
3.93
 20
0.944282
 30
0.0
 40
0.01
 41
0.01
  0
VERTEX
  8
1_SERA-DSP
 10
3.918577
 20
0.936284
 30
0.0
 40
0.01
 41
0.01
  0
VERTEX
  8
1_SERA-DSP
 10
3.908716
 20
0.926423
 30
0.0
 40
0.01
 41
0.01
  0
VERTEX
  8
1_SERA-DSP
 10
3.900718
 20
0.915
 30
0.0
 40
0.01
 41
0.01
  0
VERTEX
  8
1_SERA-DSP
 10
3.894825
 20
0.902362
 30
0.0
 40
0.01
 41
0.01
  0
VERTEX
  8
1_SERA-DSP
 10
3.891215
 20
0.888892
 30
0.0
 40
0.01
 41
0.01
  0
VERTEX
  8
1_SERA-DSP
 10
3.89
 20
0.875
 30
0.0
 40
0.01
 41
0.01
  0
SEQEND
  8
1_SERA-DSP
  0
POLYLINE
  8
1_SERA-DSP
 66
     1
 10
0.0
 20
0.0
 30
0.0
 70
     0
  0
VERTEX
  8
1_SERA-DSP
 10
4.05
 20
0.875
 30
0.0
 40
0.01
 41
0.01
  0
VERTEX
  8
1_SERA-DSP
 10
4.048785
 20
0.888892
 30
0.0
 40
0.01
 41
0.01
  0
VERTEX
  8
1_SERA-DSP
 10
4.045175
 20
0.902362
 30
0.0
 40
0.01
 41
0.01
  0
VERTEX
  8
1_SERA-DSP
 10
4.039282
 20
0.915
 30
0.0
 40
0.01
 41
0.01
  0
VERTEX
  8
1_SERA-DSP
 10
4.031284
 20
0.926423
 30
0.0
 40
0.01
 41
0.01
  0
VERTEX
  8
1_SERA-DSP
 10
4.021423
 20
0.936284
 30
0.0
 40
0.01
 41
0.01
  0
VERTEX
  8
1_SERA-DSP
 10
4.01
 20
0.944282
 30
0.0
 40
0.01
 41
0.01
  0
VERTEX
  8
1_SERA-DSP
 10
3.997362
 20
0.950175
 30
0.0
 40
0.01
 41
0.01
  0
VERTEX
  8
1_SERA-DSP
 10
3.983892
 20
0.953785
 30
0.0
 40
0.01
 41
0.01
  0
VERTEX
  8
1_SERA-DSP
 10
3.97
 20
0.955
 30
0.0
 40
0.01
 41
0.01
  0
SEQEND
  8
1_SERA-DSP
  0
POLYLINE
  8
1_SERA-DSP
 66
     1
 10
0.0
 20
0.0
 30
0.0
 70
     0
  0
VERTEX
  8
1_SERA-DSP
 10
3.4
 20
0.795
 30
0.0
 40
0.01
 41
0.01
  0
VERTEX
  8
1_SERA-DSP
 10
3.413892
 20
0.796215
 30
0.0
 40
0.01
 41
0.01
  0
VERTEX
  8
1_SERA-DSP
 10
3.427362
 20
0.799825
 30
0.0
 40
0.01
 41
0.01
  0
VERTEX
  8
1_SERA-DSP
 10
3.44
 20
0.805718
 30
0.0
 40
0.01
 41
0.01
  0
VERTEX
  8
1_SERA-DSP
 10
3.451423
 20
0.813716
 30
0.0
 40
0.01
 41
0.01
  0
VERTEX
  8
1_SERA-DSP
 10
3.461284
 20
0.823577
 30
0.0
 40
0.01
 41
0.01
  0
VERTEX
  8
1_SERA-DSP
 10
3.469282
 20
0.835
 30
0.0
 40
0.01
 41
0.01
  0
VERTEX
  8
1_SERA-DSP
 10
3.475175
 20
0.847638
 30
0.0
 40
0.01
 41
0.01
  0
VERTEX
  8
1_SERA-DSP
 10
3.48
 20
0.875
 30
0.0
 40
0.01
 41
0.01
  0
SEQEND
  8
1_SERA-DSP
  0
POLYLINE
  8
1_SERA-DSP
 66
     1
 10
0.0
 20
0.0
 30
0.0
 70
     0
  0
VERTEX
  8
1_SERA-DSP
 10
3.32
 20
0.875
 30
0.0
 40
0.01
 41
0.01
  0
VERTEX
  8
1_SERA-DSP
 10
3.321215
 20
0.861108
 30
0.0
 40
0.01
 41
0.01
  0
VERTEX
  8
1_SERA-DSP
 10
3.324825
 20
0.847638
 30
0.0
 40
0.01
 41
0.01
  0
VERTEX
  8
1_SERA-DSP
 10
3.330718
 20
0.835
 30
0.0
 40
0.01
 41
0.01
  0
VERTEX
  8
1_SERA-DSP
 10
3.338716
 20
0.823577
 30
0.0
 40
0.01
 41
0.01
  0
VERTEX
  8
1_SERA-DSP
 10
3.348577
 20
0.813716
 30
0.0
 40
0.01
 41
0.01
  0
VERTEX
  8
1_SERA-DSP
 10
3.36
 20
0.805718
 30
0.0
 40
0.01
 41
0.01
  0
VERTEX
  8
1_SERA-DSP
 10
3.372638
 20
0.799825
 30
0.0
 40
0.01
 41
0.01
  0
VERTEX
  8
1_SERA-DSP
 10
3.386108
 20
0.796215
 30
0.0
 40
0.01
 41
0.01
  0
VERTEX
  8
1_SERA-DSP
 10
3.4
 20
0.795
 30
0.0
 40
0.01
 41
0.01
  0
SEQEND
  8
1_SERA-DSP
  0
POLYLINE
  8
1_SERA-DSP
 66
     1
 10
0.0
 20
0.0
 30
0.0
 70
     0
  0
VERTEX
  8
1_SERA-DSP
 10
3.4
 20
0.955
 30
0.0
 40
0.01
 41
0.01
  0
VERTEX
  8
1_SERA-DSP
 10
3.386108
 20
0.953785
 30
0.0
 40
0.01
 41
0.01
  0
VERTEX
  8
1_SERA-DSP
 10
3.372638
 20
0.950175
 30
0.0
 40
0.01
 41
0.01
  0
VERTEX
  8
1_SERA-DSP
 10
3.36
 20
0.944282
 30
0.0
 40
0.01
 41
0.01
  0
VERTEX
  8
1_SERA-DSP
 10
3.348577
 20
0.936284
 30
0.0
 40
0.01
 41
0.01
  0
VERTEX
  8
1_SERA-DSP
 10
3.338716
 20
0.926423
 30
0.0
 40
0.01
 41
0.01
  0
VERTEX
  8
1_SERA-DSP
 10
3.330718
 20
0.915
 30
0.0
 40
0.01
 41
0.01
  0
VERTEX
  8
1_SERA-DSP
 10
3.324825
 20
0.902362
 30
0.0
 40
0.01
 41
0.01
  0
VERTEX
  8
1_SERA-DSP
 10
3.321215
 20
0.888892
 30
0.0
 40
0.01
 41
0.01
  0
VERTEX
  8
1_SERA-DSP
 10
3.32
 20
0.875
 30
0.0
 40
0.01
 41
0.01
  0
SEQEND
  8
1_SERA-DSP
  0
POLYLINE
  8
1_SERA-DSP
 66
     1
 10
0.0
 20
0.0
 30
0.0
 70
     0
  0
VERTEX
  8
1_SERA-DSP
 10
3.48
 20
0.875
 30
0.0
 40
0.01
 41
0.01
  0
VERTEX
  8
1_SERA-DSP
 10
3.478785
 20
0.888892
 30
0.0
 40
0.01
 41
0.01
  0
VERTEX
  8
1_SERA-DSP
 10
3.475175
 20
0.902362
 30
0.0
 40
0.01
 41
0.01
  0
VERTEX
  8
1_SERA-DSP
 10
3.469282
 20
0.915
 30
0.0
 40
0.01
 41
0.01
  0
VERTEX
  8
1_SERA-DSP
 10
3.461284
 20
0.926423
 30
0.0
 40
0.01
 41
0.01
  0
VERTEX
  8
1_SERA-DSP
 10
3.451423
 20
0.936284
 30
0.0
 40
0.01
 41
0.01
  0
VERTEX
  8
1_SERA-DSP
 10
3.44
 20
0.944282
 30
0.0
 40
0.01
 41
0.01
  0
VERTEX
  8
1_SERA-DSP
 10
3.427362
 20
0.950175
 30
0.0
 40
0.01
 41
0.01
  0
VERTEX
  8
1_SERA-DSP
 10
3.413892
 20
0.953785
 30
0.0
 40
0.01
 41
0.01
  0
VERTEX
  8
1_SERA-DSP
 10
3.4
 20
0.955
 30
0.0
 40
0.01
 41
0.01
  0
SEQEND
  8
1_SERA-DSP
  0
POLYLINE
  8
1_SERA-DSP
 66
     1
 10
0.0
 20
0.0
 30
0.0
 70
     0
  0
VERTEX
  8
1_SERA-DSP
 10
4.61
 20
1.7975
 30
0.0
 40
0.01
 41
0.01
  0
VERTEX
  8
1_SERA-DSP
 10
4.596542
 20
1.796323
 30
0.0
 40
0.01
 41
0.01
  0
VERTEX
  8
1_SERA-DSP
 10
4.583493
 20
1.792826
 30
0.0
 40
0.01
 41
0.01
  0
VERTEX
  8
1_SERA-DSP
 10
4.57125
 20
1.787117
 30
0.0
 40
0.01
 41
0.01
  0
VERTEX
  8
1_SERA-DSP
 10
4.560184
 20
1.779368
 30
0.0
 40
0.01
 41
0.01
  0
VERTEX
  8
1_SERA-DSP
 10
4.550632
 20
1.769816
 30
0.0
 40
0.01
 41
0.01
  0
VERTEX
  8
1_SERA-DSP
 10
4.542883
 20
1.758750
 30
0.0
 40
0.01
 41
0.01
  0
VERTEX
  8
1_SERA-DSP
 10
4.537174
 20
1.746507
 30
0.0
 40
0.01
 41
0.01
  0
VERTEX
  8
1_SERA-DSP
 10
4.533677
 20
1.733458
 30
0.0
 40
0.01
 41
0.01
  0
VERTEX
  8
1_SERA-DSP
 10
4.5325
 20
1.72
 30
0.0
 40
0.01
 41
0.01
  0
SEQEND
  8
1_SERA-DSP
  0
POLYLINE
  8
1_SERA-DSP
 66
     1
 10
0.0
 20
0.0
 30
0.0
 70
     0
  0
VERTEX
  8
1_SERA-DSP
 10
4.6875
 20
1.72
 30
0.0
 40
0.01
 41
0.01
  0
VERTEX
  8
1_SERA-DSP
 10
4.686323
 20
1.733458
 30
0.0
 40
0.01
 41
0.01
  0
VERTEX
  8
1_SERA-DSP
 10
4.682826
 20
1.746507
 30
0.0
 40
0.01
 41
0.01
  0
VERTEX
  8
1_SERA-DSP
 10
4.677117
 20
1.758750
 30
0.0
 40
0.01
 41
0.01
  0
VERTEX
  8
1_SERA-DSP
 10
4.669368
 20
1.769816
 30
0.0
 40
0.01
 41
0.01
  0
VERTEX
  8
1_SERA-DSP
 10
4.659816
 20
1.779368
 30
0.0
 40
0.01
 41
0.01
  0
VERTEX
  8
1_SERA-DSP
 10
4.648750
 20
1.787117
 30
0.0
 40
0.01
 41
0.01
  0
VERTEX
  8
1_SERA-DSP
 10
4.636507
 20
1.792826
 30
0.0
 40
0.01
 41
0.01
  0
VERTEX
  8
1_SERA-DSP
 10
4.623458
 20
1.796323
 30
0.0
 40
0.01
 41
0.01
  0
VERTEX
  8
1_SERA-DSP
 10
4.61
 20
1.7975
 30
0.0
 40
0.01
 41
0.01
  0
SEQEND
  8
1_SERA-DSP
  0
POLYLINE
  8
1_SERA-DSP
 66
     1
 10
0.0
 20
0.0
 30
0.0
 70
     0
  0
VERTEX
  8
1_SERA-DSP
 10
4.61
 20
1.6425
 30
0.0
 40
0.01
 41
0.01
  0
VERTEX
  8
1_SERA-DSP
 10
4.623458
 20
1.643677
 30
0.0
 40
0.01
 41
0.01
  0
VERTEX
  8
1_SERA-DSP
 10
4.636507
 20
1.647174
 30
0.0
 40
0.01
 41
0.01
  0
VERTEX
  8
1_SERA-DSP
 10
4.648750
 20
1.652883
 30
0.0
 40
0.01
 41
0.01
  0
VERTEX
  8
1_SERA-DSP
 10
4.659816
 20
1.660632
 30
0.0
 40
0.01
 41
0.01
  0
VERTEX
  8
1_SERA-DSP
 10
4.669368
 20
1.670184
 30
0.0
 40
0.01
 41
0.01
  0
VERTEX
  8
1_SERA-DSP
 10
4.677117
 20
1.68125
 30
0.0
 40
0.01
 41
0.01
  0
VERTEX
  8
1_SERA-DSP
 10
4.682826
 20
1.693493
 30
0.0
 40
0.01
 41
0.01
  0
VERTEX
  8
1_SERA-DSP
 10
4.6875
 20
1.72
 30
0.0
 40
0.01
 41
0.01
  0
SEQEND
  8
1_SERA-DSP
  0
POLYLINE
  8
1_SERA-DSP
 66
     1
 10
0.0
 20
0.0
 30
0.0
 70
     0
  0
VERTEX
  8
1_SERA-DSP
 10
4.5325
 20
1.72
 30
0.0
 40
0.01
 41
0.01
  0
VERTEX
  8
1_SERA-DSP
 10
4.533677
 20
1.706542
 30
0.0
 40
0.01
 41
0.01
  0
VERTEX
  8
1_SERA-DSP
 10
4.537174
 20
1.693493
 30
0.0
 40
0.01
 41
0.01
  0
VERTEX
  8
1_SERA-DSP
 10
4.542883
 20
1.68125
 30
0.0
 40
0.01
 41
0.01
  0
VERTEX
  8
1_SERA-DSP
 10
4.550632
 20
1.670184
 30
0.0
 40
0.01
 41
0.01
  0
VERTEX
  8
1_SERA-DSP
 10
4.560184
 20
1.660632
 30
0.0
 40
0.01
 41
0.01
  0
VERTEX
  8
1_SERA-DSP
 10
4.571250
 20
1.652883
 30
0.0
 40
0.01
 41
0.01
  0
VERTEX
  8
1_SERA-DSP
 10
4.583493
 20
1.647174
 30
0.0
 40
0.01
 41
0.01
  0
VERTEX
  8
1_SERA-DSP
 10
4.596542
 20
1.643677
 30
0.0
 40
0.01
 41
0.01
  0
VERTEX
  8
1_SERA-DSP
 10
4.61
 20
1.6425
 30
0.0
 40
0.01
 41
0.01
  0
SEQEND
  8
1_SERA-DSP
  0
POLYLINE
  8
1_SERA-DSP
 66
     1
 10
0.0
 20
0.0
 30
0.0
 70
     0
  0
VERTEX
  8
1_SERA-DSP
 10
4.61
 20
1.9975
 30
0.0
 40
0.01
 41
0.01
  0
VERTEX
  8
1_SERA-DSP
 10
4.596542
 20
1.996323
 30
0.0
 40
0.01
 41
0.01
  0
VERTEX
  8
1_SERA-DSP
 10
4.583493
 20
1.992826
 30
0.0
 40
0.01
 41
0.01
  0
VERTEX
  8
1_SERA-DSP
 10
4.57125
 20
1.987117
 30
0.0
 40
0.01
 41
0.01
  0
VERTEX
  8
1_SERA-DSP
 10
4.560184
 20
1.979368
 30
0.0
 40
0.01
 41
0.01
  0
VERTEX
  8
1_SERA-DSP
 10
4.550632
 20
1.969816
 30
0.0
 40
0.01
 41
0.01
  0
VERTEX
  8
1_SERA-DSP
 10
4.542883
 20
1.958750
 30
0.0
 40
0.01
 41
0.01
  0
VERTEX
  8
1_SERA-DSP
 10
4.537174
 20
1.946507
 30
0.0
 40
0.01
 41
0.01
  0
VERTEX
  8
1_SERA-DSP
 10
4.533677
 20
1.933458
 30
0.0
 40
0.01
 41
0.01
  0
VERTEX
  8
1_SERA-DSP
 10
4.5325
 20
1.92
 30
0.0
 40
0.01
 41
0.01
  0
SEQEND
  8
1_SERA-DSP
  0
POLYLINE
  8
1_SERA-DSP
 66
     1
 10
0.0
 20
0.0
 30
0.0
 70
     0
  0
VERTEX
  8
1_SERA-DSP
 10
4.6875
 20
1.92
 30
0.0
 40
0.01
 41
0.01
  0
VERTEX
  8
1_SERA-DSP
 10
4.686323
 20
1.933458
 30
0.0
 40
0.01
 41
0.01
  0
VERTEX
  8
1_SERA-DSP
 10
4.682826
 20
1.946507
 30
0.0
 40
0.01
 41
0.01
  0
VERTEX
  8
1_SERA-DSP
 10
4.677117
 20
1.958750
 30
0.0
 40
0.01
 41
0.01
  0
VERTEX
  8
1_SERA-DSP
 10
4.669368
 20
1.969816
 30
0.0
 40
0.01
 41
0.01
  0
VERTEX
  8
1_SERA-DSP
 10
4.659816
 20
1.979368
 30
0.0
 40
0.01
 41
0.01
  0
VERTEX
  8
1_SERA-DSP
 10
4.648750
 20
1.987117
 30
0.0
 40
0.01
 41
0.01
  0
VERTEX
  8
1_SERA-DSP
 10
4.636507
 20
1.992826
 30
0.0
 40
0.01
 41
0.01
  0
VERTEX
  8
1_SERA-DSP
 10
4.623458
 20
1.996323
 30
0.0
 40
0.01
 41
0.01
  0
VERTEX
  8
1_SERA-DSP
 10
4.61
 20
1.9975
 30
0.0
 40
0.01
 41
0.01
  0
SEQEND
  8
1_SERA-DSP
  0
POLYLINE
  8
1_SERA-DSP
 66
     1
 10
0.0
 20
0.0
 30
0.0
 70
     0
  0
VERTEX
  8
1_SERA-DSP
 10
4.61
 20
1.842500
 30
0.0
 40
0.01
 41
0.01
  0
VERTEX
  8
1_SERA-DSP
 10
4.623458
 20
1.843677
 30
0.0
 40
0.01
 41
0.01
  0
VERTEX
  8
1_SERA-DSP
 10
4.636507
 20
1.847174
 30
0.0
 40
0.01
 41
0.01
  0
VERTEX
  8
1_SERA-DSP
 10
4.648750
 20
1.852883
 30
0.0
 40
0.01
 41
0.01
  0
VERTEX
  8
1_SERA-DSP
 10
4.659816
 20
1.860632
 30
0.0
 40
0.01
 41
0.01
  0
VERTEX
  8
1_SERA-DSP
 10
4.669368
 20
1.870184
 30
0.0
 40
0.01
 41
0.01
  0
VERTEX
  8
1_SERA-DSP
 10
4.677117
 20
1.88125
 30
0.0
 40
0.01
 41
0.01
  0
VERTEX
  8
1_SERA-DSP
 10
4.682826
 20
1.893493
 30
0.0
 40
0.01
 41
0.01
  0
VERTEX
  8
1_SERA-DSP
 10
4.6875
 20
1.92
 30
0.0
 40
0.01
 41
0.01
  0
SEQEND
  8
1_SERA-DSP
  0
POLYLINE
  8
1_SERA-DSP
 66
     1
 10
0.0
 20
0.0
 30
0.0
 70
     0
  0
VERTEX
  8
1_SERA-DSP
 10
4.5325
 20
1.92
 30
0.0
 40
0.01
 41
0.01
  0
VERTEX
  8
1_SERA-DSP
 10
4.533677
 20
1.906542
 30
0.0
 40
0.01
 41
0.01
  0
VERTEX
  8
1_SERA-DSP
 10
4.537174
 20
1.893493
 30
0.0
 40
0.01
 41
0.01
  0
VERTEX
  8
1_SERA-DSP
 10
4.542883
 20
1.88125
 30
0.0
 40
0.01
 41
0.01
  0
VERTEX
  8
1_SERA-DSP
 10
4.550632
 20
1.870184
 30
0.0
 40
0.01
 41
0.01
  0
VERTEX
  8
1_SERA-DSP
 10
4.560184
 20
1.860632
 30
0.0
 40
0.01
 41
0.01
  0
VERTEX
  8
1_SERA-DSP
 10
4.571250
 20
1.852883
 30
0.0
 40
0.01
 41
0.01
  0
VERTEX
  8
1_SERA-DSP
 10
4.583493
 20
1.847174
 30
0.0
 40
0.01
 41
0.01
  0
VERTEX
  8
1_SERA-DSP
 10
4.596542
 20
1.843677
 30
0.0
 40
0.01
 41
0.01
  0
VERTEX
  8
1_SERA-DSP
 10
4.61
 20
1.842500
 30
0.0
 40
0.01
 41
0.01
  0
SEQEND
  8
1_SERA-DSP
  0
POLYLINE
  8
1_SERA-DSP
 66
     1
 10
0.0
 20
0.0
 30
0.0
 70
     0
  0
VERTEX
  8
1_SERA-DSP
 10
4.61
 20
1.5975
 30
0.0
 40
0.01
 41
0.01
  0
VERTEX
  8
1_SERA-DSP
 10
4.596542
 20
1.596323
 30
0.0
 40
0.01
 41
0.01
  0
VERTEX
  8
1_SERA-DSP
 10
4.583493
 20
1.592826
 30
0.0
 40
0.01
 41
0.01
  0
VERTEX
  8
1_SERA-DSP
 10
4.57125
 20
1.587117
 30
0.0
 40
0.01
 41
0.01
  0
VERTEX
  8
1_SERA-DSP
 10
4.560184
 20
1.579368
 30
0.0
 40
0.01
 41
0.01
  0
VERTEX
  8
1_SERA-DSP
 10
4.550632
 20
1.569816
 30
0.0
 40
0.01
 41
0.01
  0
VERTEX
  8
1_SERA-DSP
 10
4.542883
 20
1.55875
 30
0.0
 40
0.01
 41
0.01
  0
VERTEX
  8
1_SERA-DSP
 10
4.537174
 20
1.546507
 30
0.0
 40
0.01
 41
0.01
  0
VERTEX
  8
1_SERA-DSP
 10
4.533677
 20
1.533458
 30
0.0
 40
0.01
 41
0.01
  0
VERTEX
  8
1_SERA-DSP
 10
4.5325
 20
1.52
 30
0.0
 40
0.01
 41
0.01
  0
SEQEND
  8
1_SERA-DSP
  0
POLYLINE
  8
1_SERA-DSP
 66
     1
 10
0.0
 20
0.0
 30
0.0
 70
     0
  0
VERTEX
  8
1_SERA-DSP
 10
4.6875
 20
1.52
 30
0.0
 40
0.01
 41
0.01
  0
VERTEX
  8
1_SERA-DSP
 10
4.686323
 20
1.533458
 30
0.0
 40
0.01
 41
0.01
  0
VERTEX
  8
1_SERA-DSP
 10
4.682826
 20
1.546507
 30
0.0
 40
0.01
 41
0.01
  0
VERTEX
  8
1_SERA-DSP
 10
4.677117
 20
1.55875
 30
0.0
 40
0.01
 41
0.01
  0
VERTEX
  8
1_SERA-DSP
 10
4.669368
 20
1.569816
 30
0.0
 40
0.01
 41
0.01
  0
VERTEX
  8
1_SERA-DSP
 10
4.659816
 20
1.579368
 30
0.0
 40
0.01
 41
0.01
  0
VERTEX
  8
1_SERA-DSP
 10
4.648750
 20
1.587117
 30
0.0
 40
0.01
 41
0.01
  0
VERTEX
  8
1_SERA-DSP
 10
4.636507
 20
1.592826
 30
0.0
 40
0.01
 41
0.01
  0
VERTEX
  8
1_SERA-DSP
 10
4.623458
 20
1.596323
 30
0.0
 40
0.01
 41
0.01
  0
VERTEX
  8
1_SERA-DSP
 10
4.61
 20
1.5975
 30
0.0
 40
0.01
 41
0.01
  0
SEQEND
  8
1_SERA-DSP
  0
POLYLINE
  8
1_SERA-DSP
 66
     1
 10
0.0
 20
0.0
 30
0.0
 70
     0
  0
VERTEX
  8
1_SERA-DSP
 10
4.61
 20
1.4425
 30
0.0
 40
0.01
 41
0.01
  0
VERTEX
  8
1_SERA-DSP
 10
4.623458
 20
1.443677
 30
0.0
 40
0.01
 41
0.01
  0
VERTEX
  8
1_SERA-DSP
 10
4.636507
 20
1.447174
 30
0.0
 40
0.01
 41
0.01
  0
VERTEX
  8
1_SERA-DSP
 10
4.648750
 20
1.452883
 30
0.0
 40
0.01
 41
0.01
  0
VERTEX
  8
1_SERA-DSP
 10
4.659816
 20
1.460632
 30
0.0
 40
0.01
 41
0.01
  0
VERTEX
  8
1_SERA-DSP
 10
4.669368
 20
1.470184
 30
0.0
 40
0.01
 41
0.01
  0
VERTEX
  8
1_SERA-DSP
 10
4.677117
 20
1.48125
 30
0.0
 40
0.01
 41
0.01
  0
VERTEX
  8
1_SERA-DSP
 10
4.682826
 20
1.493493
 30
0.0
 40
0.01
 41
0.01
  0
VERTEX
  8
1_SERA-DSP
 10
4.6875
 20
1.52
 30
0.0
 40
0.01
 41
0.01
  0
SEQEND
  8
1_SERA-DSP
  0
POLYLINE
  8
1_SERA-DSP
 66
     1
 10
0.0
 20
0.0
 30
0.0
 70
     0
  0
VERTEX
  8
1_SERA-DSP
 10
4.5325
 20
1.52
 30
0.0
 40
0.01
 41
0.01
  0
VERTEX
  8
1_SERA-DSP
 10
4.533677
 20
1.506542
 30
0.0
 40
0.01
 41
0.01
  0
VERTEX
  8
1_SERA-DSP
 10
4.537174
 20
1.493493
 30
0.0
 40
0.01
 41
0.01
  0
VERTEX
  8
1_SERA-DSP
 10
4.542883
 20
1.481250
 30
0.0
 40
0.01
 41
0.01
  0
VERTEX
  8
1_SERA-DSP
 10
4.550632
 20
1.470184
 30
0.0
 40
0.01
 41
0.01
  0
VERTEX
  8
1_SERA-DSP
 10
4.560184
 20
1.460632
 30
0.0
 40
0.01
 41
0.01
  0
VERTEX
  8
1_SERA-DSP
 10
4.571250
 20
1.452883
 30
0.0
 40
0.01
 41
0.01
  0
VERTEX
  8
1_SERA-DSP
 10
4.583493
 20
1.447174
 30
0.0
 40
0.01
 41
0.01
  0
VERTEX
  8
1_SERA-DSP
 10
4.596542
 20
1.443677
 30
0.0
 40
0.01
 41
0.01
  0
VERTEX
  8
1_SERA-DSP
 10
4.61
 20
1.4425
 30
0.0
 40
0.01
 41
0.01
  0
SEQEND
  8
1_SERA-DSP
  0
POLYLINE
  8
1_SERA-DSP
 66
     1
 10
0.0
 20
0.0
 30
0.0
 70
     0
  0
VERTEX
  8
1_SERA-DSP
 10
2.83
 20
0.795
 30
0.0
 40
0.01
 41
0.01
  0
VERTEX
  8
1_SERA-DSP
 10
2.843892
 20
0.796215
 30
0.0
 40
0.01
 41
0.01
  0
VERTEX
  8
1_SERA-DSP
 10
2.857362
 20
0.799825
 30
0.0
 40
0.01
 41
0.01
  0
VERTEX
  8
1_SERA-DSP
 10
2.87
 20
0.805718
 30
0.0
 40
0.01
 41
0.01
  0
VERTEX
  8
1_SERA-DSP
 10
2.881423
 20
0.813716
 30
0.0
 40
0.01
 41
0.01
  0
VERTEX
  8
1_SERA-DSP
 10
2.891284
 20
0.823577
 30
0.0
 40
0.01
 41
0.01
  0
VERTEX
  8
1_SERA-DSP
 10
2.899282
 20
0.835
 30
0.0
 40
0.01
 41
0.01
  0
VERTEX
  8
1_SERA-DSP
 10
2.905175
 20
0.847638
 30
0.0
 40
0.01
 41
0.01
  0
VERTEX
  8
1_SERA-DSP
 10
2.91
 20
0.875
 30
0.0
 40
0.01
 41
0.01
  0
SEQEND
  8
1_SERA-DSP
  0
POLYLINE
  8
1_SERA-DSP
 66
     1
 10
0.0
 20
0.0
 30
0.0
 70
     0
  0
VERTEX
  8
1_SERA-DSP
 10
2.75
 20
0.875
 30
0.0
 40
0.01
 41
0.01
  0
VERTEX
  8
1_SERA-DSP
 10
2.751215
 20
0.861108
 30
0.0
 40
0.01
 41
0.01
  0
VERTEX
  8
1_SERA-DSP
 10
2.754825
 20
0.847638
 30
0.0
 40
0.01
 41
0.01
  0
VERTEX
  8
1_SERA-DSP
 10
2.760718
 20
0.835
 30
0.0
 40
0.01
 41
0.01
  0
VERTEX
  8
1_SERA-DSP
 10
2.768716
 20
0.823577
 30
0.0
 40
0.01
 41
0.01
  0
VERTEX
  8
1_SERA-DSP
 10
2.778577
 20
0.813716
 30
0.0
 40
0.01
 41
0.01
  0
VERTEX
  8
1_SERA-DSP
 10
2.79
 20
0.805718
 30
0.0
 40
0.01
 41
0.01
  0
VERTEX
  8
1_SERA-DSP
 10
2.802638
 20
0.799825
 30
0.0
 40
0.01
 41
0.01
  0
VERTEX
  8
1_SERA-DSP
 10
2.816108
 20
0.796215
 30
0.0
 40
0.01
 41
0.01
  0
VERTEX
  8
1_SERA-DSP
 10
2.83
 20
0.795
 30
0.0
 40
0.01
 41
0.01
  0
SEQEND
  8
1_SERA-DSP
  0
POLYLINE
  8
1_SERA-DSP
 66
     1
 10
0.0
 20
0.0
 30
0.0
 70
     0
  0
VERTEX
  8
1_SERA-DSP
 10
2.83
 20
0.955
 30
0.0
 40
0.01
 41
0.01
  0
VERTEX
  8
1_SERA-DSP
 10
2.816108
 20
0.953785
 30
0.0
 40
0.01
 41
0.01
  0
VERTEX
  8
1_SERA-DSP
 10
2.802638
 20
0.950175
 30
0.0
 40
0.01
 41
0.01
  0
VERTEX
  8
1_SERA-DSP
 10
2.79
 20
0.944282
 30
0.0
 40
0.01
 41
0.01
  0
VERTEX
  8
1_SERA-DSP
 10
2.778577
 20
0.936284
 30
0.0
 40
0.01
 41
0.01
  0
VERTEX
  8
1_SERA-DSP
 10
2.768716
 20
0.926423
 30
0.0
 40
0.01
 41
0.01
  0
VERTEX
  8
1_SERA-DSP
 10
2.760718
 20
0.915
 30
0.0
 40
0.01
 41
0.01
  0
VERTEX
  8
1_SERA-DSP
 10
2.754825
 20
0.902362
 30
0.0
 40
0.01
 41
0.01
  0
VERTEX
  8
1_SERA-DSP
 10
2.751215
 20
0.888892
 30
0.0
 40
0.01
 41
0.01
  0
VERTEX
  8
1_SERA-DSP
 10
2.75
 20
0.875
 30
0.0
 40
0.01
 41
0.01
  0
SEQEND
  8
1_SERA-DSP
  0
POLYLINE
  8
1_SERA-DSP
 66
     1
 10
0.0
 20
0.0
 30
0.0
 70
     0
  0
VERTEX
  8
1_SERA-DSP
 10
2.91
 20
0.875
 30
0.0
 40
0.01
 41
0.01
  0
VERTEX
  8
1_SERA-DSP
 10
2.908785
 20
0.888892
 30
0.0
 40
0.01
 41
0.01
  0
VERTEX
  8
1_SERA-DSP
 10
2.905175
 20
0.902362
 30
0.0
 40
0.01
 41
0.01
  0
VERTEX
  8
1_SERA-DSP
 10
2.899282
 20
0.915
 30
0.0
 40
0.01
 41
0.01
  0
VERTEX
  8
1_SERA-DSP
 10
2.891284
 20
0.926423
 30
0.0
 40
0.01
 41
0.01
  0
VERTEX
  8
1_SERA-DSP
 10
2.881423
 20
0.936284
 30
0.0
 40
0.01
 41
0.01
  0
VERTEX
  8
1_SERA-DSP
 10
2.87
 20
0.944282
 30
0.0
 40
0.01
 41
0.01
  0
VERTEX
  8
1_SERA-DSP
 10
2.857362
 20
0.950175
 30
0.0
 40
0.01
 41
0.01
  0
VERTEX
  8
1_SERA-DSP
 10
2.843892
 20
0.953785
 30
0.0
 40
0.01
 41
0.01
  0
VERTEX
  8
1_SERA-DSP
 10
2.83
 20
0.955
 30
0.0
 40
0.01
 41
0.01
  0
SEQEND
  8
1_SERA-DSP
  0
POLYLINE
  8
1_SERA-DSP
 66
     1
 10
0.0
 20
0.0
 30
0.0
 70
     0
  0
VERTEX
  8
1_SERA-DSP
 10
4.61
 20
2.1975
 30
0.0
 40
0.01
 41
0.01
  0
VERTEX
  8
1_SERA-DSP
 10
4.596542
 20
2.196323
 30
0.0
 40
0.01
 41
0.01
  0
VERTEX
  8
1_SERA-DSP
 10
4.583493
 20
2.192826
 30
0.0
 40
0.01
 41
0.01
  0
VERTEX
  8
1_SERA-DSP
 10
4.57125
 20
2.187117
 30
0.0
 40
0.01
 41
0.01
  0
VERTEX
  8
1_SERA-DSP
 10
4.560184
 20
2.179368
 30
0.0
 40
0.01
 41
0.01
  0
VERTEX
  8
1_SERA-DSP
 10
4.550632
 20
2.169816
 30
0.0
 40
0.01
 41
0.01
  0
VERTEX
  8
1_SERA-DSP
 10
4.542883
 20
2.15875
 30
0.0
 40
0.01
 41
0.01
  0
VERTEX
  8
1_SERA-DSP
 10
4.537174
 20
2.146507
 30
0.0
 40
0.01
 41
0.01
  0
VERTEX
  8
1_SERA-DSP
 10
4.533677
 20
2.133458
 30
0.0
 40
0.01
 41
0.01
  0
VERTEX
  8
1_SERA-DSP
 10
4.5325
 20
2.12
 30
0.0
 40
0.01
 41
0.01
  0
SEQEND
  8
1_SERA-DSP
  0
POLYLINE
  8
1_SERA-DSP
 66
     1
 10
0.0
 20
0.0
 30
0.0
 70
     0
  0
VERTEX
  8
1_SERA-DSP
 10
4.6875
 20
2.12
 30
0.0
 40
0.01
 41
0.01
  0
VERTEX
  8
1_SERA-DSP
 10
4.686323
 20
2.133458
 30
0.0
 40
0.01
 41
0.01
  0
VERTEX
  8
1_SERA-DSP
 10
4.682826
 20
2.146507
 30
0.0
 40
0.01
 41
0.01
  0
VERTEX
  8
1_SERA-DSP
 10
4.677117
 20
2.15875
 30
0.0
 40
0.01
 41
0.01
  0
VERTEX
  8
1_SERA-DSP
 10
4.669368
 20
2.169816
 30
0.0
 40
0.01
 41
0.01
  0
VERTEX
  8
1_SERA-DSP
 10
4.659816
 20
2.179368
 30
0.0
 40
0.01
 41
0.01
  0
VERTEX
  8
1_SERA-DSP
 10
4.648750
 20
2.187117
 30
0.0
 40
0.01
 41
0.01
  0
VERTEX
  8
1_SERA-DSP
 10
4.636507
 20
2.192826
 30
0.0
 40
0.01
 41
0.01
  0
VERTEX
  8
1_SERA-DSP
 10
4.623458
 20
2.196323
 30
0.0
 40
0.01
 41
0.01
  0
VERTEX
  8
1_SERA-DSP
 10
4.61
 20
2.1975
 30
0.0
 40
0.01
 41
0.01
  0
SEQEND
  8
1_SERA-DSP
  0
POLYLINE
  8
1_SERA-DSP
 66
     1
 10
0.0
 20
0.0
 30
0.0
 70
     0
  0
VERTEX
  8
1_SERA-DSP
 10
4.61
 20
2.0425
 30
0.0
 40
0.01
 41
0.01
  0
VERTEX
  8
1_SERA-DSP
 10
4.623458
 20
2.043677
 30
0.0
 40
0.01
 41
0.01
  0
VERTEX
  8
1_SERA-DSP
 10
4.636507
 20
2.047174
 30
0.0
 40
0.01
 41
0.01
  0
VERTEX
  8
1_SERA-DSP
 10
4.648750
 20
2.052883
 30
0.0
 40
0.01
 41
0.01
  0
VERTEX
  8
1_SERA-DSP
 10
4.659816
 20
2.060632
 30
0.0
 40
0.01
 41
0.01
  0
VERTEX
  8
1_SERA-DSP
 10
4.669368
 20
2.070184
 30
0.0
 40
0.01
 41
0.01
  0
VERTEX
  8
1_SERA-DSP
 10
4.677117
 20
2.081250
 30
0.0
 40
0.01
 41
0.01
  0
VERTEX
  8
1_SERA-DSP
 10
4.682826
 20
2.093493
 30
0.0
 40
0.01
 41
0.01
  0
VERTEX
  8
1_SERA-DSP
 10
4.6875
 20
2.12
 30
0.0
 40
0.01
 41
0.01
  0
SEQEND
  8
1_SERA-DSP
  0
POLYLINE
  8
1_SERA-DSP
 66
     1
 10
0.0
 20
0.0
 30
0.0
 70
     0
  0
VERTEX
  8
1_SERA-DSP
 10
4.5325
 20
2.12
 30
0.0
 40
0.01
 41
0.01
  0
VERTEX
  8
1_SERA-DSP
 10
4.533677
 20
2.106542
 30
0.0
 40
0.01
 41
0.01
  0
VERTEX
  8
1_SERA-DSP
 10
4.537174
 20
2.093493
 30
0.0
 40
0.01
 41
0.01
  0
VERTEX
  8
1_SERA-DSP
 10
4.542883
 20
2.08125
 30
0.0
 40
0.01
 41
0.01
  0
VERTEX
  8
1_SERA-DSP
 10
4.550632
 20
2.070184
 30
0.0
 40
0.01
 41
0.01
  0
VERTEX
  8
1_SERA-DSP
 10
4.560184
 20
2.060632
 30
0.0
 40
0.01
 41
0.01
  0
VERTEX
  8
1_SERA-DSP
 10
4.571250
 20
2.052883
 30
0.0
 40
0.01
 41
0.01
  0
VERTEX
  8
1_SERA-DSP
 10
4.583493
 20
2.047174
 30
0.0
 40
0.01
 41
0.01
  0
VERTEX
  8
1_SERA-DSP
 10
4.596542
 20
2.043677
 30
0.0
 40
0.01
 41
0.01
  0
VERTEX
  8
1_SERA-DSP
 10
4.61
 20
2.0425
 30
0.0
 40
0.01
 41
0.01
  0
SEQEND
  8
1_SERA-DSP
  0
POLYLINE
  8
1_SERA-DSP
 66
     1
 10
0.0
 20
0.0
 30
0.0
 70
     0
  0
VERTEX
  8
1_SERA-DSP
 10
4.61
 20
1.1975
 30
0.0
 40
0.01
 41
0.01
  0
VERTEX
  8
1_SERA-DSP
 10
4.596542
 20
1.196323
 30
0.0
 40
0.01
 41
0.01
  0
VERTEX
  8
1_SERA-DSP
 10
4.583493
 20
1.192826
 30
0.0
 40
0.01
 41
0.01
  0
VERTEX
  8
1_SERA-DSP
 10
4.57125
 20
1.187117
 30
0.0
 40
0.01
 41
0.01
  0
VERTEX
  8
1_SERA-DSP
 10
4.560184
 20
1.179368
 30
0.0
 40
0.01
 41
0.01
  0
VERTEX
  8
1_SERA-DSP
 10
4.550632
 20
1.169816
 30
0.0
 40
0.01
 41
0.01
  0
VERTEX
  8
1_SERA-DSP
 10
4.542883
 20
1.158750
 30
0.0
 40
0.01
 41
0.01
  0
VERTEX
  8
1_SERA-DSP
 10
4.537174
 20
1.146507
 30
0.0
 40
0.01
 41
0.01
  0
VERTEX
  8
1_SERA-DSP
 10
4.533677
 20
1.133458
 30
0.0
 40
0.01
 41
0.01
  0
VERTEX
  8
1_SERA-DSP
 10
4.5325
 20
1.12
 30
0.0
 40
0.01
 41
0.01
  0
SEQEND
  8
1_SERA-DSP
  0
POLYLINE
  8
1_SERA-DSP
 66
     1
 10
0.0
 20
0.0
 30
0.0
 70
     0
  0
VERTEX
  8
1_SERA-DSP
 10
4.6875
 20
1.12
 30
0.0
 40
0.01
 41
0.01
  0
VERTEX
  8
1_SERA-DSP
 10
4.686323
 20
1.133458
 30
0.0
 40
0.01
 41
0.01
  0
VERTEX
  8
1_SERA-DSP
 10
4.682826
 20
1.146507
 30
0.0
 40
0.01
 41
0.01
  0
VERTEX
  8
1_SERA-DSP
 10
4.677117
 20
1.158750
 30
0.0
 40
0.01
 41
0.01
  0
VERTEX
  8
1_SERA-DSP
 10
4.669368
 20
1.169816
 30
0.0
 40
0.01
 41
0.01
  0
VERTEX
  8
1_SERA-DSP
 10
4.659816
 20
1.179368
 30
0.0
 40
0.01
 41
0.01
  0
VERTEX
  8
1_SERA-DSP
 10
4.648750
 20
1.187117
 30
0.0
 40
0.01
 41
0.01
  0
VERTEX
  8
1_SERA-DSP
 10
4.636507
 20
1.192826
 30
0.0
 40
0.01
 41
0.01
  0
VERTEX
  8
1_SERA-DSP
 10
4.623458
 20
1.196323
 30
0.0
 40
0.01
 41
0.01
  0
VERTEX
  8
1_SERA-DSP
 10
4.61
 20
1.1975
 30
0.0
 40
0.01
 41
0.01
  0
SEQEND
  8
1_SERA-DSP
  0
POLYLINE
  8
1_SERA-DSP
 66
     1
 10
0.0
 20
0.0
 30
0.0
 70
     0
  0
VERTEX
  8
1_SERA-DSP
 10
4.61
 20
1.0425
 30
0.0
 40
0.01
 41
0.01
  0
VERTEX
  8
1_SERA-DSP
 10
4.623458
 20
1.043677
 30
0.0
 40
0.01
 41
0.01
  0
VERTEX
  8
1_SERA-DSP
 10
4.636507
 20
1.047174
 30
0.0
 40
0.01
 41
0.01
  0
VERTEX
  8
1_SERA-DSP
 10
4.648750
 20
1.052883
 30
0.0
 40
0.01
 41
0.01
  0
VERTEX
  8
1_SERA-DSP
 10
4.659816
 20
1.060632
 30
0.0
 40
0.01
 41
0.01
  0
VERTEX
  8
1_SERA-DSP
 10
4.669368
 20
1.070184
 30
0.0
 40
0.01
 41
0.01
  0
VERTEX
  8
1_SERA-DSP
 10
4.677117
 20
1.08125
 30
0.0
 40
0.01
 41
0.01
  0
VERTEX
  8
1_SERA-DSP
 10
4.682826
 20
1.093493
 30
0.0
 40
0.01
 41
0.01
  0
VERTEX
  8
1_SERA-DSP
 10
4.6875
 20
1.12
 30
0.0
 40
0.01
 41
0.01
  0
SEQEND
  8
1_SERA-DSP
  0
POLYLINE
  8
1_SERA-DSP
 66
     1
 10
0.0
 20
0.0
 30
0.0
 70
     0
  0
VERTEX
  8
1_SERA-DSP
 10
4.5325
 20
1.12
 30
0.0
 40
0.01
 41
0.01
  0
VERTEX
  8
1_SERA-DSP
 10
4.533677
 20
1.106542
 30
0.0
 40
0.01
 41
0.01
  0
VERTEX
  8
1_SERA-DSP
 10
4.537174
 20
1.093493
 30
0.0
 40
0.01
 41
0.01
  0
VERTEX
  8
1_SERA-DSP
 10
4.542883
 20
1.081250
 30
0.0
 40
0.01
 41
0.01
  0
VERTEX
  8
1_SERA-DSP
 10
4.550632
 20
1.070184
 30
0.0
 40
0.01
 41
0.01
  0
VERTEX
  8
1_SERA-DSP
 10
4.560184
 20
1.060632
 30
0.0
 40
0.01
 41
0.01
  0
VERTEX
  8
1_SERA-DSP
 10
4.571250
 20
1.052883
 30
0.0
 40
0.01
 41
0.01
  0
VERTEX
  8
1_SERA-DSP
 10
4.583493
 20
1.047174
 30
0.0
 40
0.01
 41
0.01
  0
VERTEX
  8
1_SERA-DSP
 10
4.596542
 20
1.043677
 30
0.0
 40
0.01
 41
0.01
  0
VERTEX
  8
1_SERA-DSP
 10
4.61
 20
1.0425
 30
0.0
 40
0.01
 41
0.01
  0
SEQEND
  8
1_SERA-DSP
  0
POLYLINE
  8
1_SERA-DSP
 66
     1
 10
0.0
 20
0.0
 30
0.0
 70
     0
  0
VERTEX
  8
1_SERA-DSP
 10
4.61
 20
1.3975
 30
0.0
 40
0.01
 41
0.01
  0
VERTEX
  8
1_SERA-DSP
 10
4.596542
 20
1.396323
 30
0.0
 40
0.01
 41
0.01
  0
VERTEX
  8
1_SERA-DSP
 10
4.583493
 20
1.392826
 30
0.0
 40
0.01
 41
0.01
  0
VERTEX
  8
1_SERA-DSP
 10
4.57125
 20
1.387117
 30
0.0
 40
0.01
 41
0.01
  0
VERTEX
  8
1_SERA-DSP
 10
4.560184
 20
1.379368
 30
0.0
 40
0.01
 41
0.01
  0
VERTEX
  8
1_SERA-DSP
 10
4.550632
 20
1.369816
 30
0.0
 40
0.01
 41
0.01
  0
VERTEX
  8
1_SERA-DSP
 10
4.542883
 20
1.358750
 30
0.0
 40
0.01
 41
0.01
  0
VERTEX
  8
1_SERA-DSP
 10
4.537174
 20
1.346507
 30
0.0
 40
0.01
 41
0.01
  0
VERTEX
  8
1_SERA-DSP
 10
4.533677
 20
1.333458
 30
0.0
 40
0.01
 41
0.01
  0
VERTEX
  8
1_SERA-DSP
 10
4.5325
 20
1.32
 30
0.0
 40
0.01
 41
0.01
  0
SEQEND
  8
1_SERA-DSP
  0
POLYLINE
  8
1_SERA-DSP
 66
     1
 10
0.0
 20
0.0
 30
0.0
 70
     0
  0
VERTEX
  8
1_SERA-DSP
 10
4.6875
 20
1.32
 30
0.0
 40
0.01
 41
0.01
  0
VERTEX
  8
1_SERA-DSP
 10
4.686323
 20
1.333458
 30
0.0
 40
0.01
 41
0.01
  0
VERTEX
  8
1_SERA-DSP
 10
4.682826
 20
1.346507
 30
0.0
 40
0.01
 41
0.01
  0
VERTEX
  8
1_SERA-DSP
 10
4.677117
 20
1.358750
 30
0.0
 40
0.01
 41
0.01
  0
VERTEX
  8
1_SERA-DSP
 10
4.669368
 20
1.369816
 30
0.0
 40
0.01
 41
0.01
  0
VERTEX
  8
1_SERA-DSP
 10
4.659816
 20
1.379368
 30
0.0
 40
0.01
 41
0.01
  0
VERTEX
  8
1_SERA-DSP
 10
4.648750
 20
1.387117
 30
0.0
 40
0.01
 41
0.01
  0
VERTEX
  8
1_SERA-DSP
 10
4.636507
 20
1.392826
 30
0.0
 40
0.01
 41
0.01
  0
VERTEX
  8
1_SERA-DSP
 10
4.623458
 20
1.396323
 30
0.0
 40
0.01
 41
0.01
  0
VERTEX
  8
1_SERA-DSP
 10
4.61
 20
1.3975
 30
0.0
 40
0.01
 41
0.01
  0
SEQEND
  8
1_SERA-DSP
  0
POLYLINE
  8
1_SERA-DSP
 66
     1
 10
0.0
 20
0.0
 30
0.0
 70
     0
  0
VERTEX
  8
1_SERA-DSP
 10
4.61
 20
1.2425
 30
0.0
 40
0.01
 41
0.01
  0
VERTEX
  8
1_SERA-DSP
 10
4.623458
 20
1.243677
 30
0.0
 40
0.01
 41
0.01
  0
VERTEX
  8
1_SERA-DSP
 10
4.636507
 20
1.247174
 30
0.0
 40
0.01
 41
0.01
  0
VERTEX
  8
1_SERA-DSP
 10
4.648750
 20
1.252883
 30
0.0
 40
0.01
 41
0.01
  0
VERTEX
  8
1_SERA-DSP
 10
4.659816
 20
1.260632
 30
0.0
 40
0.01
 41
0.01
  0
VERTEX
  8
1_SERA-DSP
 10
4.669368
 20
1.270184
 30
0.0
 40
0.01
 41
0.01
  0
VERTEX
  8
1_SERA-DSP
 10
4.677117
 20
1.28125
 30
0.0
 40
0.01
 41
0.01
  0
VERTEX
  8
1_SERA-DSP
 10
4.682826
 20
1.293493
 30
0.0
 40
0.01
 41
0.01
  0
VERTEX
  8
1_SERA-DSP
 10
4.6875
 20
1.32
 30
0.0
 40
0.01
 41
0.01
  0
SEQEND
  8
1_SERA-DSP
  0
POLYLINE
  8
1_SERA-DSP
 66
     1
 10
0.0
 20
0.0
 30
0.0
 70
     0
  0
VERTEX
  8
1_SERA-DSP
 10
4.5325
 20
1.32
 30
0.0
 40
0.01
 41
0.01
  0
VERTEX
  8
1_SERA-DSP
 10
4.533677
 20
1.306542
 30
0.0
 40
0.01
 41
0.01
  0
VERTEX
  8
1_SERA-DSP
 10
4.537174
 20
1.293493
 30
0.0
 40
0.01
 41
0.01
  0
VERTEX
  8
1_SERA-DSP
 10
4.542883
 20
1.28125
 30
0.0
 40
0.01
 41
0.01
  0
VERTEX
  8
1_SERA-DSP
 10
4.550632
 20
1.270184
 30
0.0
 40
0.01
 41
0.01
  0
VERTEX
  8
1_SERA-DSP
 10
4.560184
 20
1.260632
 30
0.0
 40
0.01
 41
0.01
  0
VERTEX
  8
1_SERA-DSP
 10
4.571250
 20
1.252883
 30
0.0
 40
0.01
 41
0.01
  0
VERTEX
  8
1_SERA-DSP
 10
4.583493
 20
1.247174
 30
0.0
 40
0.01
 41
0.01
  0
VERTEX
  8
1_SERA-DSP
 10
4.596542
 20
1.243677
 30
0.0
 40
0.01
 41
0.01
  0
VERTEX
  8
1_SERA-DSP
 10
4.61
 20
1.2425
 30
0.0
 40
0.01
 41
0.01
  0
SEQEND
  8
1_SERA-DSP
  0
POLYLINE
  8
1_SERA-DSP
 66
     1
 10
0.0
 20
0.0
 30
0.0
 70
     0
  0
VERTEX
  8
1_SERA-DSP
 10
2.26
 20
0.795
 30
0.0
 40
0.01
 41
0.01
  0
VERTEX
  8
1_SERA-DSP
 10
2.273892
 20
0.796215
 30
0.0
 40
0.01
 41
0.01
  0
VERTEX
  8
1_SERA-DSP
 10
2.287362
 20
0.799825
 30
0.0
 40
0.01
 41
0.01
  0
VERTEX
  8
1_SERA-DSP
 10
2.3
 20
0.805718
 30
0.0
 40
0.01
 41
0.01
  0
VERTEX
  8
1_SERA-DSP
 10
2.311423
 20
0.813716
 30
0.0
 40
0.01
 41
0.01
  0
VERTEX
  8
1_SERA-DSP
 10
2.321284
 20
0.823577
 30
0.0
 40
0.01
 41
0.01
  0
VERTEX
  8
1_SERA-DSP
 10
2.329282
 20
0.835
 30
0.0
 40
0.01
 41
0.01
  0
VERTEX
  8
1_SERA-DSP
 10
2.335175
 20
0.847638
 30
0.0
 40
0.01
 41
0.01
  0
VERTEX
  8
1_SERA-DSP
 10
2.34
 20
0.875
 30
0.0
 40
0.01
 41
0.01
  0
SEQEND
  8
1_SERA-DSP
  0
POLYLINE
  8
1_SERA-DSP
 66
     1
 10
0.0
 20
0.0
 30
0.0
 70
     0
  0
VERTEX
  8
1_SERA-DSP
 10
2.18
 20
0.875
 30
0.0
 40
0.01
 41
0.01
  0
VERTEX
  8
1_SERA-DSP
 10
2.181215
 20
0.861108
 30
0.0
 40
0.01
 41
0.01
  0
VERTEX
  8
1_SERA-DSP
 10
2.184825
 20
0.847638
 30
0.0
 40
0.01
 41
0.01
  0
VERTEX
  8
1_SERA-DSP
 10
2.190718
 20
0.835
 30
0.0
 40
0.01
 41
0.01
  0
VERTEX
  8
1_SERA-DSP
 10
2.198716
 20
0.823577
 30
0.0
 40
0.01
 41
0.01
  0
VERTEX
  8
1_SERA-DSP
 10
2.208577
 20
0.813716
 30
0.0
 40
0.01
 41
0.01
  0
VERTEX
  8
1_SERA-DSP
 10
2.22
 20
0.805718
 30
0.0
 40
0.01
 41
0.01
  0
VERTEX
  8
1_SERA-DSP
 10
2.232638
 20
0.799825
 30
0.0
 40
0.01
 41
0.01
  0
VERTEX
  8
1_SERA-DSP
 10
2.246108
 20
0.796215
 30
0.0
 40
0.01
 41
0.01
  0
VERTEX
  8
1_SERA-DSP
 10
2.26
 20
0.795
 30
0.0
 40
0.01
 41
0.01
  0
SEQEND
  8
1_SERA-DSP
  0
POLYLINE
  8
1_SERA-DSP
 66
     1
 10
0.0
 20
0.0
 30
0.0
 70
     0
  0
VERTEX
  8
1_SERA-DSP
 10
2.26
 20
0.955
 30
0.0
 40
0.01
 41
0.01
  0
VERTEX
  8
1_SERA-DSP
 10
2.246108
 20
0.953785
 30
0.0
 40
0.01
 41
0.01
  0
VERTEX
  8
1_SERA-DSP
 10
2.232638
 20
0.950175
 30
0.0
 40
0.01
 41
0.01
  0
VERTEX
  8
1_SERA-DSP
 10
2.22
 20
0.944282
 30
0.0
 40
0.01
 41
0.01
  0
VERTEX
  8
1_SERA-DSP
 10
2.208577
 20
0.936284
 30
0.0
 40
0.01
 41
0.01
  0
VERTEX
  8
1_SERA-DSP
 10
2.198716
 20
0.926423
 30
0.0
 40
0.01
 41
0.01
  0
VERTEX
  8
1_SERA-DSP
 10
2.190718
 20
0.915
 30
0.0
 40
0.01
 41
0.01
  0
VERTEX
  8
1_SERA-DSP
 10
2.184825
 20
0.902362
 30
0.0
 40
0.01
 41
0.01
  0
VERTEX
  8
1_SERA-DSP
 10
2.181215
 20
0.888892
 30
0.0
 40
0.01
 41
0.01
  0
VERTEX
  8
1_SERA-DSP
 10
2.18
 20
0.875
 30
0.0
 40
0.01
 41
0.01
  0
SEQEND
  8
1_SERA-DSP
  0
POLYLINE
  8
1_SERA-DSP
 66
     1
 10
0.0
 20
0.0
 30
0.0
 70
     0
  0
VERTEX
  8
1_SERA-DSP
 10
2.34
 20
0.875
 30
0.0
 40
0.01
 41
0.01
  0
VERTEX
  8
1_SERA-DSP
 10
2.338785
 20
0.888892
 30
0.0
 40
0.01
 41
0.01
  0
VERTEX
  8
1_SERA-DSP
 10
2.335175
 20
0.902362
 30
0.0
 40
0.01
 41
0.01
  0
VERTEX
  8
1_SERA-DSP
 10
2.329282
 20
0.915
 30
0.0
 40
0.01
 41
0.01
  0
VERTEX
  8
1_SERA-DSP
 10
2.321284
 20
0.926423
 30
0.0
 40
0.01
 41
0.01
  0
VERTEX
  8
1_SERA-DSP
 10
2.311423
 20
0.936284
 30
0.0
 40
0.01
 41
0.01
  0
VERTEX
  8
1_SERA-DSP
 10
2.3
 20
0.944282
 30
0.0
 40
0.01
 41
0.01
  0
VERTEX
  8
1_SERA-DSP
 10
2.287362
 20
0.950175
 30
0.0
 40
0.01
 41
0.01
  0
VERTEX
  8
1_SERA-DSP
 10
2.273892
 20
0.953785
 30
0.0
 40
0.01
 41
0.01
  0
VERTEX
  8
1_SERA-DSP
 10
2.26
 20
0.955
 30
0.0
 40
0.01
 41
0.01
  0
SEQEND
  8
1_SERA-DSP
  0
POLYLINE
  8
1_SERA-DSP
 66
     1
 10
0.0
 20
0.0
 30
0.0
 70
     0
  0
VERTEX
  8
1_SERA-DSP
 10
1.6925
 20
0.6734
 30
0.0
 40
0.0079
 41
0.0079
  0
VERTEX
  8
1_SERA-DSP
 10
1.727507
 20
0.676463
 30
0.0
 40
0.0079
 41
0.0079
  0
VERTEX
  8
1_SERA-DSP
 10
1.761451
 20
0.685558
 30
0.0
 40
0.0079
 41
0.0079
  0
VERTEX
  8
1_SERA-DSP
 10
1.793300
 20
0.700409
 30
0.0
 40
0.0079
 41
0.0079
  0
VERTEX
  8
1_SERA-DSP
 10
1.822086
 20
0.720565
 30
0.0
 40
0.0079
 41
0.0079
  0
VERTEX
  8
1_SERA-DSP
 10
1.846935
 20
0.745414
 30
0.0
 40
0.0079
 41
0.0079
  0
VERTEX
  8
1_SERA-DSP
 10
1.867091
 20
0.774200
 30
0.0
 40
0.0079
 41
0.0079
  0
VERTEX
  8
1_SERA-DSP
 10
1.881942
 20
0.806049
 30
0.0
 40
0.0079
 41
0.0079
  0
VERTEX
  8
1_SERA-DSP
 10
1.894100
 20
0.875
 30
0.0
 40
0.0079
 41
0.0079
  0
SEQEND
  8
1_SERA-DSP
  0
POLYLINE
  8
1_SERA-DSP
 66
     1
 10
0.0
 20
0.0
 30
0.0
 70
     0
  0
VERTEX
  8
1_SERA-DSP
 10
1.4909
 20
0.875
 30
0.0
 40
0.0079
 41
0.0079
  0
VERTEX
  8
1_SERA-DSP
 10
1.493963
 20
0.839993
 30
0.0
 40
0.0079
 41
0.0079
  0
VERTEX
  8
1_SERA-DSP
 10
1.503058
 20
0.806049
 30
0.0
 40
0.0079
 41
0.0079
  0
VERTEX
  8
1_SERA-DSP
 10
1.517909
 20
0.774200
 30
0.0
 40
0.0079
 41
0.0079
  0
VERTEX
  8
1_SERA-DSP
 10
1.538065
 20
0.745414
 30
0.0
 40
0.0079
 41
0.0079
  0
VERTEX
  8
1_SERA-DSP
 10
1.562914
 20
0.720565
 30
0.0
 40
0.0079
 41
0.0079
  0
VERTEX
  8
1_SERA-DSP
 10
1.591700
 20
0.700409
 30
0.0
 40
0.0079
 41
0.0079
  0
VERTEX
  8
1_SERA-DSP
 10
1.623549
 20
0.685558
 30
0.0
 40
0.0079
 41
0.0079
  0
VERTEX
  8
1_SERA-DSP
 10
1.657493
 20
0.676463
 30
0.0
 40
0.0079
 41
0.0079
  0
VERTEX
  8
1_SERA-DSP
 10
1.6925
 20
0.6734
 30
0.0
 40
0.0079
 41
0.0079
  0
SEQEND
  8
1_SERA-DSP
  0
POLYLINE
  8
1_SERA-DSP
 66
     1
 10
0.0
 20
0.0
 30
0.0
 70
     0
  0
VERTEX
  8
1_SERA-DSP
 10
1.6925
 20
1.0765
 30
0.0
 40
0.0079
 41
0.0079
  0
VERTEX
  8
1_SERA-DSP
 10
1.657510
 20
1.073439
 30
0.0
 40
0.0079
 41
0.0079
  0
VERTEX
  8
1_SERA-DSP
 10
1.623583
 20
1.064348
 30
0.0
 40
0.0079
 41
0.0079
  0
VERTEX
  8
1_SERA-DSP
 10
1.59175
 20
1.049504
 30
0.0
 40
0.0079
 41
0.0079
  0
VERTEX
  8
1_SERA-DSP
 10
1.562978
 20
1.029358
 30
0.0
 40
0.0079
 41
0.0079
  0
VERTEX
  8
1_SERA-DSP
 10
1.538142
 20
1.004522
 30
0.0
 40
0.0079
 41
0.0079
  0
VERTEX
  8
1_SERA-DSP
 10
1.517996
 20
0.97575
 30
0.0
 40
0.0079
 41
0.0079
  0
VERTEX
  8
1_SERA-DSP
 10
1.503152
 20
0.943917
 30
0.0
 40
0.0079
 41
0.0079
  0
VERTEX
  8
1_SERA-DSP
 10
1.494061
 20
0.909990
 30
0.0
 40
0.0079
 41
0.0079
  0
VERTEX
  8
1_SERA-DSP
 10
1.491
 20
0.875
 30
0.0
 40
0.0079
 41
0.0079
  0
SEQEND
  8
1_SERA-DSP
  0
POLYLINE
  8
1_SERA-DSP
 66
     1
 10
0.0
 20
0.0
 30
0.0
 70
     0
  0
VERTEX
  8
1_SERA-DSP
 10
1.894
 20
0.875
 30
0.0
 40
0.0079
 41
0.0079
  0
VERTEX
  8
1_SERA-DSP
 10
1.890939
 20
0.909990
 30
0.0
 40
0.0079
 41
0.0079
  0
VERTEX
  8
1_SERA-DSP
 10
1.881848
 20
0.943917
 30
0.0
 40
0.0079
 41
0.0079
  0
VERTEX
  8
1_SERA-DSP
 10
1.867004
 20
0.97575
 30
0.0
 40
0.0079
 41
0.0079
  0
VERTEX
  8
1_SERA-DSP
 10
1.846858
 20
1.004522
 30
0.0
 40
0.0079
 41
0.0079
  0
VERTEX
  8
1_SERA-DSP
 10
1.822022
 20
1.029358
 30
0.0
 40
0.0079
 41
0.0079
  0
VERTEX
  8
1_SERA-DSP
 10
1.793250
 20
1.049504
 30
0.0
 40
0.0079
 41
0.0079
  0
VERTEX
  8
1_SERA-DSP
 10
1.761417
 20
1.064348
 30
0.0
 40
0.0079
 41
0.0079
  0
VERTEX
  8
1_SERA-DSP
 10
1.727490
 20
1.073439
 30
0.0
 40
0.0079
 41
0.0079
  0
VERTEX
  8
1_SERA-DSP
 10
1.6925
 20
1.0765
 30
0.0
 40
0.0079
 41
0.0079
  0
SEQEND
  8
1_SERA-DSP
  0
POLYLINE
  8
1_SERA-DSP
 66
     1
 10
0.0
 20
0.0
 30
0.0
 70
     0
  0
VERTEX
  8
1_SERA-DSP
 10
1.122500
 20
0.6734
 30
0.0
 40
0.0079
 41
0.0079
  0
VERTEX
  8
1_SERA-DSP
 10
1.157507
 20
0.676463
 30
0.0
 40
0.0079
 41
0.0079
  0
VERTEX
  8
1_SERA-DSP
 10
1.191451
 20
0.685558
 30
0.0
 40
0.0079
 41
0.0079
  0
VERTEX
  8
1_SERA-DSP
 10
1.223300
 20
0.700409
 30
0.0
 40
0.0079
 41
0.0079
  0
VERTEX
  8
1_SERA-DSP
 10
1.252086
 20
0.720565
 30
0.0
 40
0.0079
 41
0.0079
  0
VERTEX
  8
1_SERA-DSP
 10
1.276935
 20
0.745414
 30
0.0
 40
0.0079
 41
0.0079
  0
VERTEX
  8
1_SERA-DSP
 10
1.297091
 20
0.774200
 30
0.0
 40
0.0079
 41
0.0079
  0
VERTEX
  8
1_SERA-DSP
 10
1.311942
 20
0.806049
 30
0.0
 40
0.0079
 41
0.0079
  0
VERTEX
  8
1_SERA-DSP
 10
1.3241
 20
0.875
 30
0.0
 40
0.0079
 41
0.0079
  0
SEQEND
  8
1_SERA-DSP
  0
POLYLINE
  8
1_SERA-DSP
 66
     1
 10
0.0
 20
0.0
 30
0.0
 70
     0
  0
VERTEX
  8
1_SERA-DSP
 10
0.9209
 20
0.875
 30
0.0
 40
0.0079
 41
0.0079
  0
VERTEX
  8
1_SERA-DSP
 10
0.923963
 20
0.839993
 30
0.0
 40
0.0079
 41
0.0079
  0
VERTEX
  8
1_SERA-DSP
 10
0.933058
 20
0.806049
 30
0.0
 40
0.0079
 41
0.0079
  0
VERTEX
  8
1_SERA-DSP
 10
0.947909
 20
0.774200
 30
0.0
 40
0.0079
 41
0.0079
  0
VERTEX
  8
1_SERA-DSP
 10
0.968065
 20
0.745414
 30
0.0
 40
0.0079
 41
0.0079
  0
VERTEX
  8
1_SERA-DSP
 10
0.992914
 20
0.720565
 30
0.0
 40
0.0079
 41
0.0079
  0
VERTEX
  8
1_SERA-DSP
 10
1.021700
 20
0.700409
 30
0.0
 40
0.0079
 41
0.0079
  0
VERTEX
  8
1_SERA-DSP
 10
1.053549
 20
0.685558
 30
0.0
 40
0.0079
 41
0.0079
  0
VERTEX
  8
1_SERA-DSP
 10
1.087493
 20
0.676463
 30
0.0
 40
0.0079
 41
0.0079
  0
VERTEX
  8
1_SERA-DSP
 10
1.122500
 20
0.6734
 30
0.0
 40
0.0079
 41
0.0079
  0
SEQEND
  8
1_SERA-DSP
  0
POLYLINE
  8
1_SERA-DSP
 66
     1
 10
0.0
 20
0.0
 30
0.0
 70
     0
  0
VERTEX
  8
1_SERA-DSP
 10
1.122500
 20
1.0765
 30
0.0
 40
0.0079
 41
0.0079
  0
VERTEX
  8
1_SERA-DSP
 10
1.087510
 20
1.073439
 30
0.0
 40
0.0079
 41
0.0079
  0
VERTEX
  8
1_SERA-DSP
 10
1.053583
 20
1.064348
 30
0.0
 40
0.0079
 41
0.0079
  0
VERTEX
  8
1_SERA-DSP
 10
1.02175
 20
1.049504
 30
0.0
 40
0.0079
 41
0.0079
  0
VERTEX
  8
1_SERA-DSP
 10
0.992978
 20
1.029358
 30
0.0
 40
0.0079
 41
0.0079
  0
VERTEX
  8
1_SERA-DSP
 10
0.968142
 20
1.004522
 30
0.0
 40
0.0079
 41
0.0079
  0
VERTEX
  8
1_SERA-DSP
 10
0.947996
 20
0.97575
 30
0.0
 40
0.0079
 41
0.0079
  0
VERTEX
  8
1_SERA-DSP
 10
0.933152
 20
0.943917
 30
0.0
 40
0.0079
 41
0.0079
  0
VERTEX
  8
1_SERA-DSP
 10
0.924061
 20
0.909990
 30
0.0
 40
0.0079
 41
0.0079
  0
VERTEX
  8
1_SERA-DSP
 10
0.921
 20
0.875
 30
0.0
 40
0.0079
 41
0.0079
  0
SEQEND
  8
1_SERA-DSP
  0
POLYLINE
  8
1_SERA-DSP
 66
     1
 10
0.0
 20
0.0
 30
0.0
 70
     0
  0
VERTEX
  8
1_SERA-DSP
 10
1.324
 20
0.875
 30
0.0
 40
0.0079
 41
0.0079
  0
VERTEX
  8
1_SERA-DSP
 10
1.320939
 20
0.909990
 30
0.0
 40
0.0079
 41
0.0079
  0
VERTEX
  8
1_SERA-DSP
 10
1.311848
 20
0.943917
 30
0.0
 40
0.0079
 41
0.0079
  0
VERTEX
  8
1_SERA-DSP
 10
1.297004
 20
0.97575
 30
0.0
 40
0.0079
 41
0.0079
  0
VERTEX
  8
1_SERA-DSP
 10
1.276858
 20
1.004522
 30
0.0
 40
0.0079
 41
0.0079
  0
VERTEX
  8
1_SERA-DSP
 10
1.252022
 20
1.029358
 30
0.0
 40
0.0079
 41
0.0079
  0
VERTEX
  8
1_SERA-DSP
 10
1.223250
 20
1.049504
 30
0.0
 40
0.0079
 41
0.0079
  0
VERTEX
  8
1_SERA-DSP
 10
1.191417
 20
1.064348
 30
0.0
 40
0.0079
 41
0.0079
  0
VERTEX
  8
1_SERA-DSP
 10
1.157490
 20
1.073439
 30
0.0
 40
0.0079
 41
0.0079
  0
VERTEX
  8
1_SERA-DSP
 10
1.122500
 20
1.0765
 30
0.0
 40
0.0079
 41
0.0079
  0
SEQEND
  8
1_SERA-DSP
  0
POLYLINE
  8
1_SERA-DSP
 66
     1
 10
0.0
 20
0.0
 30
0.0
 70
     0
  0
VERTEX
  8
1_SERA-DSP
 10
3.967500
 20
0.6734
 30
0.0
 40
0.0079
 41
0.0079
  0
VERTEX
  8
1_SERA-DSP
 10
4.002507
 20
0.676463
 30
0.0
 40
0.0079
 41
0.0079
  0
VERTEX
  8
1_SERA-DSP
 10
4.036451
 20
0.685558
 30
0.0
 40
0.0079
 41
0.0079
  0
VERTEX
  8
1_SERA-DSP
 10
4.0683
 20
0.700409
 30
0.0
 40
0.0079
 41
0.0079
  0
VERTEX
  8
1_SERA-DSP
 10
4.097086
 20
0.720565
 30
0.0
 40
0.0079
 41
0.0079
  0
VERTEX
  8
1_SERA-DSP
 10
4.121935
 20
0.745414
 30
0.0
 40
0.0079
 41
0.0079
  0
VERTEX
  8
1_SERA-DSP
 10
4.142091
 20
0.774200
 30
0.0
 40
0.0079
 41
0.0079
  0
VERTEX
  8
1_SERA-DSP
 10
4.156942
 20
0.806049
 30
0.0
 40
0.0079
 41
0.0079
  0
VERTEX
  8
1_SERA-DSP
 10
4.1691
 20
0.875
 30
0.0
 40
0.0079
 41
0.0079
  0
SEQEND
  8
1_SERA-DSP
  0
POLYLINE
  8
1_SERA-DSP
 66
     1
 10
0.0
 20
0.0
 30
0.0
 70
     0
  0
VERTEX
  8
1_SERA-DSP
 10
3.765900
 20
0.875
 30
0.0
 40
0.0079
 41
0.0079
  0
VERTEX
  8
1_SERA-DSP
 10
3.768963
 20
0.839993
 30
0.0
 40
0.0079
 41
0.0079
  0
VERTEX
  8
1_SERA-DSP
 10
3.778058
 20
0.806049
 30
0.0
 40
0.0079
 41
0.0079
  0
VERTEX
  8
1_SERA-DSP
 10
3.792909
 20
0.774200
 30
0.0
 40
0.0079
 41
0.0079
  0
VERTEX
  8
1_SERA-DSP
 10
3.813065
 20
0.745414
 30
0.0
 40
0.0079
 41
0.0079
  0
VERTEX
  8
1_SERA-DSP
 10
3.837914
 20
0.720565
 30
0.0
 40
0.0079
 41
0.0079
  0
VERTEX
  8
1_SERA-DSP
 10
3.866700
 20
0.700409
 30
0.0
 40
0.0079
 41
0.0079
  0
VERTEX
  8
1_SERA-DSP
 10
3.898549
 20
0.685558
 30
0.0
 40
0.0079
 41
0.0079
  0
VERTEX
  8
1_SERA-DSP
 10
3.932493
 20
0.676463
 30
0.0
 40
0.0079
 41
0.0079
  0
VERTEX
  8
1_SERA-DSP
 10
3.967500
 20
0.6734
 30
0.0
 40
0.0079
 41
0.0079
  0
SEQEND
  8
1_SERA-DSP
  0
POLYLINE
  8
1_SERA-DSP
 66
     1
 10
0.0
 20
0.0
 30
0.0
 70
     0
  0
VERTEX
  8
1_SERA-DSP
 10
3.967500
 20
1.0765
 30
0.0
 40
0.0079
 41
0.0079
  0
VERTEX
  8
1_SERA-DSP
 10
3.932510
 20
1.073439
 30
0.0
 40
0.0079
 41
0.0079
  0
VERTEX
  8
1_SERA-DSP
 10
3.898583
 20
1.064348
 30
0.0
 40
0.0079
 41
0.0079
  0
VERTEX
  8
1_SERA-DSP
 10
3.866750
 20
1.049504
 30
0.0
 40
0.0079
 41
0.0079
  0
VERTEX
  8
1_SERA-DSP
 10
3.837978
 20
1.029358
 30
0.0
 40
0.0079
 41
0.0079
  0
VERTEX
  8
1_SERA-DSP
 10
3.813142
 20
1.004522
 30
0.0
 40
0.0079
 41
0.0079
  0
VERTEX
  8
1_SERA-DSP
 10
3.792996
 20
0.97575
 30
0.0
 40
0.0079
 41
0.0079
  0
VERTEX
  8
1_SERA-DSP
 10
3.778152
 20
0.943917
 30
0.0
 40
0.0079
 41
0.0079
  0
VERTEX
  8
1_SERA-DSP
 10
3.769061
 20
0.909990
 30
0.0
 40
0.0079
 41
0.0079
  0
VERTEX
  8
1_SERA-DSP
 10
3.766
 20
0.875
 30
0.0
 40
0.0079
 41
0.0079
  0
SEQEND
  8
1_SERA-DSP
  0
POLYLINE
  8
1_SERA-DSP
 66
     1
 10
0.0
 20
0.0
 30
0.0
 70
     0
  0
VERTEX
  8
1_SERA-DSP
 10
4.169
 20
0.875
 30
0.0
 40
0.0079
 41
0.0079
  0
VERTEX
  8
1_SERA-DSP
 10
4.165939
 20
0.909990
 30
0.0
 40
0.0079
 41
0.0079
  0
VERTEX
  8
1_SERA-DSP
 10
4.156848
 20
0.943917
 30
0.0
 40
0.0079
 41
0.0079
  0
VERTEX
  8
1_SERA-DSP
 10
4.142004
 20
0.97575
 30
0.0
 40
0.0079
 41
0.0079
  0
VERTEX
  8
1_SERA-DSP
 10
4.121858
 20
1.004522
 30
0.0
 40
0.0079
 41
0.0079
  0
VERTEX
  8
1_SERA-DSP
 10
4.097022
 20
1.029358
 30
0.0
 40
0.0079
 41
0.0079
  0
VERTEX
  8
1_SERA-DSP
 10
4.068250
 20
1.049504
 30
0.0
 40
0.0079
 41
0.0079
  0
VERTEX
  8
1_SERA-DSP
 10
4.036417
 20
1.064348
 30
0.0
 40
0.0079
 41
0.0079
  0
VERTEX
  8
1_SERA-DSP
 10
4.002490
 20
1.073439
 30
0.0
 40
0.0079
 41
0.0079
  0
VERTEX
  8
1_SERA-DSP
 10
3.967500
 20
1.0765
 30
0.0
 40
0.0079
 41
0.0079
  0
SEQEND
  8
1_SERA-DSP
  0
POLYLINE
  8
1_SERA-DSP
 66
     1
 10
0.0
 20
0.0
 30
0.0
 70
     0
  0
VERTEX
  8
1_SERA-DSP
 10
3.402500
 20
0.6734
 30
0.0
 40
0.0079
 41
0.0079
  0
VERTEX
  8
1_SERA-DSP
 10
3.437507
 20
0.676463
 30
0.0
 40
0.0079
 41
0.0079
  0
VERTEX
  8
1_SERA-DSP
 10
3.471451
 20
0.685558
 30
0.0
 40
0.0079
 41
0.0079
  0
VERTEX
  8
1_SERA-DSP
 10
3.5033
 20
0.700409
 30
0.0
 40
0.0079
 41
0.0079
  0
VERTEX
  8
1_SERA-DSP
 10
3.532086
 20
0.720565
 30
0.0
 40
0.0079
 41
0.0079
  0
VERTEX
  8
1_SERA-DSP
 10
3.556935
 20
0.745414
 30
0.0
 40
0.0079
 41
0.0079
  0
VERTEX
  8
1_SERA-DSP
 10
3.577091
 20
0.774200
 30
0.0
 40
0.0079
 41
0.0079
  0
VERTEX
  8
1_SERA-DSP
 10
3.591942
 20
0.806049
 30
0.0
 40
0.0079
 41
0.0079
  0
VERTEX
  8
1_SERA-DSP
 10
3.6041
 20
0.875
 30
0.0
 40
0.0079
 41
0.0079
  0
SEQEND
  8
1_SERA-DSP
  0
POLYLINE
  8
1_SERA-DSP
 66
     1
 10
0.0
 20
0.0
 30
0.0
 70
     0
  0
VERTEX
  8
1_SERA-DSP
 10
3.200900
 20
0.875
 30
0.0
 40
0.0079
 41
0.0079
  0
VERTEX
  8
1_SERA-DSP
 10
3.203963
 20
0.839993
 30
0.0
 40
0.0079
 41
0.0079
  0
VERTEX
  8
1_SERA-DSP
 10
3.213058
 20
0.806049
 30
0.0
 40
0.0079
 41
0.0079
  0
VERTEX
  8
1_SERA-DSP
 10
3.227909
 20
0.774200
 30
0.0
 40
0.0079
 41
0.0079
  0
VERTEX
  8
1_SERA-DSP
 10
3.248065
 20
0.745414
 30
0.0
 40
0.0079
 41
0.0079
  0
VERTEX
  8
1_SERA-DSP
 10
3.272914
 20
0.720565
 30
0.0
 40
0.0079
 41
0.0079
  0
VERTEX
  8
1_SERA-DSP
 10
3.301700
 20
0.700409
 30
0.0
 40
0.0079
 41
0.0079
  0
VERTEX
  8
1_SERA-DSP
 10
3.333549
 20
0.685558
 30
0.0
 40
0.0079
 41
0.0079
  0
VERTEX
  8
1_SERA-DSP
 10
3.367493
 20
0.676463
 30
0.0
 40
0.0079
 41
0.0079
  0
VERTEX
  8
1_SERA-DSP
 10
3.402500
 20
0.6734
 30
0.0
 40
0.0079
 41
0.0079
  0
SEQEND
  8
1_SERA-DSP
  0
POLYLINE
  8
1_SERA-DSP
 66
     1
 10
0.0
 20
0.0
 30
0.0
 70
     0
  0
VERTEX
  8
1_SERA-DSP
 10
3.402500
 20
1.0765
 30
0.0
 40
0.0079
 41
0.0079
  0
VERTEX
  8
1_SERA-DSP
 10
3.367510
 20
1.073439
 30
0.0
 40
0.0079
 41
0.0079
  0
VERTEX
  8
1_SERA-DSP
 10
3.333583
 20
1.064348
 30
0.0
 40
0.0079
 41
0.0079
  0
VERTEX
  8
1_SERA-DSP
 10
3.301750
 20
1.049504
 30
0.0
 40
0.0079
 41
0.0079
  0
VERTEX
  8
1_SERA-DSP
 10
3.272978
 20
1.029358
 30
0.0
 40
0.0079
 41
0.0079
  0
VERTEX
  8
1_SERA-DSP
 10
3.248142
 20
1.004522
 30
0.0
 40
0.0079
 41
0.0079
  0
VERTEX
  8
1_SERA-DSP
 10
3.227996
 20
0.97575
 30
0.0
 40
0.0079
 41
0.0079
  0
VERTEX
  8
1_SERA-DSP
 10
3.213152
 20
0.943917
 30
0.0
 40
0.0079
 41
0.0079
  0
VERTEX
  8
1_SERA-DSP
 10
3.204061
 20
0.909990
 30
0.0
 40
0.0079
 41
0.0079
  0
VERTEX
  8
1_SERA-DSP
 10
3.201000
 20
0.875
 30
0.0
 40
0.0079
 41
0.0079
  0
SEQEND
  8
1_SERA-DSP
  0
POLYLINE
  8
1_SERA-DSP
 66
     1
 10
0.0
 20
0.0
 30
0.0
 70
     0
  0
VERTEX
  8
1_SERA-DSP
 10
3.604
 20
0.875
 30
0.0
 40
0.0079
 41
0.0079
  0
VERTEX
  8
1_SERA-DSP
 10
3.600939
 20
0.909990
 30
0.0
 40
0.0079
 41
0.0079
  0
VERTEX
  8
1_SERA-DSP
 10
3.591848
 20
0.943917
 30
0.0
 40
0.0079
 41
0.0079
  0
VERTEX
  8
1_SERA-DSP
 10
3.577004
 20
0.97575
 30
0.0
 40
0.0079
 41
0.0079
  0
VERTEX
  8
1_SERA-DSP
 10
3.556858
 20
1.004522
 30
0.0
 40
0.0079
 41
0.0079
  0
VERTEX
  8
1_SERA-DSP
 10
3.532022
 20
1.029358
 30
0.0
 40
0.0079
 41
0.0079
  0
VERTEX
  8
1_SERA-DSP
 10
3.503250
 20
1.049504
 30
0.0
 40
0.0079
 41
0.0079
  0
VERTEX
  8
1_SERA-DSP
 10
3.471417
 20
1.064348
 30
0.0
 40
0.0079
 41
0.0079
  0
VERTEX
  8
1_SERA-DSP
 10
3.437490
 20
1.073439
 30
0.0
 40
0.0079
 41
0.0079
  0
VERTEX
  8
1_SERA-DSP
 10
3.402500
 20
1.0765
 30
0.0
 40
0.0079
 41
0.0079
  0
SEQEND
  8
1_SERA-DSP
  0
POLYLINE
  8
1_SERA-DSP
 66
     1
 10
0.0
 20
0.0
 30
0.0
 70
     0
  0
VERTEX
  8
1_SERA-DSP
 10
2.8325
 20
0.6734
 30
0.0
 40
0.0079
 41
0.0079
  0
VERTEX
  8
1_SERA-DSP
 10
2.867507
 20
0.676463
 30
0.0
 40
0.0079
 41
0.0079
  0
VERTEX
  8
1_SERA-DSP
 10
2.901451
 20
0.685558
 30
0.0
 40
0.0079
 41
0.0079
  0
VERTEX
  8
1_SERA-DSP
 10
2.933300
 20
0.700409
 30
0.0
 40
0.0079
 41
0.0079
  0
VERTEX
  8
1_SERA-DSP
 10
2.962086
 20
0.720565
 30
0.0
 40
0.0079
 41
0.0079
  0
VERTEX
  8
1_SERA-DSP
 10
2.986935
 20
0.745414
 30
0.0
 40
0.0079
 41
0.0079
  0
VERTEX
  8
1_SERA-DSP
 10
3.007091
 20
0.774200
 30
0.0
 40
0.0079
 41
0.0079
  0
VERTEX
  8
1_SERA-DSP
 10
3.021942
 20
0.806049
 30
0.0
 40
0.0079
 41
0.0079
  0
VERTEX
  8
1_SERA-DSP
 10
3.034100
 20
0.875
 30
0.0
 40
0.0079
 41
0.0079
  0
SEQEND
  8
1_SERA-DSP
  0
POLYLINE
  8
1_SERA-DSP
 66
     1
 10
0.0
 20
0.0
 30
0.0
 70
     0
  0
VERTEX
  8
1_SERA-DSP
 10
2.630900
 20
0.875
 30
0.0
 40
0.0079
 41
0.0079
  0
VERTEX
  8
1_SERA-DSP
 10
2.633963
 20
0.839993
 30
0.0
 40
0.0079
 41
0.0079
  0
VERTEX
  8
1_SERA-DSP
 10
2.643058
 20
0.806049
 30
0.0
 40
0.0079
 41
0.0079
  0
VERTEX
  8
1_SERA-DSP
 10
2.657909
 20
0.774200
 30
0.0
 40
0.0079
 41
0.0079
  0
VERTEX
  8
1_SERA-DSP
 10
2.678065
 20
0.745414
 30
0.0
 40
0.0079
 41
0.0079
  0
VERTEX
  8
1_SERA-DSP
 10
2.702914
 20
0.720565
 30
0.0
 40
0.0079
 41
0.0079
  0
VERTEX
  8
1_SERA-DSP
 10
2.731700
 20
0.700409
 30
0.0
 40
0.0079
 41
0.0079
  0
VERTEX
  8
1_SERA-DSP
 10
2.763549
 20
0.685558
 30
0.0
 40
0.0079
 41
0.0079
  0
VERTEX
  8
1_SERA-DSP
 10
2.797493
 20
0.676463
 30
0.0
 40
0.0079
 41
0.0079
  0
VERTEX
  8
1_SERA-DSP
 10
2.8325
 20
0.6734
 30
0.0
 40
0.0079
 41
0.0079
  0
SEQEND
  8
1_SERA-DSP
  0
POLYLINE
  8
1_SERA-DSP
 66
     1
 10
0.0
 20
0.0
 30
0.0
 70
     0
  0
VERTEX
  8
1_SERA-DSP
 10
2.8325
 20
1.0765
 30
0.0
 40
0.0079
 41
0.0079
  0
VERTEX
  8
1_SERA-DSP
 10
2.797510
 20
1.073439
 30
0.0
 40
0.0079
 41
0.0079
  0
VERTEX
  8
1_SERA-DSP
 10
2.763583
 20
1.064348
 30
0.0
 40
0.0079
 41
0.0079
  0
VERTEX
  8
1_SERA-DSP
 10
2.73175
 20
1.049504
 30
0.0
 40
0.0079
 41
0.0079
  0
VERTEX
  8
1_SERA-DSP
 10
2.702978
 20
1.029358
 30
0.0
 40
0.0079
 41
0.0079
  0
VERTEX
  8
1_SERA-DSP
 10
2.678142
 20
1.004522
 30
0.0
 40
0.0079
 41
0.0079
  0
VERTEX
  8
1_SERA-DSP
 10
2.657996
 20
0.97575
 30
0.0
 40
0.0079
 41
0.0079
  0
VERTEX
  8
1_SERA-DSP
 10
2.643152
 20
0.943917
 30
0.0
 40
0.0079
 41
0.0079
  0
VERTEX
  8
1_SERA-DSP
 10
2.634061
 20
0.909990
 30
0.0
 40
0.0079
 41
0.0079
  0
VERTEX
  8
1_SERA-DSP
 10
2.631
 20
0.875
 30
0.0
 40
0.0079
 41
0.0079
  0
SEQEND
  8
1_SERA-DSP
  0
POLYLINE
  8
1_SERA-DSP
 66
     1
 10
0.0
 20
0.0
 30
0.0
 70
     0
  0
VERTEX
  8
1_SERA-DSP
 10
3.034
 20
0.875
 30
0.0
 40
0.0079
 41
0.0079
  0
VERTEX
  8
1_SERA-DSP
 10
3.030939
 20
0.909990
 30
0.0
 40
0.0079
 41
0.0079
  0
VERTEX
  8
1_SERA-DSP
 10
3.021848
 20
0.943917
 30
0.0
 40
0.0079
 41
0.0079
  0
VERTEX
  8
1_SERA-DSP
 10
3.007004
 20
0.97575
 30
0.0
 40
0.0079
 41
0.0079
  0
VERTEX
  8
1_SERA-DSP
 10
2.986858
 20
1.004522
 30
0.0
 40
0.0079
 41
0.0079
  0
VERTEX
  8
1_SERA-DSP
 10
2.962022
 20
1.029358
 30
0.0
 40
0.0079
 41
0.0079
  0
VERTEX
  8
1_SERA-DSP
 10
2.933250
 20
1.049504
 30
0.0
 40
0.0079
 41
0.0079
  0
VERTEX
  8
1_SERA-DSP
 10
2.901417
 20
1.064348
 30
0.0
 40
0.0079
 41
0.0079
  0
VERTEX
  8
1_SERA-DSP
 10
2.867490
 20
1.073439
 30
0.0
 40
0.0079
 41
0.0079
  0
VERTEX
  8
1_SERA-DSP
 10
2.8325
 20
1.0765
 30
0.0
 40
0.0079
 41
0.0079
  0
SEQEND
  8
1_SERA-DSP
  0
POLYLINE
  8
1_SERA-DSP
 66
     1
 10
0.0
 20
0.0
 30
0.0
 70
     0
  0
VERTEX
  8
1_SERA-DSP
 10
2.2625
 20
0.6734
 30
0.0
 40
0.0079
 41
0.0079
  0
VERTEX
  8
1_SERA-DSP
 10
2.297507
 20
0.676463
 30
0.0
 40
0.0079
 41
0.0079
  0
VERTEX
  8
1_SERA-DSP
 10
2.331451
 20
0.685558
 30
0.0
 40
0.0079
 41
0.0079
  0
VERTEX
  8
1_SERA-DSP
 10
2.363300
 20
0.700409
 30
0.0
 40
0.0079
 41
0.0079
  0
VERTEX
  8
1_SERA-DSP
 10
2.392086
 20
0.720565
 30
0.0
 40
0.0079
 41
0.0079
  0
VERTEX
  8
1_SERA-DSP
 10
2.416935
 20
0.745414
 30
0.0
 40
0.0079
 41
0.0079
  0
VERTEX
  8
1_SERA-DSP
 10
2.437091
 20
0.774200
 30
0.0
 40
0.0079
 41
0.0079
  0
VERTEX
  8
1_SERA-DSP
 10
2.451942
 20
0.806049
 30
0.0
 40
0.0079
 41
0.0079
  0
VERTEX
  8
1_SERA-DSP
 10
2.464100
 20
0.875
 30
0.0
 40
0.0079
 41
0.0079
  0
SEQEND
  8
1_SERA-DSP
  0
POLYLINE
  8
1_SERA-DSP
 66
     1
 10
0.0
 20
0.0
 30
0.0
 70
     0
  0
VERTEX
  8
1_SERA-DSP
 10
2.060900
 20
0.875
 30
0.0
 40
0.0079
 41
0.0079
  0
VERTEX
  8
1_SERA-DSP
 10
2.063963
 20
0.839993
 30
0.0
 40
0.0079
 41
0.0079
  0
VERTEX
  8
1_SERA-DSP
 10
2.073058
 20
0.806049
 30
0.0
 40
0.0079
 41
0.0079
  0
VERTEX
  8
1_SERA-DSP
 10
2.087909
 20
0.774200
 30
0.0
 40
0.0079
 41
0.0079
  0
VERTEX
  8
1_SERA-DSP
 10
2.108065
 20
0.745414
 30
0.0
 40
0.0079
 41
0.0079
  0
VERTEX
  8
1_SERA-DSP
 10
2.132914
 20
0.720565
 30
0.0
 40
0.0079
 41
0.0079
  0
VERTEX
  8
1_SERA-DSP
 10
2.161700
 20
0.700409
 30
0.0
 40
0.0079
 41
0.0079
  0
VERTEX
  8
1_SERA-DSP
 10
2.193549
 20
0.685558
 30
0.0
 40
0.0079
 41
0.0079
  0
VERTEX
  8
1_SERA-DSP
 10
2.227493
 20
0.676463
 30
0.0
 40
0.0079
 41
0.0079
  0
VERTEX
  8
1_SERA-DSP
 10
2.2625
 20
0.6734
 30
0.0
 40
0.0079
 41
0.0079
  0
SEQEND
  8
1_SERA-DSP
  0
POLYLINE
  8
1_SERA-DSP
 66
     1
 10
0.0
 20
0.0
 30
0.0
 70
     0
  0
VERTEX
  8
1_SERA-DSP
 10
2.2625
 20
1.0765
 30
0.0
 40
0.0079
 41
0.0079
  0
VERTEX
  8
1_SERA-DSP
 10
2.227510
 20
1.073439
 30
0.0
 40
0.0079
 41
0.0079
  0
VERTEX
  8
1_SERA-DSP
 10
2.193583
 20
1.064348
 30
0.0
 40
0.0079
 41
0.0079
  0
VERTEX
  8
1_SERA-DSP
 10
2.16175
 20
1.049504
 30
0.0
 40
0.0079
 41
0.0079
  0
VERTEX
  8
1_SERA-DSP
 10
2.132978
 20
1.029358
 30
0.0
 40
0.0079
 41
0.0079
  0
VERTEX
  8
1_SERA-DSP
 10
2.108142
 20
1.004522
 30
0.0
 40
0.0079
 41
0.0079
  0
VERTEX
  8
1_SERA-DSP
 10
2.087996
 20
0.97575
 30
0.0
 40
0.0079
 41
0.0079
  0
VERTEX
  8
1_SERA-DSP
 10
2.073152
 20
0.943917
 30
0.0
 40
0.0079
 41
0.0079
  0
VERTEX
  8
1_SERA-DSP
 10
2.064061
 20
0.909990
 30
0.0
 40
0.0079
 41
0.0079
  0
VERTEX
  8
1_SERA-DSP
 10
2.061
 20
0.875
 30
0.0
 40
0.0079
 41
0.0079
  0
SEQEND
  8
1_SERA-DSP
  0
POLYLINE
  8
1_SERA-DSP
 66
     1
 10
0.0
 20
0.0
 30
0.0
 70
     0
  0
VERTEX
  8
1_SERA-DSP
 10
2.464
 20
0.875
 30
0.0
 40
0.0079
 41
0.0079
  0
VERTEX
  8
1_SERA-DSP
 10
2.460939
 20
0.909990
 30
0.0
 40
0.0079
 41
0.0079
  0
VERTEX
  8
1_SERA-DSP
 10
2.451848
 20
0.943917
 30
0.0
 40
0.0079
 41
0.0079
  0
VERTEX
  8
1_SERA-DSP
 10
2.437004
 20
0.97575
 30
0.0
 40
0.0079
 41
0.0079
  0
VERTEX
  8
1_SERA-DSP
 10
2.416858
 20
1.004522
 30
0.0
 40
0.0079
 41
0.0079
  0
VERTEX
  8
1_SERA-DSP
 10
2.392022
 20
1.029358
 30
0.0
 40
0.0079
 41
0.0079
  0
VERTEX
  8
1_SERA-DSP
 10
2.363250
 20
1.049504
 30
0.0
 40
0.0079
 41
0.0079
  0
VERTEX
  8
1_SERA-DSP
 10
2.331417
 20
1.064348
 30
0.0
 40
0.0079
 41
0.0079
  0
VERTEX
  8
1_SERA-DSP
 10
2.297490
 20
1.073439
 30
0.0
 40
0.0079
 41
0.0079
  0
VERTEX
  8
1_SERA-DSP
 10
2.2625
 20
1.0765
 30
0.0
 40
0.0079
 41
0.0079
  0
SEQEND
  8
1_SERA-DSP
  0
ENDSEC
  0
EOF
